SplineFontDB: 3.2
FontName: Jiangeng
FullName: Jiangeng
FamilyName: Jiangeng
Weight: Regular
Copyright: Free, Open Source (no source code???)
Version: v1.0 Werconian Type
DefaultBaseFilename: jiangeng
ItalicAngle: 0
UnderlinePosition: -25
UnderlineWidth: 12
Ascent: 205
Descent: 51
InvalidEm: 0
sfntRevision: 0x00010000
LayerCount: 2
Layer: 0 0 "Back" 1
Layer: 1 0 "Fore" 0
XUID: [1021 318 329363189 6636]
StyleMap: 0x0040
FSType: 0
OS2Version: 4
OS2_WeightWidthSlopeOnly: 0
OS2_UseTypoMetrics: 1
CreationTime: 1694173837
ModificationTime: 1754615115
PfmFamily: 33
TTFWeight: 400
TTFWidth: 5
LineGap: 0
VLineGap: 0
Panose: 2 1 6 4 5 1 1 4 1 3
OS2TypoAscent: 251
OS2TypoAOffset: 0
OS2TypoDescent: -72
OS2TypoDOffset: 0
OS2TypoLinegap: 0
OS2WinAscent: 251
OS2WinAOffset: 0
OS2WinDescent: 72
OS2WinDOffset: 0
HheadAscent: 251
HheadAOffset: 0
HheadDescent: -72
HheadDOffset: 0
OS2SubXSize: 166
OS2SubYSize: 154
OS2SubXOff: 0
OS2SubYOff: 19
OS2SupXSize: 166
OS2SupYSize: 154
OS2SupXOff: 0
OS2SupYOff: 90
OS2StrikeYSize: 13
OS2StrikeYPos: 80
OS2CapHeight: 179
OS2XHeight: 134
OS2Vendor: '    '
Lookup: 1 0 0 "'subs' Subscript in Greek lookup 0" { "'subs' Subscript in Greek lookup 0 subtable" ("inferior") } ['subs' ('grek' <'dflt' > ) ]
Lookup: 1 1 0 "SimHei-'vert' Vertical Alternates in Latin lookup 0" { "SimHei-'vert' Vertical Alternates in Latin lookup 0 subtable"  } ['vert' ('hani' <'CHN ' 'ZHS ' > 'latn' <'dflt' > ) ]
Lookup: 1 0 0 "neamonternafont-'sups' Superscript in Latin lookup 0" { "neamonternafont-'sups' Superscript in Latin lookup 0 subtable"  } ['sups' ('cyrl' <'dflt' > 'grek' <'dflt' > 'DFLT' <'dflt' > 'latn' <'dflt' > ) ]
Lookup: 258 8 0 "DroidSans-'kern' Horizontal Kerning in Latin lookup 0" { "DroidSans-'kern' Horizontal Kerning in Latin lookup 0 subtable"  } ['kern' ('latn' <'dflt' > ) ]
MarkAttachClasses: 1
DEI: 91125
LangName: 1041 "" "+MFgwgzD8MJMwSDCT"
LangName: 2052 "" "+icFm9AAA" "+a2NeOAAA"

StartChar: .notdef
Encoding: 0 -1 0
Width: 153
GlyphClass: 1
Flags: HMW
HStem: 19 143<36 118>
VStem: 5 143<49 132>
LayerCount: 2
Fore
SplineSet
36 162 m 1
 148 132 l 1
 118 19 l 1
 5 49 l 1
 36 162 l 1
57 79 m 1
 88 70 l 1
 97 102 l 1
 65 111 l 1
 57 79 l 1
EndSplineSet
EndChar

StartChar: A
Encoding: 3 65 3
Width: 168
GlyphClass: 2
Flags: HMW
HStem: 0 5G<4 33 4 4 135 165 135 135> 48 25<58 111 58 119 49 111> 147 32<83 83 83 86>
VStem: 4 162<0 0>
AnchorPoint: "Anchor-6" 84 179 basechar 0
AnchorPoint: "Anchor-5" 165 0 basechar 0
AnchorPoint: "Anchor-4" 84 0 basechar 0
LayerCount: 2
Fore
SplineSet
165 0 m 1
 135 0 l 1
 119 48 l 1
 49 48 l 1
 33 0 l 1
 4 0 l 1
 68 179 l 1
 101 179 l 1
 165 0 l 1
83 147 m 1
 58 73 l 1
 111 73 l 1
 86 147 l 1
 83 147 l 1
EndSplineSet
EndChar

StartChar: Aring
Encoding: 24 197 24
Width: 168
GlyphClass: 2
Flags: HMW
HStem: 0 5G<4 33 4 4 135 165 135 135> 48 25<58 111 58 119 49 111> 147 32<83 83 83 86> 188 14<82 87 82 92> 219 14<82 87>
VStem: 61 15<209 213 209 217> 93 15<209 213>
AnchorPoint: "Anchor-6" 84 233 basechar 0
AnchorPoint: "Anchor-5" 165 0 basechar 0
AnchorPoint: "Anchor-4" 84 0 basechar 0
LayerCount: 2
Fore
SplineSet
84 188 m 0
 70 188 61 198 61 211 c 0
 61 224 70 233 84 233 c 0
 98 233 108 224 108 211 c 0
 108 198 98 188 84 188 c 0
84 219 m 0
 79 219 76 216 76 211 c 0
 76 206 79 202 84 202 c 0
 89 202 93 206 93 211 c 0
 93 216 89 219 84 219 c 0
165 0 m 1
 135 0 l 1
 119 48 l 1
 49 48 l 1
 33 0 l 1
 4 0 l 1
 68 179 l 1
 101 179 l 1
 165 0 l 1
83 147 m 1
 58 73 l 1
 111 73 l 1
 86 147 l 1
 83 147 l 1
EndSplineSet
EndChar

StartChar: AE
Encoding: 26 198 26
Width: 230
GlyphClass: 1
Flags: HMW
HStem: 0 25<139 222 139 222> 48 25<68 113 68 113 55 113> 80 25<139 209 139 209> 154 25<110 110 110 113 139 222 139 139>
VStem: 113 26<25 48 48 48 73 80 105 154>
LayerCount: 2
Fore
SplineSet
222 179 m 1
 222 154 l 1
 139 154 l 1
 139 105 l 1
 209 105 l 1
 209 80 l 1
 139 80 l 1xb8
 139 25 l 1
 222 25 l 1
 222 0 l 1
 113 0 l 1
 113 48 l 1
 55 48 l 1xf8
 31 0 l 1
 2 0 l 1
 95 179 l 1
 222 179 l 1
110 154 m 1
 68 73 l 1
 113 73 l 1xf8
 113 154 l 1
 110 154 l 1
EndSplineSet
EndChar

StartChar: B
Encoding: 27 66 27
Width: 162
GlyphClass: 1
Flags: HMW
HStem: 0 25<47 90> 81 24<47 88 47 88 88 92> 155 25<47 47 47 87 87 88>
VStem: 21 26<25 81 105 155> 117 26<123 139> 125 27<43 63>
LayerCount: 2
Fore
SplineSet
90 0 m 2xf4
 21 0 l 1
 21 179 l 1
 87 179 l 2
 123 179 143 163 143 131 c 0
 143 115 137 104 126 97 c 1xf8
 126 93 l 1
 141 88 152 77 152 53 c 0
 152 19 130 0 90 0 c 2xf4
47 155 m 1
 47 105 l 1
 88 105 l 2
 106 105 117 112 117 130 c 0
 117 147 106 155 88 155 c 2
 47 155 l 1
47 81 m 1
 47 25 l 1
 92 25 l 2
 112 25 125 33 125 53 c 0xf4
 125 73 112 81 92 81 c 2
 47 81 l 1
EndSplineSet
EndChar

StartChar: C
Encoding: 28 67 28
Width: 163
GlyphClass: 2
Flags: HMW
HStem: -3 25<74 100 74 103> 156 25<74 100>
VStem: 10 27<68 111 68 118>
AnchorPoint: "Anchor-6" 84 179 basechar 0
AnchorPoint: "Anchor-4" 82 0 basechar 0
LayerCount: 2
Fore
SplineSet
90 -3 m 0
 41 -3 10 33 10 90 c 0
 10 147 41 182 90 182 c 4
 116 182 140 172 155 153 c 5
 137 135 l 5
 123 150 109 156 91 156 c 4
 57 156 37 133 37 90 c 0
 37 47 57 23 91 23 c 0
 109 23 123 29 137 44 c 1
 155 26 l 1
 140 7 116 -3 90 -3 c 0
EndSplineSet
EndChar

StartChar: D
Encoding: 34 68 34
Width: 168
GlyphClass: 2
Flags: HMW
HStem: 0 25<47 72 47 72> 154 25<47 72 47 47>
VStem: 21 26<25 25 25 154> 131 27<67 112>
AnchorPoint: "Anchor-6" 84 179 basechar 0
AnchorPoint: "Anchor-4" 84 0 basechar 0
LayerCount: 2
Fore
SplineSet
72 179 m 2
 127 179 158 148 158 90 c 0
 158 32 127 0 72 0 c 2
 21 0 l 1
 21 179 l 1
 72 179 l 2
47 25 m 1
 72 25 l 2
 112 25 131 46 131 90 c 0
 131 134 112 154 72 154 c 2
 47 154 l 1
 47 25 l 1
EndSplineSet
EndChar

StartChar: Eth
Encoding: 35 208 35
Width: 170
GlyphClass: 2
Flags: HMW
HStem: 0 25<49 74 74 74> 77 24<3 23 3 23 49 86> 154 25<49 74 49 49>
VStem: 23 26<25 25 25 77 101 154> 133 27<67 112>
AnchorPoint: "Anchor-6" 86 179 basechar 0
AnchorPoint: "Anchor-4" 86 0 basechar 0
LayerCount: 2
Fore
SplineSet
74 179 m 2
 129 179 160 148 160 90 c 0
 160 32 129 0 74 0 c 2
 23 0 l 1
 23 77 l 1
 3 77 l 1
 3 101 l 1
 23 101 l 1
 23 179 l 1
 74 179 l 2
49 25 m 1
 74 25 l 2
 114 25 133 46 133 90 c 0
 133 134 114 154 74 154 c 2
 49 154 l 1
 49 101 l 1
 86 101 l 1
 86 77 l 1
 49 77 l 1
 49 25 l 1
EndSplineSet
EndChar

StartChar: Dcroat
Encoding: 37 272 37
Width: 170
GlyphClass: 2
Flags: HMW
HStem: 0 25<49 74 74 74> 77 24<3 23 3 23 49 86> 154 25<49 74 49 49>
VStem: 23 26<25 25 25 77 101 154> 133 27<67 112>
AnchorPoint: "Anchor-6" 86 179 basechar 0
AnchorPoint: "Anchor-4" 86 0 basechar 0
LayerCount: 2
Fore
SplineSet
74 179 m 2
 129 179 160 148 160 90 c 0
 160 32 129 0 74 0 c 2
 23 0 l 1
 23 77 l 1
 3 77 l 1
 3 101 l 1
 23 101 l 1
 23 179 l 1
 74 179 l 2
49 25 m 1
 74 25 l 2
 114 25 133 46 133 90 c 0
 133 134 114 154 74 154 c 2
 49 154 l 1
 49 101 l 1
 86 101 l 1
 86 77 l 1
 49 77 l 1
 49 25 l 1
EndSplineSet
EndChar

StartChar: E
Encoding: 40 69 40
Width: 141
GlyphClass: 2
Flags: HMW
HStem: 0 25<47 133 47 133> 80 25<47 121 47 121> 154 25<47 133 47 47>
VStem: 21 26<25 80 105 154>
AnchorPoint: "Anchor-6" 77 179 basechar 0
AnchorPoint: "Anchor-5" 133 0 basechar 0
AnchorPoint: "Anchor-4" 77 0 basechar 0
LayerCount: 2
Fore
SplineSet
133 0 m 1
 21 0 l 1
 21 179 l 1
 133 179 l 1
 133 154 l 1
 47 154 l 1
 47 105 l 1
 121 105 l 1
 121 80 l 1
 47 80 l 1
 47 25 l 1
 133 25 l 1
 133 0 l 1
EndSplineSet
EndChar

StartChar: F
Encoding: 58 70 58
Width: 142
GlyphClass: 1
Flags: HMW
HStem: 0 5G<21 47 21 21> 77 25<47 121 47 121> 154 25<47 133 47 47>
VStem: 21 26<0 77 102 154>
LayerCount: 2
Fore
SplineSet
47 0 m 1
 21 0 l 1
 21 179 l 1
 133 179 l 1
 133 154 l 1
 47 154 l 1
 47 102 l 1
 121 102 l 1
 121 77 l 1
 47 77 l 1
 47 0 l 1
EndSplineSet
EndChar

StartChar: G
Encoding: 59 71 59
Width: 169
GlyphClass: 2
Flags: HMW
HStem: -3 25<75 101 75 106> 68 24<90 130 90 156> 156 25<73 99>
VStem: 10 27<68 111 68 118> 130 26<35 68 68 68>
AnchorPoint: "Anchor-6" 86 179 basechar 0
AnchorPoint: "Anchor-4" 84 0 basechar 0
LayerCount: 2
Fore
SplineSet
92 -3 m 0
 41 -3 10 32 10 90 c 0
 10 147 42 182 89 182 c 0
 117 182 139 171 155 153 c 1
 137 135 l 1
 123 150 109 156 89 156 c 0
 57 156 37 134 37 90 c 0
 37 46 57 23 93 23 c 0
 109 23 120 27 130 35 c 1
 130 68 l 1
 90 68 l 1
 90 92 l 1
 156 92 l 1
 156 23 l 1
 141 8 120 -3 92 -3 c 0
EndSplineSet
EndChar

StartChar: H
Encoding: 66 72 66
Width: 182
GlyphClass: 2
Flags: HMW
HStem: 0 5G<21 47 21 21 135 135 135 162> 80 25<47 135 47 135> 174 5G<21 47 47 47 135 162 162 162>
VStem: 21 26<0 80 105 179> 135 26<0 80 80 80 105 179 0 179>
AnchorPoint: "Anchor-6" 91 179 basechar 0
AnchorPoint: "Anchor-4" 91 0 basechar 0
LayerCount: 2
Fore
SplineSet
47 0 m 1
 21 0 l 1
 21 179 l 1
 47 179 l 1
 47 105 l 1
 135 105 l 1
 135 179 l 1
 162 179 l 1
 162 0 l 1
 135 0 l 1
 135 80 l 1
 47 80 l 1
 47 0 l 1
EndSplineSet
EndChar

StartChar: Hbar
Encoding: 67 294 67
Width: 187
GlyphClass: 2
Flags: HMW
HStem: 0 5G<23 49 23 23 137 164 137 137> 80 25<49 137 49 137> 130 24<3 23 3 23 49 137 164 184> 130 49<3 49 3 49 23 49 23 137>
VStem: 23 26<0 80 105 130 154 179> 137 26<0 80 80 80 105 130 0 130 154 179>
AnchorPoint: "Anchor-6" 93 179 basechar 0
AnchorPoint: "Anchor-4" 93 0 basechar 0
LayerCount: 2
Fore
SplineSet
164 154 m 1xec
 184 154 l 1xec
 184 130 l 1
 164 130 l 1
 164 0 l 1
 137 0 l 1
 137 80 l 1
 49 80 l 1
 49 0 l 1
 23 0 l 1
 23 130 l 1
 3 130 l 1xdc
 3 154 l 1
 23 154 l 1xec
 23 179 l 1
 49 179 l 1xdc
 49 154 l 1
 137 154 l 1xec
 137 179 l 1
 164 179 l 1xdc
 164 154 l 1xec
49 105 m 1
 137 105 l 1
 137 130 l 1
 49 130 l 1xdc
 49 105 l 1
EndSplineSet
EndChar

StartChar: I
Encoding: 71 73 71
Width: 68
GlyphClass: 2
Flags: HMW
HStem: 0 5G<21 47 21 21> 174 5G<21 47 47 47>
VStem: 21 26<0 179>
AnchorPoint: "Anchor-6" 34 179 basechar 0
AnchorPoint: "Anchor-5" 47 0 basechar 0
AnchorPoint: "Anchor-4" 34 0 basechar 0
LayerCount: 2
Fore
SplineSet
47 0 m 5
 21 0 l 5
 21 179 l 5
 47 179 l 5
 47 0 l 5
EndSplineSet
EndChar

StartChar: J
Encoding: 83 74 83
Width: 124
GlyphClass: 2
Flags: HMW
HStem: -3 25<47 61 47 69> 174 5G<80 106 106 106>
VStem: 80 26<55 56 56 179>
AnchorPoint: "Anchor-6" 93 179 basechar 0
AnchorPoint: "Anchor-4" 62 0 basechar 0
LayerCount: 2
Fore
SplineSet
54 -3 m 0
 34 -3 16 6 6 16 c 1
 22 36 l 1
 30 28 41 23 54 23 c 0
 69 23 80 32 80 55 c 2
 80 179 l 1
 106 179 l 1
 106 56 l 2
 106 16 85 -3 54 -3 c 0
EndSplineSet
EndChar

StartChar: K
Encoding: 85 75 85
Width: 153
GlyphClass: 2
Flags: HMW
HStem: 0 5G<21 47 21 21 117 117 117 150> 80 25<47 60 47 61> 174 5G<21 47 47 47 115 147 147 147>
VStem: 21 26<0 80 105 179>
AnchorPoint: "Anchor-6" 77 179 basechar 0
AnchorPoint: "Anchor-4" 77 0 basechar 0
LayerCount: 2
Fore
SplineSet
47 0 m 1
 21 0 l 1
 21 179 l 1
 47 179 l 1
 47 105 l 1
 61 105 l 1
 115 179 l 1
 147 179 l 1
 84 95 l 1
 84 91 l 1
 150 0 l 1
 117 0 l 1
 60 80 l 1
 47 80 l 1
 47 0 l 1
EndSplineSet
EndChar

StartChar: L
Encoding: 87 76 87
Width: 140
GlyphClass: 2
Flags: HMW
HStem: 0 25<47 133 47 133> 174 5G<21 47 47 47>
VStem: 21 26<25 179 25 179 25 179>
AnchorPoint: "Anchor-7" 59 134 basechar 0
AnchorPoint: "Anchor-6" 34 179 basechar 0
AnchorPoint: "Anchor-4" 77 0 basechar 0
LayerCount: 2
Fore
SplineSet
133 0 m 1
 21 0 l 1
 21 179 l 1
 47 179 l 1
 47 25 l 1
 133 25 l 1
 133 0 l 1
EndSplineSet
EndChar

StartChar: Lcaron
Encoding: 89 317 89
Width: 140
GlyphClass: 2
Flags: HMW
HStem: 0 25<47 133 47 133> 133 46<64 86 21 64>
VStem: 21 26<25 179 25 179 25 179> 64 24
AnchorPoint: "Anchor-7" 59 134 basechar 0
AnchorPoint: "Anchor-6" 34 179 basechar 0
AnchorPoint: "Anchor-4" 77 0 basechar 0
LayerCount: 2
Fore
SplineSet
133 0 m 1
 21 0 l 1
 21 179 l 1
 47 179 l 1
 47 25 l 1
 133 25 l 1
 133 0 l 1
86 133 m 1
 64 133 l 1
 64 179 l 1
 89 179 l 1
 86 133 l 1
EndSplineSet
EndChar

StartChar: Lslash
Encoding: 95 321 95
Width: 142
GlyphClass: 2
Flags: HMW
HStem: 0 25<49 135 49 135> 174 5G<23 49 49 49>
VStem: 23 26<25 66 66 66 113 179>
AnchorPoint: "Anchor-7" 61 134 basechar 0
AnchorPoint: "Anchor-6" 36 179 basechar 0
AnchorPoint: "Anchor-4" 79 0 basechar 0
LayerCount: 2
Fore
SplineSet
49 84 m 1
 49 25 l 1
 135 25 l 1
 135 0 l 1
 23 0 l 1
 23 66 l 1
 3 52 l 1
 3 81 l 1
 23 95 l 1
 23 179 l 1
 49 179 l 1
 49 113 l 1
 70 127 l 1
 70 98 l 1
 49 84 l 1
EndSplineSet
EndChar

StartChar: M
Encoding: 96 77 96
Width: 225
GlyphClass: 2
Flags: HMW
HStem: 0 27<93 115 111 115 111 133> 144 35<46 50 46 46 176 179 176 176>
VStem: 21 25<0 144> 179 25<0 144 144 144>
AnchorPoint: "Anchor-6" 113 179 basechar 0
AnchorPoint: "Anchor-4" 113 0 basechar 0
LayerCount: 2
Fore
SplineSet
46 0 m 1
 21 0 l 1
 21 179 l 1
 64 179 l 1
 111 27 l 1
 115 27 l 1
 162 179 l 1
 205 179 l 1
 205 0 l 1
 179 0 l 1
 179 144 l 1
 176 144 l 1
 133 0 l 1
 93 0 l 1
 50 144 l 1
 46 144 l 1
 46 0 l 1
EndSplineSet
EndChar

StartChar: N
Encoding: 98 78 98
Width: 182
GlyphClass: 2
Flags: HMW
HStem: 0 5G<21 47 21 21 135 135 135 162> 136 43<47 51 47 47>
VStem: 21 26<0 136> 135 26<0 179 55 179 0 179>
AnchorPoint: "Anchor-6" 91 179 basechar 0
AnchorPoint: "Anchor-4" 91 0 basechar 0
LayerCount: 2
Fore
SplineSet
47 0 m 1
 21 0 l 1
 21 179 l 1
 54 179 l 1
 131 55 l 1
 135 55 l 1
 135 179 l 1
 162 179 l 1
 162 0 l 1
 135 0 l 1
 51 136 l 1
 47 136 l 1
 47 0 l 1
EndSplineSet
EndChar

StartChar: O
Encoding: 106 79 106
Width: 185
GlyphClass: 2
Flags: HMW
HStem: -3 25<75 111 75 119> 156 25<75 111>
VStem: 10 27<68 111 68 118> 148 27<68 111>
AnchorPoint: "Anchor-7" 128 179 basechar 0
AnchorPoint: "Anchor-6" 93 179 basechar 0
AnchorPoint: "Anchor-5" 116 0 basechar 0
AnchorPoint: "Anchor-4" 93 0 basechar 0
LayerCount: 2
Fore
SplineSet
93 -3 m 4
 42 -3 10 33 10 89 c 4
 10 146 41 182 93 182 c 4
 144 182 175 146 175 89 c 4
 175 33 144 -3 93 -3 c 4
93 23 m 4
 129 23 148 46 148 89 c 4
 148 133 129 156 93 156 c 4
 56 156 37 133 37 89 c 4
 37 46 56 23 93 23 c 4
EndSplineSet
EndChar

StartChar: Ohorn
Encoding: 119 416 119
Width: 186
GlyphClass: 2
Flags: HMW
HStem: -3 25<75 111 75 119> 156 25<75 101 67 111> 174 5G<123 139>
VStem: 10 27<68 111 68 118> 148 27<68 106 61 111> 152 23
AnchorPoint: "Anchor-6" 93 179 basechar 0
AnchorPoint: "Anchor-4" 93 0 basechar 0
LayerCount: 2
Fore
SplineSet
93 -3 m 0xd8
 42 -3 10 33 10 89 c 0xd8
 10 146 41 182 93 182 c 0
 109 182 117 179 129 179 c 0xb4
 149 179 154 195 151 209 c 1
 174 209 l 1
 179 185 169 164 148 163 c 1xd4
 147 160 l 1
 165 148 175 122 175 89 c 0
 175 33 144 -3 93 -3 c 0xd8
93 23 m 0
 129 23 148 46 148 89 c 0
 148 133 129 156 93 156 c 0
 57 156 37 133 37 89 c 0
 37 46 57 23 93 23 c 0
EndSplineSet
EndChar

StartChar: Oslash
Encoding: 127 216 127
Width: 185
GlyphClass: 2
Flags: HMW
HStem: -3 25<89 111 89 119> 156 25<75 98>
VStem: 10 27<79 111 79 118> 148 27<68 99>
AnchorPoint: "Anchor-7" 128 179 basechar 0
AnchorPoint: "Anchor-6" 93 179 basechar 0
AnchorPoint: "Anchor-5" 116 0 basechar 0
AnchorPoint: "Anchor-4" 93 0 basechar 0
LayerCount: 2
Fore
SplineSet
169 190 m 1
 150 160 l 1
 166 144 175 119 175 89 c 0
 175 33 144 -3 93 -3 c 0
 79 -3 66 0 55 5 c 1
 45 -11 l 1
 17 -11 l 1
 35 19 l 1
 19 35 10 59 10 89 c 0
 10 146 41 182 93 182 c 0
 107 182 119 179 130 174 c 1
 140 190 l 1
 169 190 l 1
37 89 m 0
 37 69 42 53 50 42 c 1
 117 152 l 1
 110 155 102 156 93 156 c 0
 56 156 37 133 37 89 c 0
93 23 m 0
 129 23 148 46 148 89 c 0
 148 109 144 126 136 137 c 1
 69 27 l 1
 76 24 84 23 93 23 c 0
EndSplineSet
EndChar

StartChar: OE
Encoding: 129 338 129
Width: 228
GlyphClass: 1
Flags: HMW
HStem: 0 25<137 220 137 220> 0 25<96 98 98 111 96 220> 80 25<137 207 137 207> 154 25<77 220 98 111 137 220 137 137>
VStem: 10 27<68 111 68 119> 111 26<25 80 105 154>
LayerCount: 2
Fore
SplineSet
220 0 m 1xbc
 98 0 l 2
 42 0 10 32 10 90 c 0
 10 148 42 179 98 179 c 2
 220 179 l 1
 220 154 l 1
 137 154 l 1
 137 105 l 1
 207 105 l 1
 207 80 l 1
 137 80 l 1
 137 25 l 1
 220 25 l 1
 220 0 l 1xbc
96 25 m 2x7c
 111 25 l 1
 111 154 l 1
 96 154 l 2
 57 154 37 134 37 90 c 0
 37 46 57 25 96 25 c 2x7c
EndSplineSet
EndChar

StartChar: P
Encoding: 130 80 130
Width: 155
GlyphClass: 1
Flags: HMW
HStem: 0 5G<21 47 21 21> 66 25<47 86 47 88> 154 25<47 47 47 86 86 88>
VStem: 21 26<0 66 91 154> 121 26<112 134>
LayerCount: 2
Fore
SplineSet
47 0 m 1
 21 0 l 1
 21 179 l 1
 86 179 l 2
 123 179 147 160 147 123 c 0
 147 86 122 66 86 66 c 2
 47 66 l 1
 47 0 l 1
47 154 m 1
 47 91 l 1
 88 91 l 2
 109 91 121 101 121 123 c 0
 121 145 109 154 88 154 c 2
 47 154 l 1
EndSplineSet
EndChar

StartChar: Thorn
Encoding: 131 222 131
Width: 155
GlyphClass: 1
Flags: HMW
HStem: 0 5G<21 47 21 21> 33 25<47 86 47 88> 121 25<47 86 47 86 86 88> 174 5G<21 47 47 47>
VStem: 21 26<0 33 58 121 146 179> 121 26<78 100>
LayerCount: 2
Fore
SplineSet
47 0 m 1
 21 0 l 1
 21 179 l 1
 47 179 l 1
 47 146 l 1
 86 146 l 2
 123 146 147 126 147 89 c 0
 147 52 122 33 86 33 c 2
 47 33 l 1
 47 0 l 1
47 121 m 1
 47 58 l 1
 88 58 l 2
 109 58 121 67 121 89 c 0
 121 111 109 121 88 121 c 2
 47 121 l 1
EndSplineSet
EndChar

StartChar: Q
Encoding: 132 81 132
Width: 185
GlyphClass: 2
Flags: HMW
HStem: -3 25<75 96> 156 25<75 111>
VStem: 10 27<68 111 68 118> 148 27<70 111>
AnchorPoint: "Anchor-7" 128 179 basechar 0
AnchorPoint: "Anchor-6" 93 179 basechar 0
AnchorPoint: "Anchor-5" 116 0 basechar 0
AnchorPoint: "Anchor-4" 93 0 basechar 0
LayerCount: 2
Fore
SplineSet
175 89 m 0
 175 49 160 20 133 6 c 1
 154 -35 l 1
 125 -35 l 1
 108 -2 l 1
 103 -3 98 -3 93 -3 c 0
 42 -3 10 33 10 89 c 0
 10 146 41 182 93 182 c 0
 144 182 175 146 175 89 c 0
37 89 m 0
 37 46 56 23 93 23 c 0
 129 23 148 46 148 89 c 0
 148 133 129 156 93 156 c 0
 56 156 37 133 37 89 c 0
EndSplineSet
EndChar

StartChar: R
Encoding: 133 82 133
Width: 162
GlyphClass: 2
Flags: HMW
HStem: 0 5G<21 47 21 21 125 156 125 125> 69 25<47 81 47 88> 154 25<47 86 86 88 47 47>
VStem: 21 26<0 69 0 94 94 154> 121 26<113 135>
AnchorPoint: "Anchor-6" 83 179 basechar 0
AnchorPoint: "Anchor-4" 84 0 basechar 0
LayerCount: 2
Fore
SplineSet
112 69 m 5
 156 0 l 5
 125 0 l 5
 81 69 l 5
 47 69 l 5
 47 0 l 5
 21 0 l 1
 21 179 l 5
 86 179 l 6
 123 179 147 162 147 124 c 4
 147 96 134 80 112 73 c 5
 112 69 l 5
88 154 m 6
 47 154 l 5
 47 94 l 5
 88 94 l 6
 109 94 121 102 121 124 c 4
 121 146 109 154 88 154 c 6
EndSplineSet
EndChar

StartChar: S
Encoding: 140 83 140
Width: 144
GlyphClass: 2
Flags: HMW
HStem: -3 25<64 83 64 90> 157 25<62 78>
VStem: 15 26<127 141 127 147> 107 27<42 57>
AnchorPoint: "Anchor-6" 72 179 basechar 0
AnchorPoint: "Anchor-4" 72 0 basechar 0
LayerCount: 2
Fore
SplineSet
73 -3 m 0
 45 -3 23 9 9 25 c 1
 27 43 l 1
 40 29 55 22 72 22 c 0
 94 22 107 34 107 50 c 0
 107 64 98 72 78 78 c 2
 60 83 l 2
 32 91 15 108 15 132 c 0
 15 163 39 182 71 182 c 0
 96 182 115 172 129 158 c 1
 113 139 l 1
 100 152 86 157 71 157 c 0
 54 157 41 149 41 134 c 0
 41 121 50 112 69 107 c 2
 88 102 l 2
 117 94 133 79 133 52 c 0
 133 17 107 -3 73 -3 c 0
EndSplineSet
EndChar

StartChar: uni1E9E
Encoding: 148 7838 148
Width: 178
GlyphClass: 1
Flags: HMW
HStem: -3 25<103 118 103 126> 0 5G<21 47 21 21> 87 20<83 101 83 87> 154 25<47 125 47 47>
VStem: 21 26<0 154> 141 27<45 67>
LayerCount: 2
Fore
SplineSet
47 0 m 1x7c
 21 0 l 1x7c
 21 179 l 1
 158 179 l 1
 163 155 l 1
 115 107 l 1
 145 106 168 89 168 55 c 0
 168 22 142 -3 110 -3 c 0
 86 -3 68 8 57 26 c 1
 76 42 l 1
 85 28 96 23 110 23 c 0xbc
 127 23 141 35 141 55 c 0
 141 79 124 87 101 87 c 2
 87 87 l 1
 83 107 l 1
 126 151 l 1
 125 154 l 1
 47 154 l 1
 47 0 l 1x7c
EndSplineSet
EndChar

StartChar: uni018F
Encoding: 149 399 149
Width: 179
GlyphClass: 1
Flags: HMW
HStem: -3 25<75 104 75 114> 73 25<39 141 39 39> 157 25<76 103>
VStem: 142 27<98 98>
LayerCount: 2
Fore
SplineSet
90 -3 m 0
 34 -3 12 42 12 90 c 2
 12 98 l 1
 142 98 l 1
 139 137 120 157 87 157 c 0
 65 157 49 148 34 132 c 1
 17 151 l 1
 34 170 58 182 87 182 c 0
 140 182 169 145 169 90 c 0
 169 34 138 -3 90 -3 c 0
90 23 m 0
 119 23 137 40 141 73 c 1
 39 73 l 1
 43 43 59 23 90 23 c 0
EndSplineSet
EndChar

StartChar: T
Encoding: 150 84 150
Width: 136
GlyphClass: 2
Flags: HMW
HStem: 0 5G<55 82 55 55> 154 25<3 55 3 134 82 134 82 82>
VStem: 55 26<0 154 0 154>
AnchorPoint: "Anchor-6" 68 179 basechar 0
AnchorPoint: "Anchor-4" 68 0 basechar 0
LayerCount: 2
Fore
SplineSet
134 179 m 5
 134 154 l 5
 82 154 l 5
 82 0 l 5
 55 0 l 5
 55 154 l 5
 3 154 l 5
 3 179 l 5
 134 179 l 5
EndSplineSet
EndChar

StartChar: U
Encoding: 156 85 156
Width: 172
GlyphClass: 2
Flags: HMW
HStem: -3 25<73 101 73 109> 174 5G<18 44 44 44 130 155 155 155>
VStem: 18 26<74 179> 130 25<72 74 74 179>
AnchorPoint: "Anchor-7" 130 179 basechar 0
AnchorPoint: "Anchor-6" 86 179 basechar 0
AnchorPoint: "Anchor-5" 108 0 basechar 0
AnchorPoint: "Anchor-4" 86 0 basechar 0
LayerCount: 2
Fore
SplineSet
87 -3 m 0
 40 -3 18 25 18 74 c 2
 18 179 l 1
 44 179 l 1
 44 72 l 2
 44 40 58 23 87 23 c 0
 114 23 130 40 130 72 c 2
 130 179 l 1
 155 179 l 1
 155 74 l 2
 155 25 130 -3 87 -3 c 0
EndSplineSet
EndChar

StartChar: Uhorn
Encoding: 169 431 169
Width: 172
GlyphClass: 2
Flags: HMW
HStem: -3 25<73 101 73 109> 174 5G<18 44 44 44 130 130 130 141>
VStem: 18 26<74 179> 130 25<72 74 74 161> 154 24
AnchorPoint: "Anchor-7" 176 209 basechar 0
AnchorPoint: "Anchor-6" 87 179 basechar 0
AnchorPoint: "Anchor-5" 108 0 basechar 0
AnchorPoint: "Anchor-4" 87 0 basechar 0
LayerCount: 2
Fore
SplineSet
153 209 m 1xe8
 176 209 l 1xe8
 181 188 175 169 155 161 c 1
 155 74 l 2
 155 25 130 -3 87 -3 c 0
 40 -3 18 25 18 74 c 2
 18 179 l 1
 44 179 l 1
 44 72 l 2
 44 40 58 23 87 23 c 0
 114 23 130 40 130 72 c 2xf0
 130 179 l 1
 151 179 156 195 153 209 c 1xe8
EndSplineSet
EndChar

StartChar: V
Encoding: 180 86 180
Width: 173
GlyphClass: 1
Flags: HMW
HStem: 0 32<85 89 85 103 71 89> 174 5G<5 33 33 33 141 169 169 169>
VStem: 5 164<179 179>
LayerCount: 2
Fore
SplineSet
103 0 m 1
 71 0 l 1
 5 179 l 1
 33 179 l 1
 85 32 l 1
 89 32 l 1
 141 179 l 1
 169 179 l 1
 103 0 l 1
EndSplineSet
EndChar

StartChar: W
Encoding: 181 87 181
Width: 229
GlyphClass: 2
Flags: HMW
HStem: 0 30<59 62 59 82 40 62 167 171> 152 27<113 117 113 113>
VStem: 6 218<179 179>
AnchorPoint: "Anchor-6" 115 179 basechar 0
AnchorPoint: "Anchor-4" 115 0 basechar 0
LayerCount: 2
Fore
SplineSet
82 0 m 1
 40 0 l 1
 6 179 l 1
 35 179 l 1
 59 30 l 1
 62 30 l 1
 94 179 l 1
 136 179 l 1
 167 30 l 1
 171 30 l 1
 195 179 l 1
 224 179 l 1
 189 0 l 1
 148 0 l 1
 117 152 l 1
 113 152 l 1
 82 0 l 1
EndSplineSet
EndChar

StartChar: X
Encoding: 186 88 186
Width: 157
GlyphClass: 1
Flags: HMW
HStem: 0 5G<4 35 4 4 123 123 123 153> 174 5G<4 35 35 35 120 151 151 151>
VStem: 4 150<0 0>
LayerCount: 2
Fore
SplineSet
35 0 m 1
 4 0 l 1
 60 90 l 1
 4 179 l 1
 35 179 l 1
 77 111 l 1
 81 111 l 1
 120 179 l 1
 151 179 l 1
 97 90 l 1
 153 0 l 1
 123 0 l 1
 79 68 l 1
 76 68 l 1
 35 0 l 1
EndSplineSet
EndChar

StartChar: Y
Encoding: 187 89 187
Width: 157
GlyphClass: 2
Flags: HMW
HStem: 0 5G<66 92 66 66> 174 5G<3 33 33 33 125 154 154 154>
VStem: 66 26<0 71>
AnchorPoint: "Anchor-6" 79 179 basechar 0
AnchorPoint: "Anchor-4" 79 0 basechar 0
LayerCount: 2
Fore
SplineSet
92 0 m 1
 66 0 l 1
 66 71 l 1
 3 179 l 1
 33 179 l 1
 77 101 l 1
 80 101 l 1
 125 179 l 1
 154 179 l 1
 92 71 l 1
 92 0 l 1
EndSplineSet
EndChar

StartChar: Z
Encoding: 196 90 196
Width: 141
GlyphClass: 2
Flags: HMW
HStem: 0 25<42 134 7 7> 154 25<12 100 12 132>
VStem: 7 34<0 28 25 28> 100 32<151 154 154 154>
AnchorPoint: "Anchor-6" 71 179 basechar 0
AnchorPoint: "Anchor-4" 71 0 basechar 0
LayerCount: 2
Fore
SplineSet
134 0 m 1
 7 0 l 1
 7 25 l 5
 100 151 l 5
 100 154 l 5
 12 154 l 5
 12 179 l 5
 132 179 l 5
 132 151 l 5
 42 28 l 5
 42 25 l 1
 134 25 l 1
 134 0 l 1
EndSplineSet
EndChar

StartChar: a
Encoding: 201 97 201
Width: 141
GlyphClass: 2
Flags: HMW
HStem: -3 22<53 64> 0 5G<98 123 98 98> 62 20<53 98 62 98 62 98> 114 23<61 77>
VStem: 11 25<34 46 34 52> 98 25<0 17 17 17 39 62 62 62 82 86 0 96>
AnchorPoint: "Anchor-6" 71 134 basechar 0
AnchorPoint: "Anchor-5" 123 0 basechar 0
AnchorPoint: "Anchor-4" 71 0 basechar 0
LayerCount: 2
Fore
SplineSet
55 -3 m 0xbc
 29 -3 11 13 11 39 c 0
 11 64 29 82 62 82 c 2
 98 82 l 1
 98 86 l 2
 98 106 85 114 68 114 c 0
 52 114 41 107 29 97 c 1
 15 115 l 1
 28 127 46 137 69 137 c 0
 100 137 123 121 123 86 c 2
 123 0 l 1
 98 0 l 1
 98 17 l 1x7c
 95 18 l 1
 87 5 73 -3 55 -3 c 0xbc
61 20 m 0
 77 20 90 27 98 39 c 1
 98 62 l 1
 62 62 l 2
 44 62 36 53 36 40 c 0
 36 28 44 20 61 20 c 0
EndSplineSet
Substitution2: "neamonternafont-'sups' Superscript in Latin lookup 0 subtable" a.superior
EndChar

StartChar: uni0251
Encoding: 220 593 220
Width: 153
GlyphClass: 2
Flags: HMW
HStem: -3 23<62 77> 0 5G<110 135 110 110> 113 24<64 79 55 81> 129 5G<110 135 135 135>
VStem: 11 25<52 81 52 89> 110 25<0 18 18 18 41 98 98 98 123 134 0 134>
AnchorPoint: "Anchor-6" 77 134 basechar 0
AnchorPoint: "Anchor-5" 135 0 basechar 0
AnchorPoint: "Anchor-4" 76 0 basechar 0
LayerCount: 2
Fore
SplineSet
69 -3 m 0xac
 36 -3 11 21 11 65 c 0
 11 113 39 137 71 137 c 0
 88 137 99 131 106 122 c 1
 110 123 l 1xac
 110 134 l 1
 135 134 l 1
 135 0 l 1
 110 0 l 1
 110 18 l 1x5c
 106 19 l 1
 98 4 85 -3 69 -3 c 0xac
73 21 m 0
 91 21 102 28 110 41 c 1
 110 98 l 1
 101 110 87 113 75 113 c 0
 52 113 36 96 36 65 c 0
 36 39 51 21 73 21 c 0
EndSplineSet
EndChar

StartChar: ae
Encoding: 225 230 225
Width: 228
GlyphClass: 1
Flags: HMW
HStem: -3 22<53 68> -3 23<151 169 151 171> 62 20 62 20<53 98 62 98 62 98> 114 23<61 77> 114 22<151 170>
VStem: 11 25<34 46 34 52> 98 24<39 62 62 62 62 86> 194 25<61 82>
LayerCount: 2
Fore
SplineSet
56 -3 m 0xa780
 29 -3 11 13 11 39 c 0
 11 64 29 82 62 82 c 2
 98 82 l 1
 98 86 l 2
 98 106 85 114 68 114 c 0
 52 114 41 107 29 97 c 1xab80
 15 115 l 1
 28 127 46 137 69 137 c 0
 92 137 105 129 112 113 c 1
 116 113 l 1
 122 128 138 137 160 137 c 0
 199 137 219 109 219 68 c 2
 219 61 l 1
 122 62 l 1
 124 36 139 21 162 21 c 0
 175 21 186 26 198 36 c 1x6780
 214 17 l 1
 199 3 180 -3 162 -3 c 0
 140 -3 121 7 109 25 c 1
 105 25 l 1
 95 10 80 -3 56 -3 c 0xa780
160 114 m 0
 141 114 128 102 124 82 c 1
 194 82 l 1
 191 102 179 114 160 114 c 0
61 20 m 0
 77 20 90 27 98 39 c 1
 98 62 l 1
 62 62 l 2x9780
 44 62 36 53 36 40 c 0
 36 28 44 20 61 20 c 0
EndSplineSet
EndChar

StartChar: b
Encoding: 226 98 226
Width: 152
GlyphClass: 1
Flags: HMW
HStem: -3 23<73 89 69 99> 0 5G<19 43 19 19> 113 23<76 90> 177 5G<19 43 43 43>
VStem: 19 25<0 10 36 93 116 182> 116 25<54 83>
LayerCount: 2
Fore
SplineSet
83 -3 m 4xbc
 65 -3 53 5 47 12 c 5
 43 10 l 5xbc
 43 0 l 5
 19 0 l 1x7c
 19 182 l 1
 43 182 l 1
 43 116 l 1
 47 115 l 1
 54 129 66 137 85 137 c 0
 118 137 141 112 141 68 c 0
 141 22 115 -3 83 -3 c 4xbc
77 21 m 4
 102 21 116 39 116 68 c 0
 116 97 101 113 79 113 c 0
 61 113 51 105 43 93 c 1
 43 36 l 5
 50 27 62 21 77 21 c 4
EndSplineSet
Substitution2: "neamonternafont-'sups' Superscript in Latin lookup 0 subtable" b.superior
EndChar

StartChar: c
Encoding: 227 99 227
Width: 135
GlyphClass: 2
Flags: HMW
HStem: -3 23<63 82 63 86> 113 23<63 82>
VStem: 11 25<53 81 53 88>
AnchorPoint: "Anchor-6" 71 134 basechar 0
AnchorPoint: "Anchor-4" 70 0 basechar 0
LayerCount: 2
Fore
SplineSet
75 -3 m 0
 36 -3 11 26 11 67 c 4
 11 108 36 137 75 137 c 4
 97 137 115 127 127 113 c 5
 110 96 l 5
 101 107 88 113 75 113 c 4
 50 113 36 95 36 67 c 4
 36 39 50 21 75 21 c 0
 88 21 101 27 110 38 c 1
 127 21 l 1
 115 7 97 -3 75 -3 c 0
EndSplineSet
Substitution2: "neamonternafont-'sups' Superscript in Latin lookup 0 subtable" c.superior
EndChar

StartChar: d
Encoding: 233 100 233
Width: 153
GlyphClass: 2
Flags: HMW
HStem: -3 23<62 77> 0 5G<110 135 110 110> 113 23<66 84 60 85> 177 5G<110 135 135 135>
VStem: 11 25<52 81 52 89> 110 25<0 18 18 18 41 107 107 107 130 182 0 182>
AnchorPoint: "Anchor-7" 145 137 basechar 0
AnchorPoint: "Anchor-6" 77 182 basechar 0
AnchorPoint: "Anchor-4" 77 0 basechar 0
LayerCount: 2
Fore
SplineSet
69 -3 m 0xbc
 36 -3 11 21 11 65 c 0
 11 113 40 137 78 137 c 0
 89 137 101 134 110 130 c 1
 110 182 l 1
 135 182 l 1
 135 0 l 1
 110 0 l 1
 110 18 l 1x7c
 106 19 l 1
 98 4 85 -3 69 -3 c 0xbc
73 21 m 0
 91 21 102 28 110 41 c 1
 110 107 l 1
 101 111 91 113 79 113 c 0
 52 113 36 96 36 65 c 0
 36 39 51 21 73 21 c 0
EndSplineSet
Substitution2: "neamonternafont-'sups' Superscript in Latin lookup 0 subtable" d.superior
EndChar

StartChar: eth
Encoding: 234 240 234
Width: 151
GlyphClass: 1
Flags: HMW
HStem: -3 23<63 87 63 95> 113 23<62 80 54 87> 176 5G<93 93>
VStem: 11 25<53 81 53 88> 114 27<53 81>
LayerCount: 2
Fore
SplineSet
75 -3 m 0
 35 -3 11 25 11 67 c 0
 11 109 35 137 74 137 c 0
 86 137 97 133 105 124 c 1
 109 126 l 1
 106 138 98 148 88 156 c 1
 45 140 l 1
 45 163 l 1
 63 169 l 1
 53 173 41 176 29 177 c 1
 34 201 l 1
 57 198 77 191 93 181 c 1
 129 195 l 1
 129 172 l 1
 112 165 l 1
 131 145 141 118 141 81 c 0
 141 26 115 -3 75 -3 c 0
75 21 m 0
 100 21 114 39 114 67 c 0
 114 95 100 113 75 113 c 0
 50 113 36 95 36 67 c 0
 36 39 50 21 75 21 c 0
EndSplineSet
EndChar

StartChar: dcaron
Encoding: 235 271 235
Width: 174
GlyphClass: 2
Flags: HMW
HStem: -3 23<62 77> 0 5G<110 135 110 110> 113 23<66 84 60 85> 136 46<150 172 110 150>
VStem: 11 25<52 81 52 89> 110 25<0 18 18 18 41 107 107 107 130 182 0 182> 150 23
AnchorPoint: "Anchor-7" 145 137 basechar 0
AnchorPoint: "Anchor-6" 77 182 basechar 0
AnchorPoint: "Anchor-4" 77 0 basechar 0
LayerCount: 2
Fore
SplineSet
69 -3 m 0xae
 36 -3 11 21 11 65 c 0
 11 113 40 137 78 137 c 0
 89 137 101 134 110 130 c 1xae
 110 182 l 1
 135 182 l 1
 135 0 l 1
 110 0 l 1
 110 18 l 1x5e
 106 19 l 1
 98 4 85 -3 69 -3 c 0xae
172 136 m 1x9e
 150 136 l 1
 150 182 l 1
 175 182 l 1
 172 136 l 1x9e
73 21 m 0
 91 21 102 28 110 41 c 1
 110 107 l 1
 101 111 91 113 79 113 c 0xae
 52 113 36 96 36 65 c 0
 36 39 51 21 73 21 c 0
EndSplineSet
EndChar

StartChar: dcroat
Encoding: 236 273 236
Width: 159
GlyphClass: 1
Flags: HMW
HStem: -3 23<62 77> 0 5G<110 135 110 110> 112 23<66 84 60 85> 144 22<64 110 64 110 135 155> 144 37<64 135 110 155 110 135>
VStem: 11 25<52 79 52 88> 110 25<0 18 18 18 41 105 105 105 129 144 0 144 166 182>
LayerCount: 2
Fore
SplineSet
135 166 m 5xb6
 155 166 l 5xb6
 155 144 l 5
 135 144 l 5
 135 0 l 1
 110 0 l 1
 110 18 l 1x6e
 106 19 l 1
 98 4 85 -3 69 -3 c 0
 36 -3 11 21 11 65 c 0
 11 112 40 135 78 135 c 0
 89 135 101 133 110 129 c 1
 110 144 l 5
 64 144 l 5xae
 64 166 l 5
 110 166 l 5xb6
 110 182 l 1
 135 182 l 1xae
 135 166 l 5xb6
110 41 m 1
 110 105 l 1
 101 109 91 112 79 112 c 0
 52 112 36 95 36 65 c 0
 36 40 51 21 73 21 c 0
 91 21 102 28 110 41 c 1
EndSplineSet
EndChar

StartChar: e
Encoding: 239 101 239
Width: 144
GlyphClass: 2
Flags: HMW
HStem: -3 23<64 84 64 86> 60 22<37 110 37 135 36 110> 114 22<65 85>
VStem: 11 25<60 60 60 88> 110 25<60 82>
AnchorPoint: "Anchor-6" 73 134 basechar 0
AnchorPoint: "Anchor-5" 98 0 basechar 0
AnchorPoint: "Anchor-4" 73 0 basechar 0
LayerCount: 2
Fore
SplineSet
77 -3 m 0
 35 -3 11 26 11 67 c 0
 11 108 34 137 74 137 c 0
 115 137 135 109 135 68 c 2
 135 60 l 1
 36 60 l 1
 38 35 53 21 77 21 c 0
 92 21 103 26 115 36 c 1
 130 17 l 1
 115 3 97 -3 77 -3 c 0
75 114 m 0
 55 114 41 102 37 82 c 1
 110 82 l 1
 107 102 95 114 75 114 c 0
EndSplineSet
Substitution2: "neamonternafont-'sups' Superscript in Latin lookup 0 subtable" e.superior
EndChar

StartChar: uni0259
Encoding: 257 601 257
Width: 144
GlyphClass: 2
Flags: HMW
HStem: -3 22<60 80 60 90> 52 22<34 108 34 34> 113 23<61 80>
VStem: 9 25<52 74 52 74> 109 25<74 74>
AnchorPoint: "Anchor-6" 72 134 basechar 0
AnchorPoint: "Anchor-5" 47 134 basechar 0
AnchorPoint: "Anchor-4" 72 0 basechar 0
LayerCount: 2
Fore
SplineSet
68 137 m 0
 110 137 134 108 134 67 c 0
 134 26 110 -3 70 -3 c 0
 29 -3 9 26 9 67 c 2
 9 74 l 1
 109 74 l 1
 107 99 92 113 68 113 c 0
 53 113 42 108 30 98 c 1
 14 117 l 1
 29 131 48 137 68 137 c 0
70 20 m 0
 90 20 104 32 108 52 c 1
 34 52 l 1
 37 32 50 20 70 20 c 0
EndSplineSet
EndChar

StartChar: f
Encoding: 258 102 258
Width: 98
GlyphClass: 1
Flags: HMW
HStem: 0 5G<31 56 31 31> 112 22<5 31 5 31 56 94> 166 23<73 84 66 84>
VStem: 5 50<112 112 134 134> 31 25<0 112 134 138>
LayerCount: 2
Fore
SplineSet
56 0 m 1xe8
 31 0 l 1
 31 112 l 1xe8
 5 112 l 1
 5 134 l 1xf0
 31 134 l 1
 31 139 l 2
 31 173 51 189 82 189 c 0
 87 189 92 189 97 188 c 1
 97 165 l 1
 92 166 87 166 82 166 c 0
 65 166 56 157 56 138 c 2
 56 134 l 1
 94 134 l 1
 94 112 l 1
 56 112 l 1
 56 0 l 1xe8
EndSplineSet
Substitution2: "neamonternafont-'sups' Superscript in Latin lookup 0 subtable" f.superior
EndChar

StartChar: g
Encoding: 259 103 259
Width: 152
GlyphClass: 2
Flags: HMW
HStem: -51 23<65 84 65 93> 3 23<61 78> 113 24<63 78 53 82> 129 5G<109 134 134 134>
VStem: 11 25<56 83 56 90> 109 25<47 98 98 98 123 134> 109 24<11 15 15 24 24 24>
AnchorPoint: "Anchor-6" 73 134 basechar 0
AnchorPoint: "Anchor-4" 73 -49 basechar 0
LayerCount: 2
Fore
SplineSet
73 -51 m 0xec
 49 -51 29 -42 17 -28 c 1
 33 -11 l 1
 43 -22 57 -28 73 -28 c 0
 96 -28 109 -16 109 11 c 2
 109 24 l 1
 106 25 l 1xea
 99 12 87 3 69 3 c 0
 35 3 11 31 11 69 c 0
 11 111 37 137 70 137 c 0
 86 137 98 131 106 122 c 1
 109 123 l 1xec
 109 134 l 1
 134 134 l 1xdc
 134 15 l 2
 134 -27 112 -51 73 -51 c 0xec
72 26 m 0
 89 26 102 34 109 47 c 1
 109 98 l 1
 100 108 89 113 74 113 c 0
 51 113 36 98 36 69 c 0
 36 42 50 26 72 26 c 0
EndSplineSet
Substitution2: "neamonternafont-'sups' Superscript in Latin lookup 0 subtable" g.superior
EndChar

StartChar: uni0123
Encoding: 263 291 263
Width: 152
GlyphClass: 2
Flags: HMW
HStem: -51 23<65 84 65 93> 3 23<61 78> 113 24<63 78 53 82> 129 5G<109 134 134 134>
VStem: 11 25<56 83 56 90> 109 25<47 98 98 98 123 134> 109 24<11 15 15 24 24 24>
AnchorPoint: "Anchor-6" 81 196 basechar 0
AnchorPoint: "Anchor-4" 73 -49 basechar 0
LayerCount: 2
Fore
SplineSet
99 189 m 1xec
 84 155 l 1
 62 155 l 1
 77 196 l 1
 99 189 l 1xec
73 -51 m 0
 49 -51 29 -42 17 -28 c 1
 33 -11 l 1
 43 -22 57 -28 73 -28 c 0
 96 -28 109 -16 109 11 c 2
 109 24 l 1
 106 25 l 1xea
 99 12 87 3 69 3 c 0
 35 3 11 31 11 69 c 0
 11 111 37 137 70 137 c 0
 86 137 98 131 106 122 c 1
 109 123 l 1xec
 109 134 l 1
 134 134 l 1xdc
 134 15 l 2
 134 -27 112 -51 73 -51 c 0
72 26 m 0
 89 26 102 34 109 47 c 1
 109 98 l 1
 100 108 89 113 74 113 c 0
 51 113 36 98 36 69 c 0
 36 42 50 26 72 26 c 0
EndSplineSet
EndChar

StartChar: uni0261
Encoding: 266 609 266
Width: 152
GlyphClass: 2
Flags: HMW
HStem: -51 23<65 84 65 93> 3 23<61 78> 113 24<63 78 53 82> 129 5G<109 134 134 134>
VStem: 11 25<56 83 56 90> 109 25<47 98 98 98 123 134> 109 24<11 15 15 24 24 24>
AnchorPoint: "Anchor-6" 73 134 basechar 0
AnchorPoint: "Anchor-4" 73 -49 basechar 0
LayerCount: 2
Fore
SplineSet
73 -51 m 0xec
 49 -51 29 -42 17 -28 c 1
 33 -11 l 1
 43 -22 57 -28 73 -28 c 0
 96 -28 109 -16 109 11 c 2
 109 24 l 1
 106 25 l 1xea
 99 12 87 3 69 3 c 0
 35 3 11 31 11 69 c 0
 11 111 37 137 70 137 c 0
 86 137 98 131 106 122 c 1
 109 123 l 1xec
 109 134 l 1
 134 134 l 1xdc
 134 15 l 2
 134 -27 112 -51 73 -51 c 0xec
72 26 m 0
 89 26 102 34 109 47 c 1
 109 98 l 1
 100 108 89 113 74 113 c 0
 51 113 36 98 36 69 c 0
 36 42 50 26 72 26 c 0
EndSplineSet
EndChar

StartChar: h
Encoding: 267 104 267
Width: 152
GlyphClass: 2
Flags: HMW
HStem: 0 5G<19 43 19 19 111 111 111 135> 114 23<77 90> 177 5G<19 43 43 43>
VStem: 19 25<0 91 113 182> 111 25<0 81 81 86 0 93>
AnchorPoint: "Anchor-6" 77 182 basechar 0
AnchorPoint: "Anchor-4" 77 0 basechar 0
LayerCount: 2
Fore
SplineSet
43 0 m 1
 19 0 l 1
 19 182 l 1
 43 182 l 1
 43 113 l 1
 47 112 l 1
 54 126 67 137 87 137 c 0
 117 137 135 119 135 86 c 2
 135 0 l 1
 111 0 l 1
 111 81 l 2
 111 104 100 114 81 114 c 0
 64 114 50 104 43 91 c 1
 43 0 l 1
EndSplineSet
Substitution2: "neamonternafont-'sups' Superscript in Latin lookup 0 subtable" h.superior
EndChar

StartChar: hbar
Encoding: 268 295 268
Width: 155
GlyphClass: 1
Flags: HMW
HStem: 0 5G<21 46 21 21 113 138 113 113> 112 23<80 93> 146 22<1 21 1 21 46 84> 146 36<1 46 1 46 21 46 21 84>
VStem: 21 25<0 89 0 112 112 146 168 182> 113 25<0 80 80 84 0 91>
LayerCount: 2
Fore
SplineSet
90 135 m 0xdc
 120 135 138 116 138 84 c 2
 138 0 l 1
 113 0 l 1
 113 80 l 2
 113 103 102 112 83 112 c 0
 66 112 53 102 46 89 c 1
 46 0 l 1
 21 0 l 1
 21 146 l 1
 1 146 l 1xdc
 1 168 l 1
 21 168 l 1xec
 21 182 l 1
 46 182 l 1xdc
 46 168 l 1
 84 168 l 1xec
 84 146 l 1
 46 146 l 1
 46 112 l 1
 49 111 l 1
 56 125 71 135 90 135 c 0xdc
EndSplineSet
EndChar

StartChar: i
Encoding: 272 105 272
Width: 61
GlyphClass: 2
Flags: HMW
HStem: 0 5G<19 43 19 19> 129 5G<19 43 43 43> 158 26<18 44 18 44>
VStem: 18 26<158 184> 19 25<0 134>
AnchorPoint: "Anchor-6" 31 184 basechar 0
AnchorPoint: "Anchor-5" 43 0 basechar 0
AnchorPoint: "Anchor-4" 31 0 basechar 0
LayerCount: 2
Fore
SplineSet
44 158 m 1xf0
 18 158 l 1
 18 184 l 1
 44 184 l 1
 44 158 l 1xf0
43 0 m 5xe8
 19 0 l 5
 19 134 l 5
 43 134 l 5
 43 0 l 5xe8
EndSplineSet
Substitution2: "neamonternafont-'sups' Superscript in Latin lookup 0 subtable" i.superior
EndChar

StartChar: dotlessi
Encoding: 273 305 273
Width: 61
GlyphClass: 2
Flags: HMW
HStem: 0 5G<19 43 19 19> 129 5G<19 43 43 43>
VStem: 19 25<0 134>
AnchorPoint: "Anchor-6" 31 134 basechar 0
AnchorPoint: "Anchor-5" 43 0 basechar 0
AnchorPoint: "Anchor-4" 31 0 basechar 0
LayerCount: 2
Fore
SplineSet
43 0 m 1
 19 0 l 1
 19 134 l 1
 43 134 l 1
 43 0 l 1
EndSplineSet
EndChar

StartChar: j
Encoding: 284 106 284
Width: 64
GlyphClass: 2
Flags: HMW
HStem: -51 23<3 9 1 18> -49 5G<-11 -11> 129 5G<22 46 46 46> 158 26<21 47 21 47>
VStem: 21 26<158 184> 22 25<-6 134> 22 25<-6 158 134 158>
AnchorPoint: "Anchor-6" 34 184 basechar 0
AnchorPoint: "Anchor-4" 33 -49 basechar 0
LayerCount: 2
Fore
SplineSet
47 158 m 1x72
 21 158 l 1
 21 184 l 1xb8
 47 184 l 1
 47 158 l 1x72
6 -51 m 4
 0 -51 -6 -50 -11 -49 c 5x74
 -11 -26 l 5
 -7 -28 -1 -28 3 -28 c 4
 14 -28 22 -23 22 -6 c 6
 22 134 l 5
 46 134 l 5
 46 -6 l 6xb4
 46 -35 31 -51 6 -51 c 4
EndSplineSet
Substitution2: "neamonternafont-'sups' Superscript in Latin lookup 0 subtable" j.superior
EndChar

StartChar: uni0237
Encoding: 285 567 285
Width: 64
GlyphClass: 2
Flags: HMW
HStem: -51 23<3 9 1 18> -49 5G<-11 -11> 129 5G<22 46 46 46>
VStem: 22 25<-6 134>
AnchorPoint: "Anchor-6" 34 134 basechar 0
AnchorPoint: "Anchor-4" 33 -49 basechar 0
LayerCount: 2
Fore
SplineSet
6 -51 m 4xb0
 0 -51 -6 -50 -11 -49 c 5x70
 -11 -26 l 5
 -7 -28 -1 -28 3 -28 c 4
 14 -28 22 -23 22 -6 c 6
 22 134 l 5
 46 134 l 5
 46 -6 l 6
 46 -35 31 -51 6 -51 c 4xb0
EndSplineSet
EndChar

StartChar: k
Encoding: 287 107 287
Width: 131
GlyphClass: 2
Flags: HMW
HStem: 0 5G<19 43 19 19 98 128 98 98> 59 22<43 54 43 54> 129 5G<97 128 128 128> 177 5G<19 43 43 43>
VStem: 19 25<0 59 0 81 81 182>
AnchorPoint: "Anchor-6" 66 182 basechar 0
AnchorPoint: "Anchor-4" 66 0 basechar 0
LayerCount: 2
Fore
SplineSet
128 134 m 1
 77 71 l 1
 77 68 l 1
 128 0 l 1
 98 0 l 1
 54 59 l 1
 43 59 l 1
 43 0 l 1
 19 0 l 1
 19 182 l 1
 43 182 l 1
 43 81 l 1
 54 81 l 1
 97 134 l 1
 128 134 l 1
EndSplineSet
Substitution2: "neamonternafont-'sups' Superscript in Latin lookup 0 subtable" k.superior
EndChar

StartChar: kgreenlandic
Encoding: 289 312 289
Width: 131
GlyphClass: 1
Flags: HMW
HStem: 0 5G<19 43 19 19 98 128 98 98> 59 22<43 54 43 54> 129 5G<19 43 43 43 97 128 128 128>
VStem: 19 25<0 59 0 81 81 134>
LayerCount: 2
Fore
SplineSet
128 134 m 1
 77 71 l 1
 77 68 l 1
 128 0 l 1
 98 0 l 1
 54 59 l 1
 43 59 l 1
 43 0 l 1
 19 0 l 1
 19 134 l 1
 43 134 l 1
 43 81 l 1
 54 81 l 1
 97 134 l 1
 128 134 l 1
EndSplineSet
EndChar

StartChar: l
Encoding: 290 108 290
Width: 61
GlyphClass: 2
Flags: HMW
HStem: 0 5G<19 43 19 19> 177 5G<19 43 43 43>
VStem: 19 25<0 182>
AnchorPoint: "Anchor-7" 54 137 basechar 0
AnchorPoint: "Anchor-6" 31 182 basechar 0
AnchorPoint: "Anchor-4" 31 0 basechar 0
LayerCount: 2
Fore
SplineSet
43 0 m 1
 19 0 l 1
 19 182 l 1
 43 182 l 1
 43 0 l 1
EndSplineSet
Substitution2: "neamonternafont-'sups' Superscript in Latin lookup 0 subtable" l.superior
EndChar

StartChar: lcaron
Encoding: 292 318 292
Width: 83
GlyphClass: 2
Flags: HMW
HStem: 0 5G<19 43 19 19> 136 46<59 80 19 59>
VStem: 19 25<0 182> 59 23
AnchorPoint: "Anchor-7" 54 137 basechar 0
AnchorPoint: "Anchor-6" 31 182 basechar 0
AnchorPoint: "Anchor-4" 31 0 basechar 0
LayerCount: 2
Fore
SplineSet
43 0 m 1
 19 0 l 1
 19 182 l 1
 43 182 l 1
 43 0 l 1
80 136 m 1
 59 136 l 1
 59 182 l 1
 83 182 l 1
 80 136 l 1
EndSplineSet
EndChar

StartChar: lslash
Encoding: 298 322 298
Width: 76
GlyphClass: 2
Flags: HMW
HStem: 0 5G<26 50 26 26> 177 5G<26 50 50 50>
VStem: 26 25<0 68 68 68 111 182>
AnchorPoint: "Anchor-7" 61 137 basechar 0
AnchorPoint: "Anchor-6" 38 182 basechar 0
AnchorPoint: "Anchor-4" 38 0 basechar 0
LayerCount: 2
Fore
SplineSet
50 111 m 1
 72 126 l 1
 72 98 l 1
 50 84 l 1
 50 0 l 1
 26 0 l 1
 26 68 l 1
 4 53 l 1
 4 80 l 1
 26 95 l 1
 26 182 l 1
 50 182 l 1
 50 111 l 1
EndSplineSet
EndChar

StartChar: m
Encoding: 299 109 299
Width: 224
GlyphClass: 2
Flags: HMW
HStem: 0 5G<19 43 19 19 100 100 100 125 182 182 182 207> 114 23<74 84 153 165> 129 5G<19 43 43 43>
VStem: 19 25<0 92 115 134> 100 25<0 87 87 92 0 96> 182 25<0 87 87 90 0 96>
AnchorPoint: "Anchor-6" 112 134 basechar 0
AnchorPoint: "Anchor-4" 112 0 basechar 0
LayerCount: 2
Fore
SplineSet
43 0 m 1xdc
 19 0 l 1
 19 134 l 1
 43 134 l 1
 43 115 l 1xbc
 47 113 l 1
 54 127 65 137 83 137 c 0
 101 137 114 128 119 114 c 1
 122 114 l 1
 132 128 144 137 164 137 c 0
 191 137 207 120 207 90 c 2
 207 0 l 1
 182 0 l 1
 182 87 l 2
 182 104 173 114 157 114 c 0
 143 114 131 106 125 92 c 1
 125 0 l 1
 100 0 l 1
 100 87 l 2
 100 104 92 114 76 114 c 0
 61 114 50 106 43 92 c 1
 43 0 l 1xdc
EndSplineSet
Substitution2: "neamonternafont-'sups' Superscript in Latin lookup 0 subtable" m.superior
EndChar

StartChar: n
Encoding: 301 110 301
Width: 152
GlyphClass: 2
Flags: HMW
HStem: 0 5G<19 43 19 19 111 111 111 135> 114 23<77 90> 129 5G<19 43 43 43>
VStem: 19 25<0 91 113 134> 111 25<0 81 81 86 0 93>
AnchorPoint: "Anchor-6" 77 134 basechar 0
AnchorPoint: "Anchor-4" 77 0 basechar 0
LayerCount: 2
Fore
SplineSet
43 0 m 1xd8
 19 0 l 1
 19 134 l 1
 43 134 l 5
 43 113 l 5xb8
 47 112 l 5
 54 126 67 137 87 137 c 4
 117 137 135 119 135 86 c 2
 135 0 l 1
 111 0 l 1
 111 81 l 2
 111 104 99 114 81 114 c 4
 64 114 50 105 43 91 c 5
 43 0 l 1xd8
EndSplineSet
Substitution2: "neamonternafont-'sups' Superscript in Latin lookup 0 subtable" n.superior
EndChar

StartChar: napostrophe
Encoding: 303 329 303
Width: 172
GlyphClass: 2
Flags: HMW
HStem: 0 5G<38 63 38 38 130 130 130 155> 114 23<97 110> 129 5G<38 63 63 63> 133 46<5 27 5 30>
VStem: 5 24 38 25<0 91 113 134> 130 25<0 81 81 86 0 93>
AnchorPoint: "Anchor-6" 96 134 basechar 0
AnchorPoint: "Anchor-4" 96 0 basechar 0
LayerCount: 2
Fore
SplineSet
27 133 m 5x9e
 5 133 l 5
 5 179 l 5
 30 179 l 5
 27 133 l 5x9e
63 0 m 1
 38 0 l 1
 38 134 l 1
 63 134 l 1
 63 113 l 1xae
 66 112 l 1
 73 126 88 137 107 137 c 0
 137 137 155 119 155 86 c 2
 155 0 l 1
 130 0 l 1
 130 81 l 2
 130 104 119 114 101 114 c 0
 85 114 71 105 63 91 c 1xce
 63 0 l 1
EndSplineSet
EndChar

StartChar: o
Encoding: 310 111 310
Width: 149
GlyphClass: 2
Flags: HMW
HStem: -3 23<63 87 63 95> 113 23<63 87>
VStem: 11 25<53 81 53 88> 114 25<53 81>
AnchorPoint: "Anchor-7" 91 134 basechar 0
AnchorPoint: "Anchor-6" 75 134 basechar 0
AnchorPoint: "Anchor-5" 109 1 basechar 0
AnchorPoint: "Anchor-4" 75 0 basechar 0
LayerCount: 2
Fore
SplineSet
75 -3 m 4
 35 -3 11 26 11 67 c 4
 11 108 35 137 75 137 c 4
 116 137 139 108 139 67 c 4
 139 26 116 -3 75 -3 c 4
75 21 m 4
 100 21 114 39 114 67 c 4
 114 95 100 113 75 113 c 4
 50 113 36 95 36 67 c 4
 36 39 50 21 75 21 c 4
EndSplineSet
Substitution2: "neamonternafont-'sups' Superscript in Latin lookup 0 subtable" o.superior
EndChar

StartChar: ohorn
Encoding: 323 417 323
Width: 149
GlyphClass: 2
Flags: HMW
HStem: -3 23<63 87 63 95> 113 21<63 104> 113 23<63 80 55 87>
VStem: 11 25<53 81 53 88> 114 25<53 79 46 81> 115 24
AnchorPoint: "Anchor-6" 75 134 basechar 0
AnchorPoint: "Anchor-4" 75 0 basechar 0
LayerCount: 2
Fore
SplineSet
75 -3 m 0xb8
 35 -3 11 26 11 67 c 0xb8
 11 108 35 137 75 137 c 0
 85 137 88 135 96 135 c 0xd4
 112 135 117 150 114 164 c 1
 137 164 l 1
 142 143 135 123 119 121 c 1xb4
 118 118 l 1
 130 110 139 91 139 67 c 0
 139 26 116 -3 75 -3 c 0xb8
75 21 m 0
 100 21 114 39 114 67 c 0
 114 95 100 113 75 113 c 0
 50 113 36 95 36 67 c 0
 36 39 50 21 75 21 c 0
EndSplineSet
EndChar

StartChar: oslash
Encoding: 331 248 331
Width: 149
GlyphClass: 1
Flags: HMW
HStem: -11 25<30 30 30 42 16 30> -3 23<73 87 73 95> 113 23<63 77> 120 25<119 119>
VStem: 11 25<61 81 61 88> 114 25<53 73>
LayerCount: 2
Fore
SplineSet
134 145 m 1x5c
 119 120 l 1
 132 108 139 90 139 67 c 0
 139 26 116 -3 75 -3 c 0
 66 -3 57 -1 49 2 c 1x5c
 42 -11 l 1
 16 -11 l 1
 30 14 l 1
 17 26 11 45 11 67 c 0
 11 108 35 137 75 137 c 0
 84 137 93 136 100 133 c 1xac
 107 145 l 1
 134 145 l 1x5c
36 67 m 0
 36 55 39 45 44 37 c 1
 88 112 l 1
 84 113 80 113 75 113 c 0x6c
 50 113 36 95 36 67 c 0
75 21 m 0
 100 21 114 39 114 67 c 0
 114 79 111 90 106 98 c 1
 62 23 l 1
 66 22 70 21 75 21 c 0
EndSplineSet
EndChar

StartChar: oe
Encoding: 333 339 333
Width: 241
GlyphClass: 1
Flags: HMW
HStem: -3 23<61 84 163 182> 60 22<136 207 136 232 135 207> 113 23<61 85 53 85> 114 22<163 182>
VStem: 11 25<53 81 53 88> 110 25<60 60 60 81> 207 25<60 82>
LayerCount: 2
Fore
SplineSet
73 -3 m 0xee
 33 -3 11 26 11 67 c 0
 11 108 33 137 73 137 c 0
 96 137 114 127 122 110 c 1
 125 110 l 1
 134 127 151 137 172 137 c 0
 211 137 232 109 232 68 c 2
 232 60 l 1
 135 60 l 1
 137 36 151 21 175 21 c 0
 188 21 199 26 211 36 c 1
 227 17 l 1
 212 3 193 -3 175 -3 c 0
 152 -3 135 8 125 24 c 1
 122 24 l 1
 112 8 96 -3 73 -3 c 0xee
173 114 m 0xde
 154 114 140 102 136 82 c 1
 207 82 l 1
 204 102 193 114 173 114 c 0xde
73 21 m 0
 97 21 110 39 110 67 c 0
 110 95 97 113 73 113 c 0xee
 49 113 36 95 36 67 c 0
 36 39 49 21 73 21 c 0
EndSplineSet
EndChar

StartChar: p
Encoding: 334 112 334
Width: 152
GlyphClass: 1
Flags: HMW
HStem: -49 5G<19 43 19 19> -3 23<72 87 70 96> 113 23<76 90> 129 5G<19 43 43 43>
VStem: 19 25<-49 6 30 93 116 134> 116 25<52 83>
LayerCount: 2
Fore
SplineSet
43 -49 m 1xec
 19 -49 l 1
 19 134 l 1
 43 134 l 1
 43 116 l 1xdc
 47 115 l 1
 55 129 67 137 85 137 c 0
 117 137 141 112 141 68 c 0
 141 22 113 -3 78 -3 c 0
 66 -3 53 1 43 6 c 1
 43 -49 l 1xec
76 21 m 0
 99 21 116 36 116 68 c 0
 116 99 100 113 79 113 c 0
 62 113 51 106 43 93 c 1xec
 43 30 l 1
 52 25 64 21 76 21 c 0
EndSplineSet
Substitution2: "neamonternafont-'sups' Superscript in Latin lookup 0 subtable" p.superior
EndChar

StartChar: thorn
Encoding: 335 254 335
Width: 152
GlyphClass: 1
Flags: HMW
HStem: -49 5G<19 43 19 19> -3 23<72 87 70 96> 113 23<76 90> 177 5G<19 43 43 43>
VStem: 19 25<-49 6 30 93 116 182> 116 25<52 83>
LayerCount: 2
Fore
SplineSet
43 -49 m 1
 19 -49 l 1
 19 182 l 1
 43 182 l 1
 43 116 l 1
 47 115 l 1
 55 129 67 137 85 137 c 0
 117 137 141 112 141 68 c 0
 141 22 113 -3 78 -3 c 0
 66 -3 53 1 43 6 c 1
 43 -49 l 1
76 21 m 0
 99 21 116 36 116 68 c 0
 116 99 100 113 79 113 c 0
 62 113 51 106 43 93 c 1
 43 30 l 1
 52 25 64 21 76 21 c 0
EndSplineSet
EndChar

StartChar: q
Encoding: 336 113 336
Width: 153
GlyphClass: 1
Flags: HMW
HStem: -49 5G<110 135 110 110> -3 23<62 78> 113 24<65 81 55 84> 129 5G<110 135 135 135>
VStem: 11 25<50 82 50 88> 110 25<-49 18 18 18 41 98 98 98 123 134>
LayerCount: 2
Fore
SplineSet
135 -49 m 1xec
 110 -49 l 1
 110 18 l 1
 106 19 l 1
 100 7 88 -3 69 -3 c 0
 33 -3 11 25 11 65 c 0
 11 111 38 137 71 137 c 0
 90 137 100 129 106 122 c 1
 110 123 l 1xec
 110 134 l 1
 135 134 l 1xdc
 135 -49 l 1xec
73 21 m 0
 93 21 103 30 110 41 c 1
 110 98 l 1
 103 107 91 113 76 113 c 0
 53 113 36 98 36 65 c 0
 36 35 52 21 73 21 c 0
EndSplineSet
Substitution2: "neamonternafont-'sups' Superscript in Latin lookup 0 subtable" q.superior
EndChar

StartChar: r
Encoding: 337 114 337
Width: 99
GlyphClass: 2
Flags: HMW
HStem: 0 5G<19 43 19 19> 112 25<75 82> 129 5G<19 43 43 43> 130 5G<95 95>
VStem: 19 25<0 87 113 134>
AnchorPoint: "Anchor-6" 53 134 basechar 0
AnchorPoint: "Anchor-4" 31 0 basechar 0
LayerCount: 2
Fore
SplineSet
43 0 m 1xc8
 19 0 l 1
 19 134 l 1
 43 134 l 1
 43 113 l 1xa8
 47 112 l 1
 56 127 65 137 84 137 c 0xc8
 88 137 92 136 95 135 c 1x98
 95 109 l 1
 90 111 85 112 79 112 c 0
 61 112 50 101 43 87 c 1
 43 0 l 1xc8
EndSplineSet
Substitution2: "neamonternafont-'sups' Superscript in Latin lookup 0 subtable" r.superior
EndChar

StartChar: s
Encoding: 344 115 344
Width: 122
GlyphClass: 2
Flags: HMW
HStem: -3 23<55 70 55 78> 114 23<55 69>
VStem: 15 25<94 103 94 109> 88 25<32 42>
AnchorPoint: "Anchor-6" 61 134 basechar 0
AnchorPoint: "Anchor-4" 61 0 basechar 0
LayerCount: 2
Fore
SplineSet
62 -3 m 0
 41 -3 23 5 9 18 c 1
 24 37 l 1
 34 26 47 20 62 20 c 0
 77 20 88 26 88 38 c 0
 88 48 82 52 68 55 c 2
 49 59 l 2
 29 64 15 75 15 95 c 0
 15 121 34 137 62 137 c 0
 82 137 98 130 111 118 c 1
 96 100 l 1
 86 109 75 114 62 114 c 0
 48 114 40 108 40 98 c 0
 40 89 45 84 60 81 c 2
 77 77 l 2
 100 72 113 62 113 41 c 0
 113 14 94 -3 62 -3 c 0
EndSplineSet
Substitution2: "neamonternafont-'sups' Superscript in Latin lookup 0 subtable" s.superior
EndChar

StartChar: germandbls
Encoding: 352 223 352
Width: 150
GlyphClass: 1
Flags: HMW
HStem: -3 23<75 89 75 97> -1 5G<59 59> 0 5G<19 43 19 19> 87 23<59 72 72 77 59 72> 166 23<64 84>
VStem: 19 25<0 129> 59 49<99 102 99 110 99 110> 105 25<132 148> 114 25<44 65>
LayerCount: 2
Fore
SplineSet
43 0 m 1x3d
 19 0 l 1
 19 130 l 2
 19 166 40 189 75 189 c 0
 104 189 130 175 130 141 c 0x3d
 130 123 120 107 108 102 c 1x9e80
 108 99 l 1
 126 94 139 79 139 54 c 0
 139 18 115 -3 79 -3 c 0x9c80
 72 -3 65 -2 59 -1 c 1x5c80
 59 22 l 1
 66 21 72 21 78 21 c 0
 99 21 114 32 114 55 c 0x9c80
 114 76 100 87 77 87 c 2
 59 87 l 1
 59 110 l 1x9e80
 72 110 l 2
 93 110 105 120 105 138 c 0
 105 157 92 166 75 166 c 0
 53 166 43 151 43 129 c 2
 43 0 l 1x3d
EndSplineSet
EndChar

StartChar: t
Encoding: 353 116 353
Width: 96
GlyphClass: 2
Flags: HMW
HStem: -3 23<67 74> 112 22<4 27 4 27 51 90>
VStem: 27 25<44 112 134 167>
AnchorPoint: "Anchor-7" 62 150 basechar 0
AnchorPoint: "Anchor-6" 48 134 basechar 0
AnchorPoint: "Anchor-4" 64 0 basechar 0
LayerCount: 2
Fore
SplineSet
74 20 m 0
 81 20 87 22 93 24 c 1
 93 1 l 1
 86 -1 77 -3 70 -3 c 0
 46 -3 27 10 27 44 c 2
 27 112 l 1
 4 112 l 1
 4 134 l 1
 27 134 l 1
 27 167 l 1
 51 167 l 1
 51 134 l 1
 90 134 l 1
 90 112 l 1
 51 112 l 1
 51 44 l 2
 51 27 61 20 74 20 c 0
EndSplineSet
Substitution2: "neamonternafont-'sups' Superscript in Latin lookup 0 subtable" t.superior
EndChar

StartChar: tcaron
Encoding: 354 357 354
Width: 96
GlyphClass: 2
Flags: HMW
HStem: -3 23<67 74> 112 22<4 27 4 27 51 90> 149 18<27 89 27 67> 149 46<67 89 67 92>
VStem: 27 25<44 112 134 167> 67 23<112 195> 67 24
AnchorPoint: "Anchor-7" 62 150 basechar 0
AnchorPoint: "Anchor-6" 48 134 basechar 0
AnchorPoint: "Anchor-4" 64 0 basechar 0
LayerCount: 2
Fore
SplineSet
67 195 m 1xda
 92 195 l 1xda
 89 149 l 1
 67 149 l 1xea
 67 195 l 1xda
74 20 m 0
 81 20 87 22 93 24 c 1
 93 1 l 1
 86 -1 77 -3 70 -3 c 0
 46 -3 27 10 27 44 c 2
 27 112 l 1
 4 112 l 1
 4 134 l 1
 27 134 l 1
 27 167 l 1
 51 167 l 1
 51 134 l 1
 90 134 l 1
 90 112 l 1xec
 51 112 l 1
 51 44 l 2
 51 27 61 20 74 20 c 0
EndSplineSet
EndChar

StartChar: uni1E97
Encoding: 357 7831 357
Width: 96
GlyphClass: 2
Flags: HMW
HStem: -3 23<67 74> 112 22<4 27 4 27 51 90> 177 25<14 39 14 39 14 58 58 83>
VStem: 14 25<177 202 177 202> 27 25<44 112 134 167> 58 25<177 202 177 202>
AnchorPoint: "Anchor-7" 62 150 basechar 0
AnchorPoint: "Anchor-6" 48 200 basechar 0
AnchorPoint: "Anchor-4" 64 0 basechar 0
LayerCount: 2
Fore
SplineSet
14 202 m 1xf4
 39 202 l 1
 39 177 l 1
 14 177 l 1
 14 202 l 1xf4
58 202 m 1
 83 202 l 1
 83 177 l 1
 58 177 l 1
 58 202 l 1
74 20 m 0xe8
 81 20 87 22 93 24 c 1
 93 1 l 1
 86 -1 77 -3 70 -3 c 0
 46 -3 27 10 27 44 c 2
 27 112 l 1
 4 112 l 1
 4 134 l 1
 27 134 l 1
 27 167 l 1
 51 167 l 1
 51 134 l 1
 90 134 l 1
 90 112 l 1
 51 112 l 1
 51 44 l 2
 51 27 61 20 74 20 c 0xe8
EndSplineSet
EndChar

StartChar: u
Encoding: 360 117 360
Width: 150
GlyphClass: 2
Flags: HMW
HStem: -3 23<62 73> 0 5G<107 132 107 107> 129 5G<18 42 42 42 107 132 132 132>
VStem: 18 25<49 54 54 134> 107 25<0 21 21 21 43 134 0 134>
AnchorPoint: "Anchor-7" 107 134 basechar 0
AnchorPoint: "Anchor-6" 75 134 basechar 0
AnchorPoint: "Anchor-5" 132 0 basechar 0
AnchorPoint: "Anchor-4" 75 0 basechar 0
LayerCount: 2
Fore
SplineSet
64 -3 m 0xb8
 35 -3 18 15 18 49 c 2
 18 134 l 1
 42 134 l 1
 42 54 l 2
 42 30 53 20 71 20 c 0
 87 20 99 29 107 43 c 1xb8
 107 134 l 1
 132 134 l 1
 132 0 l 1
 107 0 l 1
 107 21 l 1x78
 104 22 l 1
 97 7 83 -3 64 -3 c 0xb8
EndSplineSet
Substitution2: "neamonternafont-'sups' Superscript in Latin lookup 0 subtable" u.superior
EndChar

StartChar: uhorn
Encoding: 373 432 373
Width: 150
GlyphClass: 2
Flags: HMW
HStem: -3 23<62 73> 0 5G<107 132 107 107> 129 5G<18 42 42 42 107 118>
VStem: 18 25<49 54 54 134> 107 25<0 21 21 21 43 116 0 134 0 134> 131 24
AnchorPoint: "Anchor-7" 153 164 basechar 0
AnchorPoint: "Anchor-6" 75 134 basechar 0
AnchorPoint: "Anchor-5" 132 0 basechar 0
AnchorPoint: "Anchor-4" 75 0 basechar 0
LayerCount: 2
Fore
SplineSet
130 164 m 1xb8
 153 164 l 1xb4
 158 143 152 124 132 116 c 1
 132 0 l 1
 107 0 l 1
 107 21 l 1x78
 104 22 l 1
 97 7 83 -3 64 -3 c 0
 35 -3 18 15 18 49 c 2
 18 134 l 1
 42 134 l 1
 42 54 l 2
 42 30 53 20 71 20 c 0
 87 20 99 29 107 43 c 1
 107 134 l 1
 128 134 133 150 130 164 c 1xb8
EndSplineSet
EndChar

StartChar: v
Encoding: 384 118 384
Width: 138
GlyphClass: 1
Flags: HMW
HStem: 0 31<67 71 67 84 54 71> 129 5G<4 32 32 32 106 134 134 134>
VStem: 4 130<134 134>
LayerCount: 2
Fore
SplineSet
84 0 m 1
 54 0 l 1
 4 134 l 1
 32 134 l 1
 67 31 l 1
 71 31 l 1
 106 134 l 1
 134 134 l 1
 84 0 l 1
EndSplineSet
Substitution2: "neamonternafont-'sups' Superscript in Latin lookup 0 subtable" v.superior
EndChar

StartChar: w
Encoding: 385 119 385
Width: 191
GlyphClass: 2
Flags: HMW
HStem: 0 32<50 53 50 65 34 53 139 142> 105 29<94 98 94 94>
VStem: 5 182<134 134>
AnchorPoint: "Anchor-6" 96 134 basechar 0
AnchorPoint: "Anchor-4" 96 0 basechar 0
LayerCount: 2
Fore
SplineSet
65 0 m 1
 34 0 l 1
 5 134 l 1
 32 134 l 1
 50 32 l 1
 53 32 l 1
 80 134 l 1
 111 134 l 1
 139 32 l 1
 142 32 l 1
 160 134 l 1
 187 134 l 1
 158 0 l 1
 126 0 l 1
 98 105 l 1
 94 105 l 1
 65 0 l 1
EndSplineSet
Substitution2: "neamonternafont-'sups' Superscript in Latin lookup 0 subtable" w.superior
EndChar

StartChar: x
Encoding: 390 120 390
Width: 130
GlyphClass: 1
Flags: HMW
HStem: 0 5G<4 32 4 4 97 97 97 126> 129 5G<4 33 33 33 96 124 124 124>
VStem: 4 122<0 0>
LayerCount: 2
Fore
SplineSet
32 0 m 1
 4 0 l 1
 48 68 l 1
 4 134 l 1
 33 134 l 1
 64 89 l 1
 68 89 l 1
 96 134 l 1
 124 134 l 1
 82 66 l 1
 126 0 l 1
 97 0 l 1
 66 47 l 1
 62 47 l 1
 32 0 l 1
EndSplineSet
Substitution2: "neamonternafont-'sups' Superscript in Latin lookup 0 subtable" x.superior
EndChar

StartChar: y
Encoding: 391 121 391
Width: 140
GlyphClass: 2
Flags: HMW
HStem: -51 23<33 41 32 47> 0 5G<55 61 55 55> 129 5G<4 31 31 31 108 136 136 136>
VStem: 4 132<134 134>
AnchorPoint: "Anchor-6" 70 134 basechar 0
AnchorPoint: "Anchor-4" 108 0 basechar 0
LayerCount: 2
Fore
SplineSet
36 -51 m 0
 29 -51 22 -50 16 -48 c 1
 16 -24 l 1
 22 -27 29 -28 36 -28 c 0
 47 -28 52 -23 57 -11 c 2
 61 0 l 1
 55 0 l 1
 4 134 l 1
 31 134 l 1
 68 29 l 1
 72 29 l 1
 108 134 l 1
 136 134 l 1
 81 -14 l 2
 71 -41 57 -51 36 -51 c 0
EndSplineSet
Substitution2: "neamonternafont-'sups' Superscript in Latin lookup 0 subtable" y.superior
EndChar

StartChar: z
Encoding: 400 122 400
Width: 118
GlyphClass: 2
Flags: HMW
HStem: 0 22<38 111 7 7> 112 22<11 78 11 109 11 109>
VStem: 7 31<0 25 22 25> 78 31<109 134 112 134>
AnchorPoint: "Anchor-6" 59 134 basechar 0
AnchorPoint: "Anchor-4" 59 0 basechar 0
LayerCount: 2
Fore
SplineSet
111 0 m 1
 7 0 l 1
 7 22 l 1
 78 109 l 1
 78 112 l 1
 11 112 l 1
 11 134 l 1
 109 134 l 1
 109 112 l 1
 38 25 l 1
 38 22 l 1
 111 22 l 1
 111 0 l 1
EndSplineSet
Substitution2: "neamonternafont-'sups' Superscript in Latin lookup 0 subtable" z.superior
EndChar

StartChar: fi
Encoding: 405 64257 405
Width: 160
GlyphClass: 3
Flags: HMW
HStem: 0 5G<31 56 31 31 117 142 117 117> 112 22<5 31 5 31 56 117> 158 26<117 143 117 143> 166 23<73 84 66 84>
VStem: 5 50<0 134 0 134> 31 25<0 112 0 112 134 138> 117 25<0 184> 117 26<158 184 158 184> 117 25<0 112 112 112>
LayerCount: 2
Fore
SplineSet
142 134 m 1xe480
 142 0 l 1
 117 0 l 1
 117 112 l 1
 56 112 l 1
 56 0 l 1
 31 0 l 1
 31 112 l 1xe480
 5 112 l 1
 5 134 l 1xe880
 31 134 l 1
 31 139 l 2
 31 173 51 189 82 189 c 0
 87 189 92 189 97 188 c 1
 97 165 l 1
 92 166 87 166 82 166 c 0xd480
 65 166 56 157 56 138 c 2
 56 134 l 1
 142 134 l 1xe480
117 158 m 1xe6
 117 184 l 1xe6
 143 184 l 1
 143 158 l 1xe5
 117 158 l 1xe6
EndSplineSet
EndChar

StartChar: fl
Encoding: 406 64258 406
Width: 160
GlyphClass: 3
Flags: HMW
HStem: 0 5G<31 56 31 31 118 118 118 142> 112 22<5 31 5 31 56 94> 166 23<73 84 66 84> 177 5G<118 142 142 142>
VStem: 5 50<112 112 134 134> 31 25<0 112 134 138> 118 25<0 182>
LayerCount: 2
Fore
SplineSet
56 0 m 1xe6
 31 0 l 1
 31 112 l 1xd6
 5 112 l 1
 5 134 l 1xea
 31 134 l 1
 31 139 l 2
 31 173 51 189 82 189 c 0
 87 189 92 189 97 188 c 1
 97 165 l 1
 92 166 87 166 82 166 c 0
 65 166 56 157 56 138 c 2
 56 134 l 1
 94 134 l 1
 94 112 l 1
 56 112 l 1
 56 0 l 1xe6
142 0 m 1
 118 0 l 1
 118 182 l 1
 142 182 l 1
 142 0 l 1
EndSplineSet
EndChar

StartChar: ordfeminine
Encoding: 407 170 407
Width: 89
GlyphClass: 1
Flags: HMW
HStem: 89 16<34 41> 131 15<39 39 39 64> 166 16<39 50>
VStem: 5 18<114 122 114 125> 64 17<91 102 102 102 118 131 131 131 146 147 147 147>
LayerCount: 2
Fore
SplineSet
36 89 m 0
 17 89 5 101 5 117 c 0
 5 134 18 146 39 146 c 2
 64 146 l 1
 64 147 l 2
 64 160 56 166 44 166 c 0
 34 166 26 162 18 155 c 1
 8 168 l 1
 16 176 29 182 44 182 c 0
 65 182 81 171 81 147 c 2
 81 91 l 1
 64 91 l 1
 64 102 l 1
 62 103 l 1
 57 94 48 89 36 89 c 0
39 104 m 0
 49 104 58 110 64 118 c 1
 64 131 l 1
 39 131 l 2
 29 131 23 126 23 118 c 0
 23 110 29 104 39 104 c 0
EndSplineSet
EndChar

StartChar: ordmasculine
Encoding: 408 186 408
Width: 100
GlyphClass: 1
Flags: HMW
HStem: 89 17<43 58 43 64> 165 17<43 58>
VStem: 7 19<126 144 126 149> 74 19<126 144>
LayerCount: 2
Fore
SplineSet
50 89 m 0
 23 89 7 107 7 135 c 0
 7 163 23 182 50 182 c 0
 77 182 93 163 93 135 c 0
 93 107 77 89 50 89 c 0
50 106 m 0
 66 106 74 117 74 135 c 0
 74 153 66 165 50 165 c 0
 35 165 26 153 26 135 c 0
 26 117 35 106 50 106 c 0
EndSplineSet
EndChar

StartChar: pi
Encoding: 409 960 409
Width: 155
GlyphClass: 1
Flags: HMW
HStem: -3 23<141 144> 0 5G<28 53 28 28> 111 23<8 28 8 149 53 53 53 104 128 128 128 149>
VStem: 28 25<0 111> 104 25<36 37 37 111>
LayerCount: 2
Fore
SplineSet
53 0 m 1x78
 28 0 l 1x78
 28 111 l 1
 8 111 l 1
 8 134 l 1
 149 134 l 1
 149 111 l 1
 128 111 l 1
 128 37 l 2
 128 24 136 20 146 20 c 2
 152 20 l 1
 152 -2 l 1
 149 -3 146 -3 143 -3 c 0xb8
 124 -3 104 4 104 36 c 2
 104 111 l 1
 53 111 l 1
 53 0 l 1x78
EndSplineSet
EndChar

StartChar: zero
Encoding: 410 48 410
Width: 152
GlyphClass: 1
Flags: HMW
HStem: -3 25<62 90 62 99> 157 25<62 90>
VStem: 10 26<69 111 69 117> 115 26<69 111>
LayerCount: 2
Fore
SplineSet
76 -3 m 0
 31 -3 10 35 10 90 c 0
 10 145 31 182 76 182 c 0
 122 182 142 145 142 90 c 0
 142 35 122 -3 76 -3 c 0
76 22 m 0
 104 22 115 48 115 90 c 0
 115 132 104 157 76 157 c 0
 49 157 37 132 37 90 c 0
 37 48 49 22 76 22 c 0
EndSplineSet
EndChar

StartChar: one
Encoding: 411 49 411
Width: 93
GlyphClass: 1
Flags: HMW
HStem: 0 5G<47 73 47 47> 148 31<44 73 44 73>
VStem: 47 25<0 148 148 148>
LayerCount: 2
Fore
SplineSet
73 0 m 1
 47 0 l 1
 47 148 l 1
 44 148 l 1
 5 124 l 1
 5 152 l 1
 48 179 l 1
 73 179 l 1
 73 0 l 1
EndSplineSet
EndChar

StartChar: two
Encoding: 412 50 412
Width: 140
GlyphClass: 1
Flags: HMW
HStem: 0 25<49 131 49 131> 156 25<61 77>
VStem: 98 27<119 138>
LayerCount: 2
Fore
SplineSet
131 0 m 1
 15 0 l 1
 10 25 l 1
 62 73 l 2
 87 96 98 110 98 129 c 0
 98 148 86 156 69 156 c 0
 54 156 42 151 29 134 c 1
 9 150 l 1
 22 167 40 182 68 182 c 0
 103 182 125 162 125 129 c 0
 125 101 109 83 80 57 c 2
 48 29 l 1
 49 25 l 1
 131 25 l 1
 131 0 l 1
EndSplineSet
EndChar

StartChar: three
Encoding: 413 51 413
Width: 142
GlyphClass: 1
Flags: HMW
HStem: -3 25<61 81 61 89> 81 25<49 67 67 70 49 67> 156 25<64 78>
VStem: 49 53<93 97 93 105 93 105> 98 27<126 141> 105 27<44 62>
LayerCount: 2
Fore
SplineSet
71 -3 m 4xe4
 40 -3 20 11 9 29 c 5
 28 45 l 5
 39 30 52 23 71 23 c 4
 92 23 105 35 105 53 c 4xe4
 105 72 90 81 70 81 c 6
 49 81 l 5
 49 105 l 5xf4
 67 105 l 6
 87 105 98 116 98 133 c 4
 98 149 86 156 70 156 c 4
 56 156 44 150 31 134 c 5
 13 150 l 5
 26 167 44 182 70 182 c 4
 103 182 125 163 125 135 c 4xe8
 125 116 116 104 102 97 c 5xf4
 102 93 l 5
 119 88 132 75 132 52 c 4
 132 21 108 -3 71 -3 c 4xe4
EndSplineSet
EndChar

StartChar: four
Encoding: 414 52 414
Width: 145
GlyphClass: 1
Flags: HMW
HStem: 0 5G<91 116 91 91> 42 24<36 91 36 91 116 139> 137 42<87 116 87 116> 174 5G<91 116 116 116>
VStem: 91 25<0 42 0 42 66 137 137 137>
LayerCount: 2
Fore
SplineSet
116 66 m 1xd8
 139 66 l 1
 139 42 l 1
 116 42 l 1
 116 0 l 1
 91 0 l 1
 91 42 l 1
 7 42 l 1
 4 66 l 1
 91 179 l 1
 116 179 l 1
 116 66 l 1xd8
35 69 m 1
 36 66 l 1
 91 66 l 1
 91 137 l 1
 87 137 l 1xe8
 35 69 l 1
EndSplineSet
EndChar

StartChar: five
Encoding: 415 53 415
Width: 143
GlyphClass: 1
Flags: HMW
HStem: -3 25<60 78 60 88> 93 25<67 78> 155 24<48 122 48 48>
VStem: 105 27<59 71>
LayerCount: 2
Fore
SplineSet
69 -3 m 0
 41 -3 19 11 9 29 c 1
 27 45 l 1
 37 30 51 23 69 23 c 0
 87 23 105 32 105 58 c 0
 105 84 88 93 68 93 c 0
 56 93 48 90 40 85 c 1
 19 89 l 1
 26 179 l 1
 122 179 l 1
 122 155 l 1
 48 155 l 1
 44 115 l 1
 46 112 l 1
 53 117 62 118 72 118 c 0
 105 118 132 98 132 59 c 0
 132 22 108 -3 69 -3 c 0
EndSplineSet
EndChar

StartChar: six
Encoding: 416 54 416
Width: 146
GlyphClass: 1
Flags: HMW
HStem: -3 25<62 83 62 92> 92 24<75 83> 174 5G<69 99 99 99>
VStem: 10 26<47 66> 108 27<47 68>
LayerCount: 2
Fore
SplineSet
73 -3 m 0
 35 -3 10 24 10 58 c 0
 10 74 14 92 28 114 c 2
 69 179 l 1
 99 179 l 1
 55 111 l 1
 58 109 l 1
 64 114 70 116 81 116 c 0
 112 116 135 92 135 58 c 0
 135 24 112 -3 73 -3 c 0
72 23 m 0
 94 23 108 37 108 58 c 0
 108 79 94 92 72 92 c 0
 50 92 37 79 37 58 c 0
 37 37 50 23 72 23 c 0
EndSplineSet
EndChar

StartChar: seven
Encoding: 417 55 417
Width: 131
GlyphClass: 1
Flags: HMW
HStem: 0 5G<26 54 26 26> 154 25<6 94 6 119>
VStem: 6 117<154 179 154 179>
LayerCount: 2
Fore
SplineSet
54 0 m 1
 26 0 l 1
 96 151 l 5
 94 154 l 5
 6 154 l 5
 6 179 l 5
 119 179 l 5
 123 154 l 5
 54 0 l 1
EndSplineSet
EndChar

StartChar: eight
Encoding: 418 56 418
Width: 150
GlyphClass: 1
Flags: HMW
HStem: -3 25<64 87 64 95> 80 24<66 85 66 87> 157 25<66 85>
VStem: 12 28<42 60 42 61> 18 27<124 138 123 149> 105 27<124 138> 111 28<42 60>
LayerCount: 2
Fore
SplineSet
75 -3 m 0xf2
 36 -3 12 16 12 50 c 0xf2
 12 73 24 87 41 92 c 1
 41 95 l 1
 27 102 18 114 18 133 c 0
 18 164 43 182 75 182 c 0
 107 182 132 164 132 133 c 0
 132 114 123 102 109 95 c 1xec
 109 92 l 1
 126 87 139 73 139 50 c 0
 139 16 114 -3 75 -3 c 0xf2
75 104 m 0xec
 94 104 105 116 105 131 c 0
 105 146 94 157 75 157 c 0
 56 157 45 146 45 131 c 0
 45 116 56 104 75 104 c 0xec
75 22 m 0xf2
 98 22 111 33 111 51 c 0
 111 69 98 80 75 80 c 0
 52 80 39 69 39 51 c 0
 39 33 52 22 75 22 c 0xf2
EndSplineSet
EndChar

StartChar: nine
Encoding: 419 57 419
Width: 146
GlyphClass: 1
Flags: HMW
HStem: 0 5G<48 77 48 48> 63 24<63 71> 157 25<63 84>
VStem: 11 27<111 132 111 138> 110 26<113 132>
LayerCount: 2
Fore
SplineSet
74 182 m 0
 112 182 136 155 136 121 c 0
 136 105 132 87 118 65 c 2
 77 0 l 1
 48 0 l 1
 91 68 l 1
 88 70 l 1
 82 65 77 63 66 63 c 0
 36 63 11 87 11 121 c 0
 11 155 35 182 74 182 c 0
74 157 m 0
 52 157 38 143 38 122 c 0
 38 101 52 87 74 87 c 0
 96 87 110 101 110 122 c 0
 110 143 96 157 74 157 c 0
EndSplineSet
EndChar

StartChar: zero.zero
Encoding: 420 -1 420
Width: 152
GlyphClass: 1
Flags: HMW
HStem: -3 25<74 90 74 99> 157 25<62 78>
VStem: 10 26<79 111 79 117> 115 26<69 101>
LayerCount: 2
Fore
SplineSet
76 182 m 0
 122 182 142 145 142 90 c 0
 142 35 122 -3 76 -3 c 0
 31 -3 10 35 10 90 c 0
 10 145 31 182 76 182 c 0
76 157 m 0
 49 157 37 132 37 90 c 0
 37 68 40 50 47 38 c 1
 86 156 l 1
 83 157 80 157 76 157 c 0
76 22 m 0
 104 22 115 48 115 90 c 0
 115 112 112 129 105 141 c 1
 67 23 l 1
 70 22 73 22 76 22 c 0
EndSplineSet
EndChar

StartChar: zero.tf
Encoding: 421 -1 421
Width: 179
GlyphClass: 1
Flags: HMW
HStem: -3 25<76 103 76 112> 157 25<76 103>
VStem: 24 26<69 111 69 117> 129 26<69 111>
LayerCount: 2
Fore
SplineSet
90 -3 m 0
 45 -3 24 35 24 90 c 0
 24 145 45 182 90 182 c 0
 135 182 155 145 155 90 c 0
 155 35 135 -3 90 -3 c 0
90 22 m 0
 117 22 129 48 129 90 c 0
 129 132 117 157 90 157 c 0
 63 157 50 132 50 90 c 0
 50 48 63 22 90 22 c 0
EndSplineSet
EndChar

StartChar: one.tf
Encoding: 422 -1 422
Width: 179
GlyphClass: 1
Flags: HMW
HStem: 0 25<34 77 102 145 34 77> 148 31<73 102 73 102>
VStem: 77 25<25 148 148 148 25 179>
LayerCount: 2
Fore
SplineSet
102 179 m 1
 102 25 l 1
 145 25 l 1
 145 0 l 1
 34 0 l 1
 34 25 l 1
 77 25 l 1
 77 148 l 1
 73 148 l 1
 34 124 l 1
 34 152 l 1
 77 179 l 1
 102 179 l 1
EndSplineSet
EndChar

StartChar: two.tf
Encoding: 423 -1 423
Width: 179
GlyphClass: 1
Flags: HMW
HStem: 0 25<69 151 69 151> 156 25<81 96>
VStem: 117 27<119 138>
LayerCount: 2
Fore
SplineSet
151 0 m 1
 34 0 l 1
 30 25 l 1
 81 73 l 2
 106 96 117 110 117 129 c 0
 117 148 105 156 88 156 c 0
 73 156 61 151 48 134 c 1
 29 150 l 1
 42 167 59 182 87 182 c 0
 122 182 144 162 144 129 c 0
 144 101 128 83 99 57 c 2
 68 29 l 1
 69 25 l 1
 151 25 l 1
 151 0 l 1
EndSplineSet
EndChar

StartChar: three.tf
Encoding: 424 -1 424
Width: 179
GlyphClass: 1
Flags: HMW
HStem: -3 25<81 100 81 108> 81 25<69 87 87 89 69 87> 156 25<83 98>
VStem: 69 53<93 97 93 105 93 105> 117 27<126 141> 124 27<44 62>
LayerCount: 2
Fore
SplineSet
90 -3 m 0xe4
 59 -3 38 11 28 29 c 1
 47 45 l 1
 58 30 71 23 90 23 c 0
 111 23 124 35 124 53 c 0xe4
 124 72 109 81 89 81 c 2
 69 81 l 1
 69 105 l 1xf4
 87 105 l 2
 107 105 117 116 117 133 c 0
 117 149 106 156 90 156 c 0
 76 156 64 150 51 134 c 1
 32 150 l 1
 45 167 63 182 89 182 c 0
 122 182 144 163 144 135 c 0xe8
 144 116 136 104 122 97 c 1xf4
 122 93 l 1
 139 88 151 75 151 52 c 0
 151 21 127 -3 90 -3 c 0xe4
EndSplineSet
EndChar

StartChar: four.tf
Encoding: 425 -1 425
Width: 179
GlyphClass: 1
Flags: HMW
HStem: 0 5G<109 134 109 109> 42 24<54 109 54 109 134 157> 137 42<105 134 105 134> 174 5G<109 134 134 134>
VStem: 109 25<0 42 0 42 66 137 137 137>
LayerCount: 2
Fore
SplineSet
134 66 m 1xd8
 157 66 l 1
 157 42 l 1
 134 42 l 1
 134 0 l 1
 109 0 l 1
 109 42 l 1
 25 42 l 1
 22 66 l 1
 109 179 l 1
 134 179 l 1
 134 66 l 1xd8
53 69 m 1
 54 66 l 1
 109 66 l 1
 109 137 l 1
 105 137 l 1xe8
 53 69 l 1
EndSplineSet
EndChar

StartChar: five.tf
Encoding: 426 -1 426
Width: 179
GlyphClass: 1
Flags: HMW
HStem: -3 25<80 98 80 108> 93 25<86 97> 155 24<67 142 67 67>
VStem: 124 27<45 59 40 71>
LayerCount: 2
Fore
SplineSet
88 -3 m 0
 60 -3 38 11 28 29 c 1
 47 45 l 1
 57 30 71 23 89 23 c 0
 107 23 124 32 124 58 c 0
 124 84 107 93 87 93 c 0
 75 93 66 90 59 85 c 1
 38 89 l 1
 46 179 l 1
 142 179 l 1
 142 155 l 1
 67 155 l 1
 64 115 l 1
 65 112 l 1
 72 117 81 118 91 118 c 0
 124 118 151 98 151 59 c 0
 151 22 127 -3 88 -3 c 0
EndSplineSet
EndChar

StartChar: six.tf
Encoding: 427 -1 427
Width: 179
GlyphClass: 1
Flags: HMW
HStem: -3 25<78 100 78 108> 92 24<91 100> 174 5G<86 115 115 115>
VStem: 27 26<47 66> 125 27<47 68>
LayerCount: 2
Fore
SplineSet
89 -3 m 0
 51 -3 27 24 27 58 c 0
 27 74 30 92 44 114 c 2
 86 179 l 1
 115 179 l 1
 71 111 l 1
 74 109 l 1
 79 114 86 116 97 116 c 0
 128 116 151 92 151 58 c 0
 151 24 128 -3 89 -3 c 0
89 23 m 0
 111 23 125 37 125 58 c 0
 125 79 111 92 89 92 c 0
 67 92 53 79 53 58 c 0
 53 37 67 23 89 23 c 0
EndSplineSet
EndChar

StartChar: seven.tf
Encoding: 428 -1 428
Width: 179
GlyphClass: 1
Flags: HMW
HStem: 0 5G<51 79 51 51> 154 25<31 120 31 144>
VStem: 31 117<154 179 154 179>
LayerCount: 2
Fore
SplineSet
79 0 m 1
 51 0 l 1
 121 151 l 1
 120 154 l 1
 31 154 l 1
 31 179 l 1
 144 179 l 1
 148 154 l 1
 79 0 l 1
EndSplineSet
EndChar

StartChar: eight.tf
Encoding: 429 -1 429
Width: 179
GlyphClass: 1
Flags: HMW
HStem: -3 25<80 103 80 111> 80 24<82 101 82 103> 157 25<82 101>
VStem: 28 28<42 60 42 61> 35 27<124 138 123 149> 122 27<124 138> 128 28<42 60>
LayerCount: 2
Fore
SplineSet
92 -3 m 0xf2
 53 -3 28 16 28 50 c 0xf2
 28 73 41 87 58 92 c 1
 58 95 l 1
 44 102 35 114 35 133 c 0
 35 164 60 182 92 182 c 0
 124 182 149 164 149 133 c 0
 149 114 139 102 125 95 c 1xec
 125 92 l 1
 142 87 155 73 155 50 c 0
 155 16 131 -3 92 -3 c 0xf2
92 104 m 0xec
 111 104 122 116 122 131 c 0
 122 146 111 157 92 157 c 0
 73 157 62 146 62 131 c 0
 62 116 73 104 92 104 c 0xec
92 22 m 0xf2
 115 22 128 33 128 51 c 0
 128 69 115 80 92 80 c 0
 69 80 56 69 56 51 c 0
 56 33 69 22 92 22 c 0xf2
EndSplineSet
EndChar

StartChar: nine.tf
Encoding: 430 -1 430
Width: 179
GlyphClass: 1
Flags: HMW
HStem: 0 5G<64 93 64 64> 63 24<79 87> 157 25<79 101>
VStem: 27 27<111 132 111 138> 126 26<113 132>
LayerCount: 2
Fore
SplineSet
90 182 m 0
 128 182 152 155 152 121 c 0
 152 105 148 87 134 65 c 2
 93 0 l 1
 64 0 l 1
 107 68 l 1
 104 70 l 1
 99 65 93 63 82 63 c 0
 51 63 27 87 27 121 c 0
 27 155 51 182 90 182 c 0
90 157 m 0
 68 157 54 143 54 122 c 0
 54 101 68 87 90 87 c 0
 112 87 126 101 126 122 c 0
 126 143 112 157 90 157 c 0
EndSplineSet
EndChar

StartChar: uni2080
Encoding: 431 8320 431
Width: 99
GlyphClass: 1
Flags: HMW
HStem: -28 18<44 56 44 62> 48 19<44 56>
VStem: 10 20<10 29 10 33> 69 20<10 29>
LayerCount: 2
Fore
SplineSet
50 -28 m 0
 25 -28 10 -9 10 19 c 0
 10 47 25 67 50 67 c 0
 75 67 89 47 89 19 c 0
 89 -9 75 -28 50 -28 c 0
50 -10 m 0
 63 -10 69 0 69 19 c 0
 69 38 63 48 50 48 c 0
 38 48 30 38 30 19 c 0
 30 0 38 -10 50 -10 c 0
EndSplineSet
EndChar

StartChar: uni2081
Encoding: 432 8321 432
Width: 68
GlyphClass: 1
Flags: HMW
HStem: 41 23<28 28 25 47>
VStem: 28 19<-26 41 41 41>
LayerCount: 2
Fore
SplineSet
47 -26 m 1
 28 -26 l 1
 28 41 l 1
 25 41 l 1
 5 29 l 1
 5 50 l 1
 28 64 l 1
 47 64 l 1
 47 -26 l 1
EndSplineSet
EndChar

StartChar: uni2082
Encoding: 433 8322 433
Width: 86
GlyphClass: 1
Flags: HMW
HStem: -26 18<40 77 11 13> 48 19<39 46>
VStem: 54 20<34 41>
LayerCount: 2
Fore
SplineSet
77 -26 m 1
 13 -26 l 1
 11 -8 l 1
 40 17 l 2
 50 25 54 30 54 37 c 0
 54 44 50 48 42 48 c 0
 36 48 29 45 23 37 c 1
 9 50 l 1
 17 59 28 67 43 67 c 0
 61 67 74 56 74 38 c 0
 74 25 68 15 54 5 c 2
 40 -6 l 1
 40 -8 l 1
 77 -8 l 1
 77 -26 l 1
EndSplineSet
EndChar

StartChar: uni2083
Encoding: 434 8323 434
Width: 86
GlyphClass: 1
Flags: HMW
HStem: -28 18<37 46 37 52> 11 18<34 42 42 42 34 42> 48 18<38 45>
VStem: 34 28<20 22 20 29 20 29> 52 20<36 42> 56 20<-1 6>
LayerCount: 2
Fore
SplineSet
42 -28 m 0xe4
 25 -28 15 -21 9 -12 c 1
 21 1 l 1
 27 -6 33 -9 42 -9 c 0
 51 -9 56 -4 56 2 c 0
 56 9 49 11 42 11 c 2xe4
 34 11 l 1
 34 29 l 1xf0
 42 29 l 2
 48 29 52 32 52 39 c 0
 52 45 48 48 41 48 c 0
 34 48 29 45 24 38 c 1
 11 50 l 1
 17 59 28 67 42 67 c 0
 60 67 72 56 72 40 c 0xe8
 72 31 68 26 61 22 c 1
 61 20 l 1xf0
 70 18 76 12 76 1 c 0
 76 -16 62 -28 42 -28 c 0xe4
EndSplineSet
EndChar

StartChar: uni2084
Encoding: 435 8324 435
Width: 84
GlyphClass: 1
Flags: HMW
HStem: -7 17<27 48 27 48 67 78> 36 28<48 48 46 67>
VStem: 48 19<-26 -7 -26 -7 10 36 36 36>
LayerCount: 2
Fore
SplineSet
67 10 m 1
 78 10 l 1
 78 -7 l 1
 67 -7 l 1
 67 -26 l 1
 48 -26 l 1
 48 -7 l 1
 6 -7 l 1
 4 10 l 1
 48 64 l 1
 67 64 l 1
 67 10 l 1
26 12 m 1
 27 10 l 1
 48 10 l 1
 48 36 l 1
 46 36 l 1
 26 12 l 1
EndSplineSet
EndChar

StartChar: uni2085
Encoding: 436 8325 436
Width: 87
GlyphClass: 1
Flags: HMW
HStem: -28 19<38 46 38 52> 18 17<43 46> 46 18<33 71 33 33>
VStem: 16 16 57 19<0 9>
LayerCount: 2
Fore
SplineSet
42 -28 m 0
 26 -28 17 -21 9 -12 c 1
 22 1 l 1
 27 -6 34 -9 42 -9 c 0
 51 -9 57 -4 57 5 c 0
 57 14 50 18 41 18 c 0
 35 18 31 17 28 14 c 1
 14 16 l 1
 18 64 l 1
 71 64 l 1
 71 46 l 1
 33 46 l 1
 31 33 l 1
 33 32 l 1
 37 34 40 35 46 35 c 0
 62 35 76 24 76 5 c 0
 76 -15 62 -28 42 -28 c 0
EndSplineSet
EndChar

StartChar: uni2086
Encoding: 437 8326 437
Width: 89
GlyphClass: 1
Flags: HMW
HStem: -28 17<40 49 40 55> 16 17<40 59> 16 48<40 49>
VStem: 10 19<-1 7 -1 11> 59 19<-1 7>
LayerCount: 2
Fore
SplineSet
45 -28 m 0xd8
 24 -28 10 -14 10 5 c 0
 10 17 14 27 22 40 c 2
 38 64 l 1
 60 64 l 1xb8
 39 31 l 1
 40 30 l 1
 43 32 46 33 51 33 c 0
 66 33 78 22 78 5 c 0
 78 -13 66 -28 45 -28 c 0xd8
44 -11 m 0
 53 -11 59 -4 59 3 c 0
 59 11 53 16 44 16 c 0
 35 16 29 11 29 3 c 0
 29 -4 35 -11 44 -11 c 0
EndSplineSet
EndChar

StartChar: uni2087
Encoding: 438 8327 438
Width: 79
GlyphClass: 1
Flags: HMW
HStem: 46 18<6 49 6 68>
VStem: 6 65<46 64 46 64>
LayerCount: 2
Fore
SplineSet
37 -26 m 1
 15 -26 l 1
 49 44 l 1
 49 46 l 1
 6 46 l 1
 6 64 l 1
 68 64 l 1
 71 46 l 1
 37 -26 l 1
EndSplineSet
EndChar

StartChar: uni2088
Encoding: 439 8328 439
Width: 93
GlyphClass: 1
Flags: HMW
HStem: -28 17<41 52 41 57> 12 16<42 51 42 52> 49 17<42 51>
VStem: 12 19<-3 4 -3 4> 15 19<36 42 36 48> 26 8 59 8 59 19<36 42> 62 19<-3 4>
LayerCount: 2
Fore
SplineSet
46 -28 m 0xf080
 25 -28 12 -18 12 -1 c 0xf080
 12 10 18 17 26 20 c 1
 26 22 l 1xe480
 19 25 15 32 15 40 c 0
 15 55 27 67 46 67 c 0
 65 67 78 55 78 40 c 0xe9
 78 32 74 25 67 22 c 1
 67 20 l 1xf2
 75 17 82 10 82 -1 c 0
 82 -18 67 -28 46 -28 c 0xf080
46 28 m 0xe9
 55 28 59 33 59 39 c 0
 59 45 54 49 46 49 c 0
 38 49 34 45 34 39 c 0
 34 33 38 28 46 28 c 0xe9
46 -11 m 0xf080
 57 -11 62 -6 62 0 c 0
 62 7 57 12 46 12 c 0
 36 12 31 7 31 0 c 0
 31 -6 36 -11 46 -11 c 0xf080
EndSplineSet
EndChar

StartChar: uni2089
Encoding: 440 8329 440
Width: 89
GlyphClass: 1
Flags: HMW
HStem: -26 48<41 50 41 51 29 50> 5 17<30 50> 49 17<41 50>
VStem: 11 19<32 40 32 43> 60 19<32 40>
LayerCount: 2
Fore
SplineSet
45 67 m 0x78
 66 67 79 53 79 34 c 0
 79 22 75 12 67 -1 c 2
 51 -26 l 1
 29 -26 l 1xb8
 51 7 l 1
 49 8 l 1
 47 6 43 5 38 5 c 0
 23 5 11 17 11 34 c 0
 11 52 24 67 45 67 c 0x78
45 49 m 0
 36 49 30 43 30 36 c 0
 30 28 36 23 45 23 c 0
 54 23 60 28 60 36 c 0
 60 43 54 49 45 49 c 0
EndSplineSet
EndChar

StartChar: uni2070
Encoding: 441 8304 441
Width: 99
GlyphClass: 1
Flags: HMW
HStem: 113 18<44 56 44 62> 189 19<44 56>
VStem: 10 20<150 170 150 174> 69 20<150 170>
LayerCount: 2
Fore
SplineSet
50 113 m 0
 25 113 10 132 10 160 c 0
 10 188 25 207 50 207 c 0
 75 207 89 188 89 160 c 0
 89 132 75 113 50 113 c 0
50 131 m 0
 63 131 69 141 69 160 c 0
 69 179 63 189 50 189 c 0
 38 189 30 179 30 160 c 0
 30 141 38 131 50 131 c 0
EndSplineSet
EndChar

StartChar: uni00B9
Encoding: 442 185 442
Width: 68
GlyphClass: 1
Flags: HMW
HStem: 182 23<28 28 25 47>
VStem: 28 19<115 182 182 182>
LayerCount: 2
Fore
SplineSet
47 115 m 1
 28 115 l 1
 28 182 l 1
 25 182 l 1
 5 169 l 1
 5 191 l 1
 28 205 l 1
 47 205 l 1
 47 115 l 1
EndSplineSet
EndChar

StartChar: uni00B2
Encoding: 443 178 443
Width: 86
GlyphClass: 1
Flags: HMW
HStem: 115 18<40 77 11 13> 189 19<39 46>
VStem: 54 20<174 181>
LayerCount: 2
Fore
SplineSet
77 115 m 1
 13 115 l 1
 11 133 l 1
 40 157 l 2
 50 165 54 171 54 178 c 0
 54 185 50 189 42 189 c 0
 36 189 29 186 23 178 c 1
 9 191 l 1
 17 200 28 207 43 207 c 0
 61 207 74 197 74 179 c 0
 74 166 68 156 54 146 c 2
 40 135 l 1
 40 133 l 1
 77 133 l 1
 77 115 l 1
EndSplineSet
EndChar

StartChar: uni00B3
Encoding: 444 179 444
Width: 86
GlyphClass: 1
Flags: HMW
HStem: 113 18<37 46 37 52> 152 18<34 42 42 42 34 42> 189 18<38 45>
VStem: 34 28<160 162 160 170 160 170> 52 20<176 182> 56 20<139 146>
LayerCount: 2
Fore
SplineSet
42 113 m 0xe4
 25 113 15 120 9 129 c 1
 21 141 l 1
 27 134 33 131 42 131 c 0
 51 131 56 136 56 142 c 0
 56 149 49 152 42 152 c 2xe4
 34 152 l 1
 34 170 l 1xf0
 42 170 l 2
 48 170 52 172 52 179 c 0
 52 185 48 189 41 189 c 0
 34 189 29 185 24 178 c 1
 11 191 l 1
 17 200 28 207 42 207 c 0
 60 207 72 197 72 181 c 0xe8
 72 172 68 166 61 162 c 1
 61 160 l 1xf0
 70 158 76 152 76 141 c 0
 76 124 62 113 42 113 c 0xe4
EndSplineSet
EndChar

StartChar: uni2074
Encoding: 445 8308 445
Width: 84
GlyphClass: 1
Flags: HMW
HStem: 134 17<27 48 27 48 67 78> 177 28<48 48 46 67>
VStem: 48 19<115 134 115 134 150 177 177 177>
LayerCount: 2
Fore
SplineSet
67 150 m 1
 78 150 l 1
 78 134 l 1
 67 134 l 1
 67 115 l 1
 48 115 l 1
 48 134 l 1
 6 134 l 1
 4 151 l 1
 48 205 l 1
 67 205 l 1
 67 150 l 1
26 152 m 1
 27 150 l 1
 48 150 l 1
 48 177 l 1
 46 177 l 1
 26 152 l 1
EndSplineSet
EndChar

StartChar: uni2075
Encoding: 446 8309 446
Width: 87
GlyphClass: 1
Flags: HMW
HStem: 113 19<38 46 38 52> 159 17<43 46> 187 18<33 71 33 33>
VStem: 16 16 57 19<141 150>
LayerCount: 2
Fore
SplineSet
42 113 m 0
 26 113 17 120 9 129 c 1
 22 142 l 1
 27 135 34 131 42 131 c 0
 51 131 57 136 57 145 c 0
 57 154 50 159 41 159 c 0
 35 159 31 158 28 155 c 1
 14 156 l 1
 18 205 l 1
 71 205 l 1
 71 187 l 1
 33 187 l 1
 31 174 l 1
 33 172 l 1
 37 174 40 176 46 176 c 0
 62 176 76 165 76 146 c 0
 76 126 62 113 42 113 c 0
EndSplineSet
EndChar

StartChar: uni2076
Encoding: 447 8310 447
Width: 89
GlyphClass: 1
Flags: HMW
HStem: 113 17<40 49 40 55> 156 17<40 59> 156 48<40 49>
VStem: 10 19<139 147 139 152> 59 19<139 147>
LayerCount: 2
Fore
SplineSet
45 113 m 0xd8
 24 113 10 127 10 146 c 0
 10 158 14 167 22 180 c 2
 38 205 l 1
 60 205 l 1xb8
 39 172 l 1
 40 171 l 1
 43 173 46 174 51 174 c 0
 66 174 78 162 78 145 c 0
 78 127 66 113 45 113 c 0xd8
44 130 m 0
 53 130 59 136 59 143 c 0
 59 151 53 156 44 156 c 0
 35 156 29 151 29 143 c 0
 29 136 35 130 44 130 c 0
EndSplineSet
EndChar

StartChar: uni2077
Encoding: 448 8311 448
Width: 79
GlyphClass: 1
Flags: HMW
HStem: 186 18<6 49 6 68>
VStem: 6 65<186 205 186 205>
LayerCount: 2
Fore
SplineSet
37 115 m 1
 15 115 l 1
 49 184 l 1
 49 186 l 1
 6 186 l 1
 6 205 l 1
 68 205 l 1
 71 186 l 1
 37 115 l 1
EndSplineSet
EndChar

StartChar: uni2078
Encoding: 449 8312 449
Width: 93
GlyphClass: 1
Flags: HMW
HStem: 113 17<41 52 41 57> 153 16<42 51 42 52> 190 17<42 51>
VStem: 12 19<138 144 138 145> 15 19<177 183 176 189> 26 8 59 8 59 19<177 183> 62 19<138 144>
LayerCount: 2
Fore
SplineSet
46 113 m 0xf080
 25 113 12 123 12 140 c 0xf080
 12 151 18 158 26 161 c 1
 26 163 l 1xe480
 19 166 15 173 15 181 c 0
 15 196 27 207 46 207 c 0
 65 207 78 196 78 181 c 0xe9
 78 173 74 166 67 163 c 1
 67 161 l 1xf2
 75 158 82 151 82 140 c 0
 82 123 67 113 46 113 c 0xf080
46 169 m 0xe9
 55 169 59 173 59 179 c 0
 59 185 54 190 46 190 c 0
 38 190 34 185 34 179 c 0
 34 173 38 169 46 169 c 0xe9
46 130 m 0xf080
 57 130 62 135 62 141 c 0
 62 148 57 153 46 153 c 0
 36 153 31 148 31 141 c 0
 31 135 36 130 46 130 c 0xf080
EndSplineSet
EndChar

StartChar: uni2079
Encoding: 450 8313 450
Width: 89
GlyphClass: 1
Flags: HMW
HStem: 115 48<41 50 41 51 29 50> 146 17<30 50> 190 17<40 50>
VStem: 11 19<173 180 173 184> 60 19<173 180>
LayerCount: 2
Fore
SplineSet
45 207 m 0x78
 66 207 79 193 79 174 c 0
 79 162 75 153 67 140 c 2
 51 115 l 1
 29 115 l 1xb8
 51 148 l 1
 49 149 l 1
 46 147 43 146 38 146 c 0
 23 146 11 158 11 175 c 0
 11 193 24 207 45 207 c 0x78
45 190 m 0
 36 190 30 184 30 177 c 0
 30 169 36 163 45 163 c 0
 54 163 60 169 60 177 c 0
 60 184 54 190 45 190 c 0
EndSplineSet
EndChar

StartChar: fraction
Encoding: 451 8260 451
Width: 141
GlyphClass: 1
Flags: HMW
HStem: 0 5G<5 30 5 5> 174 5G<111 136 136 136>
VStem: 5 131
LayerCount: 2
Fore
SplineSet
30 0 m 1
 5 0 l 1
 111 179 l 1
 136 179 l 1
 30 0 l 1
EndSplineSet
EndChar

StartChar: onehalf
Encoding: 452 189 452
Width: 175
GlyphClass: 1
Flags: HMW
HStem: 0 18<104 106 133 170> 74 19<132 139> 156 23<28 29 26 48>
VStem: 29 19<89 156 156 156> 147 19<59 66>
LayerCount: 2
Fore
SplineSet
48 89 m 1
 29 89 l 1
 29 156 l 1
 26 156 l 1
 5 144 l 1
 5 165 l 1
 28 179 l 1
 48 179 l 1
 48 89 l 1
39 0 m 1
 14 0 l 1
 120 179 l 1
 145 179 l 1
 39 0 l 1
170 0 m 1
 106 0 l 1
 104 18 l 1
 133 42 l 2
 143 50 147 56 147 63 c 0
 147 70 143 74 135 74 c 0
 128 74 122 71 116 63 c 1
 103 76 l 1
 110 85 121 92 136 92 c 0
 154 92 167 82 167 64 c 0
 167 51 161 41 147 31 c 2
 133 20 l 1
 133 18 l 1
 170 18 l 1
 170 0 l 1
EndSplineSet
EndChar

StartChar: uni2153
Encoding: 453 8531 453
Width: 173
GlyphClass: 1
Flags: HMW
HStem: -2 18<130 140 130 145> 0 5G<14 39 14 14> 37 18<127 135 135 135 127 135> 74 18<131 138> 156 23<28 29 26 48>
VStem: 29 19<89 156 156 156> 127 28<45 47 45 55 45 55> 145 20<61 67> 149 20<24 31>
LayerCount: 2
Fore
SplineSet
48 89 m 1xbc
 29 89 l 1
 29 156 l 1
 26 156 l 1
 5 144 l 1
 5 165 l 1
 28 179 l 1
 48 179 l 1
 48 89 l 1xbc
39 0 m 1x7c
 14 0 l 1
 120 179 l 1
 145 179 l 1
 39 0 l 1x7c
135 -2 m 0xbc80
 118 -2 108 5 102 14 c 1
 114 26 l 1
 120 19 126 16 135 16 c 0
 144 16 149 21 149 27 c 0
 149 34 142 37 135 37 c 2xbc80
 127 37 l 1
 127 55 l 1xbe
 135 55 l 2
 141 55 145 57 145 64 c 0
 145 70 141 74 134 74 c 0
 127 74 122 70 117 63 c 1
 104 76 l 1
 110 85 121 92 135 92 c 0
 153 92 165 82 165 66 c 0xbd
 165 57 161 51 154 47 c 1
 154 45 l 1xbe
 163 43 169 37 169 26 c 0
 169 9 155 -2 135 -2 c 0xbc80
EndSplineSet
EndChar

StartChar: uni2154
Encoding: 454 8532 454
Width: 198
GlyphClass: 1
Flags: HMW
HStem: -2 18<155 164 155 170> 0 5G<39 63 39 39> 37 18<151 160 160 160 151 160> 74 18<156 163> 89 18<36 73 6 9> 163 19<34 41> 174 5G<145 169 169 169>
VStem: 50 20<149 156> 151 28<45 47 45 55 45 55> 170 20<61 67> 174 20<24 31>
LayerCount: 2
Fore
SplineSet
73 89 m 1xad20
 9 89 l 1
 6 107 l 1
 36 132 l 2
 46 140 50 145 50 152 c 0
 50 159 45 163 37 163 c 0
 31 163 24 160 18 152 c 1
 5 165 l 1
 13 174 24 182 39 182 c 0
 57 182 70 171 70 153 c 0
 70 140 63 130 49 120 c 2
 35 109 l 1
 36 107 l 1
 73 107 l 1
 73 89 l 1xad20
63 0 m 1x6b20
 39 0 l 1
 145 179 l 1
 169 179 l 1
 63 0 l 1x6b20
160 -2 m 0xad20
 143 -2 133 5 127 14 c 1
 139 26 l 1
 145 19 151 16 160 16 c 0
 169 16 174 21 174 27 c 0
 174 34 167 37 160 37 c 2xad20
 151 37 l 1
 151 55 l 1xad80
 160 55 l 2
 166 55 170 57 170 64 c 0
 170 70 166 74 159 74 c 0
 152 74 147 70 141 63 c 1
 129 76 l 1
 135 85 146 92 160 92 c 0
 178 92 190 82 190 66 c 0xb540
 190 57 186 51 179 47 c 1
 179 45 l 1xad80
 188 43 194 37 194 26 c 0
 194 9 180 -2 160 -2 c 0xad20
EndSplineSet
EndChar

StartChar: onequarter
Encoding: 455 188 455
Width: 166
GlyphClass: 1
Flags: HMW
HStem: 0 35<110 131 110 150> 19 17<110 131 110 131 150 161> 62 28<131 131 129 150> 156 23<28 29 26 48>
VStem: 29 19<89 156 156 156> 131 19<0 19 0 19 35 62 62 62>
LayerCount: 2
Fore
SplineSet
29 89 m 1xbc
 29 156 l 1
 26 156 l 1
 5 144 l 1
 5 165 l 1
 28 179 l 1
 48 179 l 1
 48 89 l 1
 29 89 l 1xbc
14 0 m 1
 120 179 l 1
 145 179 l 1
 39 0 l 1
 14 0 l 1
150 35 m 1
 161 35 l 1xbc
 161 19 l 1
 150 19 l 1x7c
 150 0 l 1
 131 0 l 1xbc
 131 19 l 1
 89 19 l 1
 87 36 l 1x7c
 131 90 l 1
 150 90 l 1
 150 35 l 1
109 37 m 1
 110 35 l 1
 131 35 l 1
 131 62 l 1
 129 62 l 1
 109 37 l 1
EndSplineSet
EndChar

StartChar: threequarters
Encoding: 456 190 456
Width: 179
GlyphClass: 1
Flags: HMW
HStem: 0 35<123 145 123 164> 19 17<123 145 123 145 164 175> 62 28<145 145 143 164> 87 18<34 43 34 49> 126 18<30 38 38 39 30 38> 130 5G<58 58> 163 18<34 41> 174 5G<135 160 160 160>
VStem: 30 28<135 136 135 144 135 144> 49 20<151 157> 52 20<114 120> 145 19<0 19 0 19 35 62 62 62>
LayerCount: 2
Fore
SplineSet
72 115 m 0x9630
 72 98 58 87 38 87 c 0
 21 87 11 94 5 103 c 1
 18 116 l 1
 24 109 29 105 38 105 c 0
 47 105 52 111 52 117 c 0
 52 124 46 126 39 126 c 2x9a30
 30 126 l 1
 30 144 l 1x9a90
 38 144 l 2
 44 144 49 147 49 154 c 0
 49 160 45 163 38 163 c 0
 31 163 25 160 20 153 c 1
 8 165 l 1
 14 174 24 182 38 182 c 0
 56 182 68 171 68 155 c 0x9a50
 68 146 65 140 58 136 c 1
 58 135 l 1x9690
 67 133 72 126 72 115 c 0x9630
29 0 m 1
 135 179 l 1
 160 179 l 1xa530
 54 0 l 1
 29 0 l 1
164 35 m 1
 175 35 l 1xa630
 175 19 l 1
 164 19 l 1x5630
 164 0 l 1
 145 0 l 1x9630
 145 19 l 1
 103 19 l 1
 101 36 l 1x5630
 145 90 l 1
 164 90 l 1
 164 35 l 1
123 37 m 1
 123 35 l 1
 145 35 l 1
 145 62 l 1
 143 62 l 1
 123 37 l 1
EndSplineSet
EndChar

StartChar: oneeighth
Encoding: 457 8539 457
Width: 176
GlyphClass: 1
Flags: HMW
HStem: -2 17<131 142 131 147> 0 5G<14 39 14 14> 38 16<132 141 132 142> 75 17<132 141> 156 23<28 29 26 48>
VStem: 29 19<89 156 156 156> 102 19<23 29 23 30> 105 19<62 68 61 74> 116 8 149 8 149 19<62 68> 153 19<23 29>
LayerCount: 2
Fore
SplineSet
48 89 m 1xbc
 29 89 l 1
 29 156 l 1
 26 156 l 1
 5 144 l 1
 5 165 l 1
 28 179 l 1
 48 179 l 1
 48 89 l 1xbc
39 0 m 1x7c
 14 0 l 1
 120 179 l 1
 145 179 l 1
 39 0 l 1x7c
137 -2 m 0xbe10
 116 -2 102 8 102 25 c 0xbe
 102 36 108 43 116 46 c 1
 116 48 l 1xbc80
 109 51 105 58 105 66 c 0
 105 81 118 92 137 92 c 0
 156 92 168 81 168 66 c 0xbd20
 168 58 163 51 157 48 c 1
 157 46 l 1xbc40
 165 43 172 36 172 25 c 0
 172 8 158 -2 137 -2 c 0xbe10
137 54 m 0xbd20
 145 54 149 59 149 65 c 0
 149 71 145 75 137 75 c 0
 129 75 124 71 124 65 c 0
 124 59 129 54 137 54 c 0xbd20
137 15 m 0xbe10
 147 15 153 20 153 26 c 0
 153 33 147 38 137 38 c 0
 126 38 121 33 121 26 c 0
 121 20 126 15 137 15 c 0xbe10
EndSplineSet
EndChar

StartChar: threeeighths
Encoding: 458 8540 458
Width: 190
GlyphClass: 1
Flags: HMW
HStem: -2 17<145 156 145 161> 0 5G<29 54 29 29> 38 16<146 155 146 156> 75 17<146 155> 87 18<34 43 34 49> 126 18<30 38 38 39 30 38> 130 5G<58 58> 163 18<34 41> 174 5G<135 159 159 159>
VStem: 30 28<135 136 135 144 135 144> 49 20<151 157> 52 20<114 120> 116 19<23 29 23 30> 119 19<62 68 61 74> 130 8 163 8 163 19<62 68> 167 19<23 29>
LayerCount: 2
Fore
SplineSet
38 87 m 0xab1840
 21 87 11 94 5 103 c 1
 18 116 l 1
 24 109 29 105 38 105 c 0
 47 105 52 111 52 117 c 0
 52 124 46 126 39 126 c 2xad1840
 30 126 l 1
 30 144 l 1xb54840
 38 144 l 2
 44 144 49 147 49 154 c 0
 49 160 45 163 38 163 c 0
 31 163 25 160 20 153 c 1
 8 165 l 1
 14 174 24 182 38 182 c 0
 56 182 68 171 68 155 c 0xb52840
 68 146 65 140 58 136 c 1
 58 135 l 1xb34840
 67 133 72 126 72 115 c 0
 72 98 58 87 38 87 c 0xab1840
54 0 m 1x729840
 29 0 l 1
 135 179 l 1
 159 179 l 1
 54 0 l 1x729840
151 -2 m 0xb31840
 130 -2 116 8 116 25 c 0xb31840
 116 36 122 43 130 46 c 1
 130 48 l 1xb31240
 123 51 119 58 119 66 c 0
 119 81 132 92 151 92 c 0
 170 92 183 81 183 66 c 0xb31480
 183 58 178 51 171 48 c 1
 171 46 l 1xb319
 179 43 186 36 186 25 c 0
 186 8 172 -2 151 -2 c 0xb31840
151 54 m 0xb31480
 160 54 163 59 163 65 c 0
 163 71 159 75 151 75 c 0
 143 75 138 71 138 65 c 0
 138 59 143 54 151 54 c 0xb31480
151 15 m 0xb31840
 162 15 167 20 167 26 c 0
 167 33 162 38 151 38 c 0
 141 38 135 33 135 26 c 0
 135 20 141 15 151 15 c 0xb31840
EndSplineSet
EndChar

StartChar: fiveeighths
Encoding: 459 8541 459
Width: 190
GlyphClass: 1
Flags: HMW
HStem: -2 17<145 156 145 161> 0 5G<28 53 28 28> 38 16<146 155 146 156> 75 17<146 155> 87 19<34 43 34 49> 133 17<40 42> 161 18<29 68 29 29>
VStem: 12 16 53 19<115 124> 116 19<23 29 23 30> 119 19<62 68 61 74> 130 8 163 8 163 19<62 68> 167 19<23 29>
LayerCount: 2
Fore
SplineSet
39 87 m 0x6fc2
 23 87 13 94 5 103 c 1
 18 116 l 1
 23 109 30 106 38 106 c 0
 47 106 53 111 53 120 c 0
 53 129 47 133 38 133 c 0
 32 133 27 132 24 129 c 1
 10 131 l 1
 14 179 l 1
 68 179 l 1
 68 161 l 1
 29 161 l 1
 28 148 l 1
 29 147 l 1
 33 149 37 150 43 150 c 0
 59 150 72 139 72 120 c 0
 72 100 59 87 39 87 c 0x6fc2
53 0 m 1
 28 0 l 1
 134 179 l 1
 159 179 l 1
 53 0 l 1
151 -2 m 0xb7c2
 130 -2 116 8 116 25 c 0xb7c2
 116 36 122 43 130 46 c 1
 130 48 l 1xb792
 123 51 119 58 119 66 c 0
 119 81 132 92 151 92 c 0
 170 92 183 81 183 66 c 0xb7a4
 183 58 178 51 171 48 c 1
 171 46 l 1xb7c8
 179 43 186 36 186 25 c 0
 186 8 172 -2 151 -2 c 0xb7c2
151 54 m 0xb7a4
 160 54 163 59 163 65 c 0
 163 71 159 75 151 75 c 0
 143 75 138 71 138 65 c 0
 138 59 143 54 151 54 c 0xb7a4
151 15 m 0xb7c2
 162 15 167 20 167 26 c 0
 167 33 162 38 151 38 c 0
 141 38 135 33 135 26 c 0
 135 20 141 15 151 15 c 0xb7c2
EndSplineSet
EndChar

StartChar: seveneighths
Encoding: 460 8542 460
Width: 174
GlyphClass: 1
Flags: HMW
HStem: -2 17<129 140 129 145> 0 5G<13 37 13 13> 38 16<130 139 130 140> 75 17<130 139> 161 18<5 48 5 68>
VStem: 100 19<23 29 23 30> 103 19<62 68 61 74> 114 8 147 8 147 19<62 68> 151 19<23 29>
LayerCount: 2
Fore
SplineSet
37 89 m 1xbc20
 14 89 l 1
 49 158 l 1
 48 161 l 1
 5 161 l 1
 5 179 l 1
 68 179 l 1
 70 161 l 1
 37 89 l 1xbc20
37 0 m 1x7c20
 13 0 l 1
 119 179 l 1
 143 179 l 1
 37 0 l 1x7c20
135 -2 m 0xbc20
 114 -2 100 8 100 25 c 0xbc20
 100 36 106 43 114 46 c 1
 114 48 l 1xb920
 107 51 103 58 103 66 c 0
 103 81 116 92 135 92 c 0
 154 92 166 81 166 66 c 0xba40
 166 58 161 51 155 48 c 1
 155 46 l 1xbc80
 163 43 170 36 170 25 c 0
 170 8 156 -2 135 -2 c 0xbc20
135 54 m 0xba40
 143 54 147 59 147 65 c 0
 147 71 143 75 135 75 c 0
 127 75 122 71 122 65 c 0
 122 59 127 54 135 54 c 0xba40
135 15 m 0xbc20
 145 15 151 20 151 26 c 0
 151 33 145 38 135 38 c 0
 124 38 119 33 119 26 c 0
 119 20 124 15 135 15 c 0xbc20
EndSplineSet
EndChar

StartChar: period
Encoding: 461 46 461
Width: 42
GlyphClass: 1
Flags: HMW
HStem: 0 28<7 35 7 35>
VStem: 7 28<0 28>
LayerCount: 2
Fore
SplineSet
35 0 m 1
 7 0 l 1
 7 28 l 1
 35 28 l 1
 35 0 l 1
EndSplineSet
EndChar

StartChar: comma
Encoding: 462 44 462
Width: 42
GlyphClass: 1
Flags: HMW
HStem: -28 14<10 12 7 18> 0 27<7 20 7 35>
VStem: 7 28<-28 -2 -14 -2 0 27> 20 15<-2 -2 -2 0 0 0>
LayerCount: 2
Fore
SplineSet
10 -28 m 2xe0
 7 -28 l 1xe0
 7 -14 l 1
 9 -14 l 2
 16 -14 20 -9 20 -2 c 2
 20 0 l 1xd0
 7 0 l 1
 7 27 l 1
 35 27 l 1
 35 -2 l 2
 35 -18 25 -28 10 -28 c 2xe0
EndSplineSet
EndChar

StartChar: colon
Encoding: 463 58 463
Width: 46
GlyphClass: 1
Flags: HMW
HStem: 0 28<9 37 9 37> 107 28<9 37 9 37>
VStem: 9 28<0 28 107 135>
LayerCount: 2
Fore
SplineSet
37 107 m 1
 9 107 l 1
 9 135 l 1
 37 135 l 1
 37 107 l 1
37 0 m 1
 9 0 l 1
 9 28 l 1
 37 28 l 1
 37 0 l 1
EndSplineSet
EndChar

StartChar: semicolon
Encoding: 464 59 464
Width: 46
GlyphClass: 1
Flags: HMW
HStem: -28 14<12 14 9 20> 0 27<9 22 9 37> 107 28<9 37 9 37>
VStem: 9 28<-28 -2 -14 -2 0 27 107 135> 22 15<-2 -2 -2 0 0 0>
LayerCount: 2
Fore
SplineSet
37 107 m 1xf0
 9 107 l 1
 9 135 l 1
 37 135 l 1
 37 107 l 1xf0
12 -28 m 2
 9 -28 l 1xf0
 9 -14 l 1
 11 -14 l 2
 18 -14 22 -9 22 -2 c 2
 22 0 l 1xe8
 9 0 l 1
 9 27 l 1
 37 27 l 1
 37 -2 l 2
 37 -18 27 -28 12 -28 c 2
EndSplineSet
EndChar

StartChar: ellipsis
Encoding: 465 8230 465
Width: 155
GlyphClass: 1
Flags: HMW
HStem: 0 28<7 35 7 35 64 91 120 148>
VStem: 7 28<0 28> 64 28<0 28> 120 28<0 28>
LayerCount: 2
Fore
SplineSet
35 0 m 1
 7 0 l 1
 7 28 l 1
 35 28 l 1
 35 0 l 1
91 0 m 1
 64 0 l 1
 64 28 l 1
 91 28 l 1
 91 0 l 1
148 0 m 1
 120 0 l 1
 120 28 l 1
 148 28 l 1
 148 0 l 1
EndSplineSet
EndChar

StartChar: exclam
Encoding: 466 33 466
Width: 48
GlyphClass: 1
Flags: HMW
HStem: 0 28<10 38 10 38> 174 5G<11 37 37 37>
VStem: 10 28<0 28> 12 24
LayerCount: 2
Fore
SplineSet
35 55 m 1xd0
 13 55 l 1
 11 179 l 1
 37 179 l 1
 35 55 l 1xd0
38 0 m 1xe0
 10 0 l 1
 10 28 l 1
 38 28 l 1
 38 0 l 1xe0
EndSplineSet
EndChar

StartChar: exclamdown
Encoding: 467 161 467
Width: 48
GlyphClass: 1
Flags: HMW
HStem: 106 28<10 38 10 38>
VStem: 10 28<106 134 106 134> 12 24
LayerCount: 2
Fore
SplineSet
10 106 m 1xc0
 10 134 l 1
 38 134 l 1
 38 106 l 1
 10 106 l 1xc0
11 -45 m 1xa0
 13 80 l 1
 35 80 l 1
 37 -45 l 1
 11 -45 l 1xa0
EndSplineSet
EndChar

StartChar: question
Encoding: 468 63 468
Width: 124
GlyphClass: 1
Flags: HMW
HStem: 0 28<43 71 43 71> 157 25<54 69>
VStem: 43 28<0 28> 45 24<55 55> 88 27<127 141>
LayerCount: 2
Fore
SplineSet
69 55 m 1xd8
 45 55 l 1
 42 77 53 88 65 99 c 1
 70 103 l 2
 80 112 88 120 88 134 c 0
 88 148 77 157 61 157 c 0
 47 157 36 150 24 135 c 1
 5 151 l 1
 16 168 34 182 61 182 c 0
 91 182 115 165 115 136 c 0
 115 111 101 100 87 87 c 1
 81 82 l 2
 73 75 67 69 69 55 c 1xd8
71 0 m 1xe8
 43 0 l 1
 43 28 l 1
 71 28 l 1
 71 0 l 1xe8
EndSplineSet
EndChar

StartChar: questiondown
Encoding: 469 191 469
Width: 119
GlyphClass: 1
Flags: HMW
HStem: -48 25<56 71 56 77> 106 28<54 82 54 82>
VStem: 9 27<-7 7 -7 11> 54 28<106 134 106 134>
LayerCount: 2
Fore
SplineSet
54 134 m 1
 82 134 l 1
 82 106 l 1
 54 106 l 1
 54 134 l 1
56 80 m 1
 80 80 l 1
 83 58 72 46 60 35 c 1
 55 31 l 2
 45 22 36 14 36 0 c 0
 36 -14 47 -23 64 -23 c 0
 78 -23 89 -16 101 -1 c 1
 120 -17 l 1
 109 -34 90 -48 63 -48 c 0
 33 -48 9 -31 9 -2 c 0
 9 23 25 34 38 47 c 1
 44 52 l 2
 52 59 58 66 56 80 c 1
EndSplineSet
EndChar

StartChar: periodcentered
Encoding: 470 183 470
Width: 42
GlyphClass: 1
Flags: HMW
HStem: 53 28<7 35 7 35>
VStem: 7 28<53 81>
LayerCount: 2
Fore
SplineSet
35 53 m 1
 7 53 l 1
 7 81 l 1
 35 81 l 1
 35 53 l 1
EndSplineSet
EndChar

StartChar: bullet
Encoding: 471 8226 471
Width: 70
GlyphClass: 1
Flags: HMW
HStem: 39 55<7 63 7 63>
VStem: 7 55<39 95>
LayerCount: 2
Fore
SplineSet
63 39 m 1
 7 39 l 1
 7 95 l 1
 63 95 l 1
 63 39 l 1
EndSplineSet
EndChar

StartChar: asterisk
Encoding: 472 42 472
Width: 107
GlyphClass: 1
Flags: HMW
HStem: 174 5G<44 64 64 64>
VStem: 44 20<81 112 81 113 81 113 148 179>
LayerCount: 2
Fore
SplineSet
91 164 m 1
 101 146 l 1
 74 131 l 1
 101 115 l 1
 91 97 l 1
 64 112 l 1
 64 81 l 1
 44 81 l 1
 44 113 l 1
 16 97 l 1
 6 115 l 1
 33 131 l 1
 6 146 l 1
 17 164 l 1
 44 148 l 1
 44 179 l 1
 64 179 l 1
 64 148 l 1
 91 164 l 1
EndSplineSet
EndChar

StartChar: numbersign
Encoding: 473 35 473
Width: 180
GlyphClass: 1
Flags: HMW
HStem: 0 5G<31 54 31 31 95 118 95 95> 47 23<9 39 9 43 66 103 9 62 130 156> 109 23<24 50 24 54 24 73 77 114 141 171> 174 5G<63 86 86 86 127 150 150 150>
VStem: 9 161<47 132 70 132>
LayerCount: 2
Fore
SplineSet
171 132 m 1
 171 109 l 1
 137 109 l 1
 130 70 l 1
 156 70 l 1
 156 47 l 1
 126 47 l 1
 118 0 l 1
 95 0 l 1
 103 47 l 1
 62 47 l 1
 54 0 l 1
 31 0 l 1
 39 47 l 1
 9 47 l 1
 9 70 l 1
 43 70 l 1
 50 109 l 1
 24 109 l 1
 24 132 l 1
 54 132 l 1
 63 179 l 1
 86 179 l 1
 77 132 l 1
 118 132 l 1
 127 179 l 1
 150 179 l 1
 141 132 l 1
 171 132 l 1
66 70 m 1
 107 70 l 1
 114 109 l 1
 73 109 l 1
 66 70 l 1
EndSplineSet
EndChar

StartChar: slash
Encoding: 474 47 474
Width: 93
GlyphClass: 1
Flags: HMW
HStem: 174 5G<63 89 89 89>
VStem: 5 83
LayerCount: 2
Fore
SplineSet
30 -28 m 5
 5 -28 l 5
 63 179 l 5
 89 179 l 5
 30 -28 l 5
EndSplineSet
EndChar

StartChar: backslash
Encoding: 475 92 475
Width: 93
GlyphClass: 1
Flags: HMW
HStem: 174 5G<5 30 30 30>
VStem: 5 83
LayerCount: 2
Fore
SplineSet
30 179 m 1
 89 -28 l 1
 63 -28 l 1
 5 179 l 1
 30 179 l 1
EndSplineSet
EndChar

StartChar: parenleft
Encoding: 476 40 476
Width: 83
GlyphClass: 1
Flags: HMW
HStem: -49 5G<50 78 50 50>
VStem: 12 27<41 97>
LayerCount: 2
Fore
SplineSet
78 -49 m 1
 50 -49 l 1
 29 -23 12 13 12 69 c 0
 12 125 29 161 50 187 c 1
 78 187 l 1
 56 160 39 125 39 69 c 0
 39 13 56 -22 78 -49 c 1
EndSplineSet
EndChar

StartChar: parenright
Encoding: 477 41 477
Width: 83
GlyphClass: 1
Flags: HMW
HStem: -49 5G<6 33 6 6>
VStem: 44 28<41 97 41 97>
LayerCount: 2
Fore
SplineSet
33 -49 m 1
 6 -49 l 1
 28 -22 44 13 44 69 c 0
 44 125 28 160 6 187 c 1
 33 187 l 1
 54 161 72 125 72 69 c 0
 72 13 54 -23 33 -49 c 1
EndSplineSet
EndChar

StartChar: braceleft
Encoding: 478 123 478
Width: 104
GlyphClass: 1
Flags: HMW
HStem: -51 23<73 81> 58 23<6 23 6 23> 166 23<73 81 63 83> 179 5G<100 100>
VStem: 6 38<67 71 67 81 67 81> 37 25<-10 44 94 95 95 148 148 148>
LayerCount: 2
Fore
SplineSet
77 -51 m 0xe4
 50 -51 37 -37 37 -10 c 2
 37 44 l 2
 37 53 32 58 23 58 c 2xe4
 6 58 l 1
 6 81 l 1xe8
 23 81 l 2
 32 81 37 85 37 94 c 2
 37 148 l 2
 37 175 50 189 77 189 c 0xe4
 87 189 93 187 100 184 c 1xd4
 100 161 l 1
 93 164 87 166 79 166 c 0
 67 166 62 160 62 148 c 2
 62 95 l 6xe4
 62 81 57 74 44 71 c 5xe8
 44 67 l 5
 57 64 62 58 62 44 c 2
 62 -10 l 2
 62 -22 67 -28 79 -28 c 0
 87 -28 93 -26 100 -23 c 1
 100 -46 l 1
 93 -49 87 -51 77 -51 c 0xe4
EndSplineSet
EndChar

StartChar: braceright
Encoding: 479 125 479
Width: 104
GlyphClass: 1
Flags: HMW
HStem: -51 23<23 31 21 41> 58 23<77 98 81 98> 166 23<23 31> 179 5G<4 4>
VStem: 42 25<-10 -10 -10 44 44 44 95 148> 60 38<67 71 71 71>
LayerCount: 2
Fore
SplineSet
28 -51 m 0xe8
 18 -51 12 -49 4 -46 c 1
 4 -23 l 1
 11 -26 17 -28 25 -28 c 0
 37 -28 42 -22 42 -10 c 2
 42 44 l 6xe8
 42 58 47 64 60 67 c 5xe4
 60 71 l 5
 47 74 42 81 42 95 c 6
 42 148 l 2
 42 160 37 166 25 166 c 0
 17 166 11 164 4 161 c 1xe8
 4 184 l 1xd8
 12 187 18 189 28 189 c 0
 54 189 67 175 67 148 c 2
 67 94 l 2
 67 85 72 81 81 81 c 2xe8
 98 81 l 1
 98 58 l 1xe4
 81 58 l 2
 72 58 67 53 67 44 c 2
 67 -10 l 2
 67 -37 54 -51 28 -51 c 0xe8
EndSplineSet
EndChar

StartChar: bracketleft
Encoding: 480 91 480
Width: 85
GlyphClass: 1
Flags: HMW
HStem: -49 23<46 82 46 82> 164 23<46 82 46 46>
VStem: 21 25<-26 164 -26 187 -26 187> 21 61<-49 -26 164 187>
LayerCount: 2
Fore
SplineSet
82 -49 m 1xd0
 21 -49 l 1
 21 187 l 1xe0
 82 187 l 1
 82 164 l 1xd0
 46 164 l 1
 46 -26 l 1xe0
 82 -26 l 1
 82 -49 l 1xd0
EndSplineSet
EndChar

StartChar: bracketright
Encoding: 481 93 481
Width: 85
GlyphClass: 1
Flags: HMW
HStem: -49 23<4 40 4 65 4 40> 164 23<4 40 4 65>
VStem: 4 61<-49 -26 -26 -26 164 187 -49 187> 40 25<-26 164 164 164>
LayerCount: 2
Fore
SplineSet
65 187 m 1xd0
 65 -49 l 1xd0
 4 -49 l 1
 4 -26 l 1xe0
 40 -26 l 1
 40 164 l 1xd0
 4 164 l 1
 4 187 l 1xe0
 65 187 l 1xd0
EndSplineSet
EndChar

StartChar: hyphen
Encoding: 482 45 482
Width: 82
GlyphClass: 1
Flags: HMW
HStem: 71 23<4 79 4 79>
VStem: 4 75<71 93 71 93>
LayerCount: 2
Fore
SplineSet
79 71 m 1
 4 71 l 1
 4 93 l 1
 79 93 l 1
 79 71 l 1
EndSplineSet
EndChar

StartChar: endash
Encoding: 484 8211 484
Width: 124
GlyphClass: 1
Flags: HMW
HStem: 71 23<4 121 4 121>
VStem: 4 117<71 93 71 93>
LayerCount: 2
Fore
SplineSet
121 71 m 1
 4 71 l 1
 4 93 l 1
 121 93 l 1
 121 71 l 1
EndSplineSet
EndChar

StartChar: emdash
Encoding: 485 8212 485
Width: 195
GlyphClass: 1
Flags: HMW
HStem: 71 23<4 192 4 192>
VStem: 4 188<71 93 71 93>
LayerCount: 2
Fore
SplineSet
192 71 m 1
 4 71 l 1
 4 93 l 1
 192 93 l 1
 192 71 l 1
EndSplineSet
EndChar

StartChar: figuredash
Encoding: 486 8210 486
Width: 82
GlyphClass: 1
Flags: HMW
HStem: 78 23<4 79 4 79>
VStem: 4 75<78 101 78 101>
LayerCount: 2
Fore
SplineSet
79 78 m 1
 4 78 l 1
 4 101 l 1
 79 101 l 1
 79 78 l 1
EndSplineSet
EndChar

StartChar: uni2015
Encoding: 487 8213 487
Width: 197
GlyphClass: 1
Flags: HMW
HStem: 71 23<4 192 4 192>
VStem: 4 188<71 93 71 93>
LayerCount: 2
Fore
SplineSet
192 71 m 1
 4 71 l 1
 4 93 l 1
 192 93 l 1
 192 71 l 1
EndSplineSet
EndChar

StartChar: uni2010
Encoding: 488 8208 488
Width: 82
GlyphClass: 1
Flags: HMW
HStem: 71 23<4 79 4 79>
VStem: 4 75<71 93 71 93>
LayerCount: 2
Fore
SplineSet
79 71 m 1
 4 71 l 1
 4 93 l 1
 79 93 l 1
 79 71 l 1
EndSplineSet
EndChar

StartChar: underscore
Encoding: 489 95 489
Width: 116
GlyphClass: 1
Flags: HMW
HStem: -22 22<0 117 0 117>
VStem: 0 117<-22 0 -22 0>
LayerCount: 2
Fore
SplineSet
117 -22 m 5
 0 -22 l 5
 0 0 l 5
 117 0 l 5
 117 -22 l 5
EndSplineSet
EndChar

StartChar: quotesinglbase
Encoding: 490 8218 490
Width: 42
GlyphClass: 1
Flags: HMW
HStem: -30 14<7 9 9 10 7 9> 0 27<7 20 7 35>
VStem: 7 28<-30 -4 -17 -4 0 27> 20 15<-5 -4 -4 0 0 0>
LayerCount: 2
Fore
SplineSet
10 -30 m 2xe0
 7 -30 l 1xe0
 7 -17 l 1
 9 -17 l 2
 16 -17 20 -12 20 -5 c 2
 20 0 l 1xd0
 7 0 l 1
 7 27 l 1
 35 27 l 1
 35 -4 l 2
 35 -20 25 -30 10 -30 c 2xe0
EndSplineSet
EndChar

StartChar: quotedblbase
Encoding: 491 8222 491
Width: 81
GlyphClass: 1
Flags: HMW
HStem: -31 14<48 51 46 56> -30 14<7 9 9 10 7 9> -0 28<46 59 7 46> 0 27<7 20 7 35>
VStem: 7 28<-30 -4 -17 -4 0 27> 20 15<-5 -4 -4 0 0 0> 46 28<-30 -4 -17 -4 -0 27> 59 15<-5 -4 -4 -0 -0 -0>
LayerCount: 2
Fore
SplineSet
10 -30 m 2x6a
 7 -30 l 1x6a
 7 -17 l 1
 9 -17 l 2
 16 -17 20 -12 20 -5 c 2
 20 0 l 1x56
 7 0 l 1x5a
 7 27 l 1
 35 27 l 1
 35 -4 l 2
 35 -20 25 -30 10 -30 c 2x6a
49 -31 m 0xaa
 48 -31 47 -30 46 -30 c 1xaa
 46 -17 l 1
 47 -17 l 2
 54 -17 59 -12 59 -5 c 2
 59 -0 l 1xa9
 46 -0 l 1
 46 27 l 1
 73 27 l 1
 73 -4 l 2
 73 -20 64 -31 49 -31 c 0xaa
EndSplineSet
EndChar

StartChar: quotedblleft
Encoding: 492 8220 492
Width: 79
GlyphClass: 1
Flags: HMW
HStem: 122 27<22 35 22 35 7 35 22 45 60 73> 166 14<32 33 33 35 70 71 71 73>
VStem: 7 15<150 154 154 154 150 162> 7 28<122 150 122 154 122 162> 45 15<150 154 154 154 150 162> 45 28<122 150 122 154 122 162>
LayerCount: 2
Fore
SplineSet
32 180 m 2xd4
 35 180 l 1xd4
 35 166 l 1
 33 166 l 2
 26 166 22 161 22 154 c 2
 22 150 l 1xe4
 35 150 l 1
 35 122 l 1
 7 122 l 1
 7 154 l 2
 7 170 17 180 32 180 c 2xd4
70 180 m 2
 73 180 l 1xd4
 73 166 l 1
 71 166 l 2
 64 166 60 161 60 154 c 2
 60 150 l 1xd8
 73 150 l 1
 73 122 l 1
 45 122 l 1
 45 154 l 2
 45 170 55 180 70 180 c 2
EndSplineSet
EndChar

StartChar: quotedblright
Encoding: 493 8221 493
Width: 79
GlyphClass: 1
Flags: HMW
HStem: 121 14<7 8 8 9 7 8 45 47 47 48> 152 27<7 19 7 35 7 45 45 58>
VStem: 7 28<121 148 135 148 152 179> 19 15<147 148 148 152 152 152> 45 28<121 148 135 148 152 179> 58 15<147 148 148 152 152 152>
LayerCount: 2
Fore
SplineSet
9 121 m 2xe8
 7 121 l 1xe8
 7 135 l 1
 8 135 l 2
 15 135 19 140 19 147 c 2
 19 152 l 1xd8
 7 152 l 1
 7 179 l 1
 35 179 l 1
 35 148 l 2
 35 132 24 121 9 121 c 2xe8
48 121 m 2
 45 121 l 1xe8
 45 135 l 1
 47 135 l 2
 54 135 58 140 58 147 c 2
 58 152 l 1xe4
 45 152 l 1
 45 179 l 1
 73 179 l 1
 73 148 l 2
 73 132 63 121 48 121 c 2
EndSplineSet
EndChar

StartChar: quoteleft
Encoding: 494 8216 494
Width: 41
GlyphClass: 1
Flags: HMW
HStem: 122 27<22 35 22 35 7 35> 166 14<32 33 33 35>
VStem: 7 15<150 154 154 154 150 162> 7 28<122 150 122 154 122 162>
LayerCount: 2
Fore
SplineSet
32 180 m 2xd0
 35 180 l 1xd0
 35 166 l 1
 33 166 l 2
 26 166 22 161 22 154 c 2
 22 150 l 1xe0
 35 150 l 1
 35 122 l 1
 7 122 l 1
 7 154 l 2
 7 170 17 180 32 180 c 2xd0
EndSplineSet
EndChar

StartChar: quoteright
Encoding: 495 8217 495
Width: 41
GlyphClass: 1
Flags: HMW
HStem: 121 14<7 8 8 9 7 8> 152 27<7 19 7 35>
VStem: 7 28<121 148 135 148 152 179> 19 15<147 148 148 152 152 152>
LayerCount: 2
Fore
SplineSet
9 121 m 2xe0
 7 121 l 1xe0
 7 135 l 1
 8 135 l 2
 15 135 19 140 19 147 c 2
 19 152 l 1xd0
 7 152 l 1
 7 179 l 1
 35 179 l 1
 35 148 l 2
 35 132 24 121 9 121 c 2xe0
EndSplineSet
EndChar

StartChar: guillemotleft
Encoding: 496 171 496
Width: 124
GlyphClass: 1
Flags: HMW
HStem: 37 105<38 68 38 68 38 86 86 116>
VStem: 4 112<37 89>
LayerCount: 2
Fore
SplineSet
34 89 m 1
 68 37 l 1
 38 37 l 1
 4 89 l 1
 38 142 l 1
 68 142 l 1
 34 89 l 1
81 89 m 1
 116 37 l 1
 86 37 l 1
 51 89 l 1
 86 142 l 1
 116 142 l 1
 81 89 l 1
EndSplineSet
EndChar

StartChar: guillemotright
Encoding: 497 187 497
Width: 124
GlyphClass: 1
Flags: HMW
HStem: 37 105<9 39 9 39 9 57 57 87>
VStem: 9 112<37 89 89 142>
LayerCount: 2
Fore
SplineSet
39 37 m 1
 9 37 l 1
 43 89 l 1
 9 142 l 1
 39 142 l 1
 73 89 l 1
 39 37 l 1
87 37 m 1
 57 37 l 1
 91 89 l 1
 57 142 l 1
 87 142 l 1
 121 89 l 1
 87 37 l 1
EndSplineSet
EndChar

StartChar: guilsinglleft
Encoding: 498 8249 498
Width: 76
GlyphClass: 1
Flags: HMW
HStem: 37 105<38 68 38 68>
VStem: 4 65<37 89>
LayerCount: 2
Fore
SplineSet
34 89 m 1
 68 37 l 1
 38 37 l 1
 4 89 l 1
 38 142 l 1
 68 142 l 1
 34 89 l 1
EndSplineSet
EndChar

StartChar: guilsinglright
Encoding: 499 8250 499
Width: 76
GlyphClass: 1
Flags: HMW
HStem: 37 105<9 39 9 39>
VStem: 9 65<37 89 89 142>
LayerCount: 2
Fore
SplineSet
39 37 m 1
 9 37 l 1
 43 89 l 1
 9 142 l 1
 39 142 l 1
 73 89 l 1
 39 37 l 1
EndSplineSet
EndChar

StartChar: quotedbl
Encoding: 500 34 500
Width: 90
GlyphClass: 1
Flags: HMW
HStem: 114 65<13 35 13 13 56 56 56 78>
VStem: 12 25 54 25
LayerCount: 2
Fore
SplineSet
35 114 m 1
 13 114 l 1
 10 179 l 1
 38 179 l 1
 35 114 l 1
78 114 m 1
 56 114 l 1
 53 179 l 1
 80 179 l 1
 78 114 l 1
EndSplineSet
EndChar

StartChar: quotesingle
Encoding: 501 39 501
Width: 47
GlyphClass: 1
Flags: HMW
HStem: 114 65<13 35 13 13>
VStem: 12 25
LayerCount: 2
Fore
SplineSet
35 114 m 1
 13 114 l 1
 10 179 l 1
 38 179 l 1
 35 114 l 1
EndSplineSet
EndChar

StartChar: uni20B5
Encoding: 504 8373 504
Width: 163
GlyphClass: 2
Flags: HMW
HStem: -26 48<74 97 73 100> -2 25<97 97> -1 5G<73 73> 156 25<97 97 97 100> 156 48<74 97 73 100> 175 5G<73 73>
VStem: 10 27<68 111 68 114> 73 23<-26 -2 -26 -1 -26 -1 182 205>
AnchorPoint: "Anchor-1" 84 179 basechar 0
AnchorPoint: "Anchor-0" 82 0 basechar 0
LayerCount: 2
Fore
SplineSet
91 23 m 0x53
 109 23 123 29 137 44 c 1
 155 26 l 1
 141 9 120 -1 97 -2 c 1x47
 97 -26 l 1
 73 -26 l 1x87
 73 -1 l 1
 34 6 10 40 10 90 c 0
 10 140 34 173 73 180 c 1x27
 73 205 l 1
 97 205 l 1x2b
 97 182 l 1
 120 181 141 170 155 153 c 1
 137 135 l 1
 123 150 109 156 91 156 c 0
 57 156 37 133 37 90 c 0
 37 47 57 23 91 23 c 0x53
EndSplineSet
EndChar

StartChar: cent
Encoding: 505 162 505
Width: 137
GlyphClass: 2
Flags: HMW
HStem: 0 43<63 81 58 82> 20 23<81 81> 130 5G<127 127> 136 23<81 81 81 82> 136 44<63 81 58 82>
VStem: 11 25<75 103 75 107> 58 23<0 20 0 22 0 22 159 179>
AnchorPoint: "Anchor-1" 71 156 basechar 0
AnchorPoint: "Anchor-0" 70 22 basechar 0
LayerCount: 2
Fore
SplineSet
75 43 m 0x8e
 88 43 101 49 110 60 c 1x8e
 127 43 l 1
 116 30 101 21 81 20 c 1x4e
 81 0 l 1
 58 0 l 1
 58 22 l 1
 29 29 11 54 11 89 c 0
 11 124 29 150 58 157 c 1
 58 179 l 1
 81 179 l 1x8e
 81 159 l 1x96
 101 158 116 148 127 135 c 1xa6
 110 119 l 1
 101 130 88 136 75 136 c 0
 50 136 36 117 36 89 c 0
 36 61 50 43 75 43 c 0x8e
EndSplineSet
EndChar

StartChar: colonmonetary
Encoding: 506 8353 506
Width: 163
GlyphClass: 2
Flags: HMW
HStem: -26 48<29 100 29 100 74 93 70 100> -2 25<98 98> -1 5G<75 75> 156 25<91 94 91 100> 175 5G<109 109> 182 23<91 94>
VStem: 10 27<74 111 68 113>
AnchorPoint: "Anchor-1" 84 179 basechar 0
AnchorPoint: "Anchor-0" 82 0 basechar 0
LayerCount: 2
Fore
SplineSet
91 23 m 0x52
 109 23 123 29 137 44 c 1
 155 26 l 1
 141 9 121 0 98 -2 c 1x4a
 93 -26 l 1
 70 -26 l 1x8a
 75 -1 l 1
 69 0 63 2 58 4 c 1x2a
 52 -26 l 1
 29 -26 l 1
 37 17 l 1
 20 33 10 59 10 90 c 0
 10 137 32 169 67 179 c 1
 72 205 l 1
 95 205 l 1
 91 182 l 1x86
 97 182 103 181 109 180 c 1x2a
 114 205 l 1
 137 205 l 1x26
 131 173 l 1
 140 168 148 161 155 153 c 1
 137 135 l 1
 123 150 109 156 91 156 c 0
 57 156 37 133 37 90 c 0
 37 47 57 23 91 23 c 0x52
EndSplineSet
EndChar

StartChar: currency
Encoding: 507 164 507
Width: 153
GlyphClass: 1
Flags: HMW
HStem: 28 23<70 83> 130 23<70 83 70 88>
VStem: 17 25<84 97> 112 25<84 97 84 101>
LayerCount: 2
Fore
SplineSet
136 90 m 0
 136 77 132 64 126 54 c 1
 145 35 l 1
 129 19 l 1
 111 38 l 1
 102 32 90 28 77 28 c 0
 64 28 51 32 42 38 c 1
 24 19 l 1
 8 35 l 1
 27 54 l 1
 21 64 17 77 17 90 c 0
 17 104 20 117 27 127 c 1
 8 146 l 1
 24 162 l 1
 43 143 l 1
 52 149 64 153 77 153 c 0
 90 153 101 149 110 143 c 1
 129 162 l 1
 145 146 l 1
 126 127 l 1
 133 117 136 104 136 90 c 0
77 51 m 0
 100 51 112 69 112 90 c 0
 112 111 100 130 77 130 c 0
 54 130 41 111 41 90 c 0
 41 69 54 51 77 51 c 0
EndSplineSet
EndChar

StartChar: dollar
Encoding: 508 36 508
Width: 144
GlyphClass: 2
Flags: HMW
HStem: -26 48<64 83 64 83 60 83> -2 5G<83 83> -2 5G<60 60> 157 48<62 78> 176 5G<60 60 83 83>
VStem: 15 26<127 141 127 146> 60 23<-26 -2 -26 -2 -26 -2 181 205> 107 27<42 57>
AnchorPoint: "Anchor-1" 72 179 basechar 0
AnchorPoint: "Anchor-0" 72 0 basechar 0
LayerCount: 2
Fore
SplineSet
133 52 m 0x2f
 133 21 112 2 83 -2 c 1x4f
 83 -26 l 1
 60 -26 l 1x8f
 60 -2 l 1x2f
 38 1 21 11 9 25 c 1
 27 43 l 1
 40 29 55 22 72 22 c 0
 94 22 107 34 107 50 c 0
 107 64 98 72 78 78 c 2
 60 83 l 2
 32 91 15 108 15 132 c 0
 15 160 34 177 60 181 c 1x8f
 60 205 l 1
 83 205 l 1x37
 83 181 l 1
 102 178 117 170 129 158 c 1x2f
 113 139 l 1
 100 152 86 157 71 157 c 0
 54 157 41 149 41 134 c 0x37
 41 121 50 112 69 107 c 2
 88 102 l 2
 117 94 133 79 133 52 c 0x2f
EndSplineSet
EndChar

StartChar: dong
Encoding: 509 8363 509
Width: 142
GlyphClass: 1
Flags: HMW
HStem: 0 20<11 119 11 119> 34 23<53 64> 120 23<56 70 49 72> 132 5G<95 95> 151 19<52 95 52 95 119 140> 151 28<52 119 95 140 95 119>
VStem: 11 24<80 98 80 103> 95 24<37 54 54 54 77 114 114 114 137 151 170 179>
LayerCount: 2
Fore
SplineSet
119 170 m 1xdb
 140 170 l 1xeb
 140 151 l 1
 119 151 l 1
 119 37 l 1
 95 37 l 1
 95 54 l 1
 92 55 l 1
 83 40 71 34 57 34 c 0
 27 34 11 58 11 87 c 0
 11 119 34 143 65 143 c 0xe7
 74 143 86 141 95 137 c 1
 95 151 l 1
 52 151 l 1xd7
 52 170 l 1
 95 170 l 1xdb
 95 179 l 1
 119 179 l 1xd7
 119 170 l 1xdb
95 77 m 1
 95 114 l 1
 86 118 77 120 66 120 c 0
 45 120 35 107 35 88 c 0
 35 72 44 57 63 57 c 0
 78 57 86 65 95 77 c 1
119 0 m 1
 11 0 l 1
 11 20 l 1
 119 20 l 1
 119 0 l 1
EndSplineSet
EndChar

StartChar: Euro
Encoding: 510 8364 510
Width: 175
GlyphClass: 1
Flags: HMW
HStem: -3 24<89 110 89 114> 59 22<3 23 3 27 3 23 53 53 53 102> 99 22<3 23 3 26 53 110> 157 24<88 110>
VStem: 23 26<88 91>
LayerCount: 2
Fore
SplineSet
100 22 m 0
 119 22 135 30 148 50 c 1
 167 37 l 1
 153 11 127 -3 100 -3 c 0
 63 -3 36 21 27 59 c 1
 3 59 l 1
 3 80 l 1
 23 80 l 1
 23 99 l 1
 3 99 l 1
 3 120 l 1
 26 120 l 1
 35 159 62 182 100 182 c 0
 127 182 153 169 167 143 c 1
 148 129 l 1
 135 149 119 157 100 157 c 0
 76 157 60 144 53 120 c 1
 113 120 l 1
 110 99 l 1
 49 99 l 1
 49 80 l 1
 106 80 l 1
 102 59 l 1
 53 59 l 1
 60 35 76 22 100 22 c 0
EndSplineSet
EndChar

StartChar: florin
Encoding: 511 402 511
Width: 98
GlyphClass: 1
Flags: HMW
HStem: 0 5G<31 56 31 31> 112 22<5 31 5 31 56 94> 166 23<73 84 66 84>
VStem: 5 50<112 112 134 134> 31 25<0 112 134 138>
LayerCount: 2
Fore
SplineSet
16 -51 m 4xb0
 10 -51 4 -50 -1 -49 c 5x70
 -1 -26 l 5
 3 -28 9 -28 13 -28 c 4
 24 -28 31 -23 31 -6 c 6
 31 134 l 5
 56 134 l 5
 56 -6 l 6
 56 -35 41 -51 16 -51 c 4xb0
56 0 m 1xe8
 31 0 l 1
 31 112 l 1xe8
 5 112 l 1
 5 134 l 1xf0
 31 134 l 1
 31 139 l 2
 31 173 51 189 82 189 c 0
 87 189 92 189 97 188 c 1
 97 165 l 1
 92 166 87 166 82 166 c 0
 65 166 56 157 56 138 c 2
 56 134 l 1
 94 134 l 1
 94 112 l 1
 56 112 l 1
 56 0 l 1xe8
EndSplineSet
EndChar

StartChar: uni20B2
Encoding: 512 8370 512
Width: 169
GlyphClass: 2
Flags: HMW
HStem: -3 25<97 97> -1 5G<73 73> 68 24<97 130 97 156> 156 25<97 97> 175 5G<73 73> 176 5G<97 97>
VStem: 10 27<72 108 72 115> 73 23<-26 -3 -26 -1 -26 -1 25 68 92 154 154 154 182 205> 130 26<35 68 68 68>
AnchorPoint: "Anchor-1" 86 179 basechar 0
AnchorPoint: "Anchor-0" 84 0 basechar 0
LayerCount: 2
Fore
SplineSet
97 156 m 1x7380
 97 92 l 1
 156 92 l 1
 156 23 l 1
 142 8 123 -2 97 -3 c 1
 97 -26 l 1
 73 -26 l 1xa780
 73 -1 l 1
 34 6 10 39 10 90 c 0
 10 140 34 173 73 180 c 1
 73 205 l 1
 97 205 l 1x6b80
 97 182 l 1
 122 180 141 170 155 153 c 1
 137 135 l 1
 125 148 113 154 97 156 c 1x7380
37 90 m 0
 37 55 49 32 73 25 c 1
 73 154 l 1
 50 147 37 126 37 90 c 0
130 35 m 1
 130 68 l 1
 97 68 l 1
 97 23 l 1
 111 24 121 28 130 35 c 1
EndSplineSet
EndChar

StartChar: lira
Encoding: 513 8356 513
Width: 146
GlyphClass: 1
Flags: HMW
HStem: 0 25<45 130 45 130> 52 22<8 38 8 39 8 38 66 109> 92 22<8 25 8 32 8 25 59 59 59 109> 156 25<73 90>
VStem: 23 27<126 136 124 144>
LayerCount: 2
Fore
SplineSet
44 29 m 1
 45 25 l 1
 130 25 l 1
 130 0 l 1
 16 0 l 1
 12 25 l 1
 28 35 36 42 39 52 c 1
 8 52 l 1
 8 74 l 1
 38 74 l 1
 32 92 l 1
 8 92 l 1
 8 114 l 1
 25 114 l 1
 24 119 23 123 23 128 c 0
 23 159 46 182 83 182 c 0
 112 182 131 167 144 150 c 1
 124 134 l 1
 111 151 98 156 82 156 c 0
 63 156 50 146 50 126 c 0
 50 122 50 118 51 114 c 1
 109 114 l 1
 109 92 l 1
 59 92 l 1
 62 86 64 80 66 74 c 1
 109 74 l 1
 109 52 l 1
 66 52 l 1
 63 43 55 36 44 29 c 1
EndSplineSet
EndChar

StartChar: uni20BA
Encoding: 514 8378 514
Width: 143
GlyphClass: 1
Flags: HMW
HStem: 0 25<49 60 60 60> 131 5G<23 23> 174 5G<23 49 49 49>
VStem: 23 26<25 68 68 68 102 112 112 112 145 179> 112 25<67 87>
LayerCount: 2
Fore
SplineSet
112 87 m 1
 136 87 l 1
 136 39 113 0 60 0 c 2
 23 0 l 1
 23 68 l 1
 3 61 l 1
 3 85 l 1
 23 92 l 1
 23 112 l 1
 3 105 l 1
 3 129 l 1
 23 136 l 1
 23 179 l 1
 49 179 l 1
 49 145 l 1
 89 159 l 1
 89 135 l 1
 49 121 l 1
 49 102 l 1
 89 116 l 1
 89 92 l 1
 49 78 l 1
 49 25 l 1
 60 25 l 2
 94 25 112 47 112 87 c 1
EndSplineSet
EndChar

StartChar: uni20A6
Encoding: 515 8358 515
Width: 185
GlyphClass: 2
Flags: HMW
HStem: 0 5G<22 48 22 22 137 163 137 137> 79 22<2 22 2 22 163 184> 136 43<48 52 48 48>
VStem: 22 26<0 79 79 79 100 136 0 179> 137 26<0 79 55 79 100 179>
AnchorPoint: "Anchor-1" 92 179 basechar 0
AnchorPoint: "Anchor-0" 92 0 basechar 0
LayerCount: 2
Fore
SplineSet
163 100 m 1
 184 100 l 1
 184 79 l 1
 163 79 l 1
 163 0 l 1
 137 0 l 1
 52 136 l 1
 48 136 l 1
 48 0 l 1
 22 0 l 1
 22 79 l 1
 2 79 l 1
 2 100 l 1
 22 100 l 1
 22 179 l 1
 55 179 l 1
 132 55 l 1
 137 55 l 1
 137 179 l 1
 163 179 l 1
 163 100 l 1
EndSplineSet
EndChar

StartChar: peseta
Encoding: 516 8359 516
Width: 172
GlyphClass: 1
Flags: HMW
HStem: 0 5G<23 49 23 23> 66 25<49 87 49 89> 112 22<3 23 3 23 148 169> 154 25<49 87 87 89 49 49>
VStem: 23 26<0 66 91 112 112 112 134 154> 122 47<112 134 112 134>
LayerCount: 2
Fore
SplineSet
148 134 m 1
 169 134 l 1
 169 112 l 1
 148 112 l 1
 143 82 120 66 87 66 c 2
 49 66 l 1
 49 0 l 1
 23 0 l 1
 23 112 l 1
 3 112 l 1
 3 134 l 1
 23 134 l 1
 23 179 l 1
 87 179 l 2
 121 179 144 164 148 134 c 1
49 91 m 1
 89 91 l 2
 110 91 122 101 122 123 c 0
 122 145 110 154 89 154 c 2
 49 154 l 1
 49 91 l 1
EndSplineSet
EndChar

StartChar: uni20B1
Encoding: 517 8369 517
Width: 167
GlyphClass: 1
Flags: HMW
HStem: 0 5G<21 47 21 21> 66 25<47 85 47 88> 92 22<3 21 3 21 146 165> 132 22<3 21 3 21 146 165 146 146> 154 25<47 85 85 88 47 47>
VStem: 21 26<0 66 91 92 92 92 114 132 132 132 154 154> 120 27<121 124 121 134> 120 45<112 114 132 134>
LayerCount: 2
Fore
SplineSet
140 154 m 1xd6
 165 154 l 1
 165 132 l 1xd5
 146 132 l 1
 146 129 147 126 147 123 c 0
 147 120 146 117 146 114 c 1xb6
 165 114 l 1
 165 92 l 1
 139 92 l 1xad
 129 75 109 66 85 66 c 2
 47 66 l 1xce
 47 0 l 1
 21 0 l 1
 21 92 l 1
 3 92 l 1
 3 114 l 1
 21 114 l 1
 21 132 l 1
 3 132 l 1
 3 154 l 1
 21 154 l 1xb6
 21 179 l 1
 85 179 l 2xce
 110 179 130 171 140 154 c 1xd6
47 91 m 1
 88 91 l 2
 109 91 120 101 120 123 c 0
 120 145 109 154 88 154 c 2
 47 154 l 1xce
 47 91 l 1
EndSplineSet
EndChar

StartChar: uni20BD
Encoding: 518 8381 518
Width: 156
GlyphClass: 1
Flags: HMW
HStem: 0 48<3 49 3 23> 26 22<3 23 3 23 49 107> 66 24<3 23 3 23 49 87> 155 24<49 88 88 89 49 49>
VStem: 23 26<0 26 0 26 48 66 90 155> 123 26<111 134>
LayerCount: 2
Fore
SplineSet
87 66 m 2xbc
 49 66 l 1
 49 48 l 1
 107 48 l 1xbc
 107 26 l 1
 49 26 l 1x7c
 49 0 l 1
 23 0 l 1xbc
 23 26 l 1
 3 26 l 1x7c
 3 48 l 1
 23 48 l 1
 23 66 l 1
 3 66 l 1
 3 90 l 1
 23 90 l 1
 23 179 l 1
 88 179 l 2
 125 179 148 160 148 123 c 0
 148 86 124 66 87 66 c 2xbc
89 155 m 2
 49 155 l 1
 49 90 l 1
 89 90 l 2
 110 90 123 100 123 123 c 0
 123 146 110 155 89 155 c 2
EndSplineSet
EndChar

StartChar: uni20B9
Encoding: 519 8377 519
Width: 136
GlyphClass: 1
Flags: HMW
HStem: 0 5G<80 117 80 80> 69 21<46 54 8 46> 111 24<8 80 8 80 106 127> 156 24<8 46 8 127 98 127 98 98>
VStem: 8 38<67 69 66 90 66 90>
LayerCount: 2
Fore
SplineSet
127 179 m 1
 127 156 l 1
 98 156 l 1
 102 150 105 143 106 135 c 1
 127 135 l 1
 127 111 l 1
 106 111 l 1
 102 87 87 69 54 69 c 2
 46 69 l 1
 46 66 l 1
 117 0 l 1
 80 0 l 1
 8 67 l 1
 8 90 l 1
 46 90 l 2
 64 90 76 96 80 111 c 1
 8 111 l 1
 8 135 l 1
 80 135 l 1
 76 150 64 156 46 156 c 2
 8 156 l 1
 8 179 l 1
 127 179 l 1
EndSplineSet
EndChar

StartChar: sterling
Encoding: 520 163 520
Width: 146
GlyphClass: 1
Flags: HMW
HStem: 0 25<45 130 45 130> 78 22<8 29 8 37 8 29 65 65 65 111> 156 25<73 90>
VStem: 23 27<123 136 121 144> 41 27<56 64>
LayerCount: 2
Fore
SplineSet
44 29 m 1xe8
 45 25 l 1
 130 25 l 1
 130 0 l 1
 16 0 l 1
 12 25 l 1
 32 38 41 47 41 61 c 0
 41 66 39 72 37 78 c 1xe8
 8 78 l 1
 8 100 l 1
 29 100 l 1
 26 109 23 119 23 128 c 0
 23 159 46 182 83 182 c 0
 112 182 131 167 144 150 c 1
 124 134 l 1
 111 151 98 156 82 156 c 0
 63 156 50 146 50 126 c 0
 50 117 53 108 56 100 c 1xf0
 111 100 l 1
 111 78 l 1
 65 78 l 1
 67 73 67 68 67 63 c 0
 67 49 59 38 44 29 c 1xe8
EndSplineSet
EndChar

StartChar: yen
Encoding: 521 165 521
Width: 157
GlyphClass: 2
Flags: HMW
HStem: 0 5G<66 92 66 66> 37 22<19 66 19 66 92 138> 77 22<19 49 19 62 19 49 108 138> 174 5G<3 33 33 33 125 154 154 154>
VStem: 66 26<0 37 0 37 59 71>
AnchorPoint: "Anchor-1" 79 179 basechar 0
AnchorPoint: "Anchor-0" 79 0 basechar 0
LayerCount: 2
Fore
SplineSet
125 179 m 1
 154 179 l 1
 108 99 l 1
 138 99 l 1
 138 77 l 1
 96 77 l 1
 92 71 l 1
 92 59 l 1
 138 59 l 1
 138 37 l 1
 92 37 l 1
 92 0 l 1
 66 0 l 1
 66 37 l 1
 19 37 l 1
 19 59 l 1
 66 59 l 1
 66 71 l 1
 62 77 l 1
 19 77 l 1
 19 99 l 1
 49 99 l 1
 3 179 l 1
 33 179 l 1
 77 101 l 1
 80 101 l 1
 125 179 l 1
EndSplineSet
EndChar

StartChar: uni2219
Encoding: 522 8729 522
Width: 70
GlyphClass: 1
Flags: HMW
HStem: 63 55<7 63 7 63>
VStem: 7 55<63 118>
LayerCount: 2
Fore
SplineSet
63 63 m 1
 7 63 l 1
 7 118 l 1
 63 118 l 1
 63 63 l 1
EndSplineSet
EndChar

StartChar: uni2215
Encoding: 523 8725 523
Width: 89
GlyphClass: 1
Flags: HMW
HStem: 0 5G<5 30 5 5> 174 5G<60 85 85 85>
VStem: 5 80
LayerCount: 2
Fore
SplineSet
30 0 m 1
 5 0 l 1
 60 179 l 1
 85 179 l 1
 30 0 l 1
EndSplineSet
EndChar

StartChar: plus
Encoding: 524 43 524
Width: 118
GlyphClass: 1
Flags: HMW
HStem: 78 22<9 48 9 48 70 110>
VStem: 48 23<39 78 39 78 101 140>
LayerCount: 2
Fore
SplineSet
70 101 m 1
 110 101 l 1
 110 78 l 1
 70 78 l 1
 70 39 l 1
 48 39 l 1
 48 78 l 1
 9 78 l 1
 9 101 l 1
 48 101 l 1
 48 140 l 1
 70 140 l 1
 70 101 l 1
EndSplineSet
EndChar

StartChar: minus
Encoding: 525 8722 525
Width: 118
GlyphClass: 1
Flags: HMW
HStem: 78 22<9 110 9 110>
VStem: 9 101<78 101 78 101>
LayerCount: 2
Fore
SplineSet
110 78 m 1
 9 78 l 1
 9 101 l 1
 110 101 l 1
 110 78 l 1
EndSplineSet
EndChar

StartChar: multiply
Encoding: 526 215 526
Width: 129
GlyphClass: 1
Flags: HMW
HStem: 37 105<28 28 28 101>
VStem: 12 105<52 52 52 126>
LayerCount: 2
Fore
SplineSet
101 142 m 1
 117 126 l 1
 80 89 l 1
 117 52 l 1
 101 37 l 1
 65 74 l 1
 28 37 l 1
 12 52 l 1
 49 89 l 1
 12 126 l 1
 28 142 l 1
 65 105 l 1
 101 142 l 1
EndSplineSet
EndChar

StartChar: divide
Encoding: 527 247 527
Width: 118
GlyphClass: 1
Flags: HMW
HStem: 36 28<45 73 45 73> 78 22<9 110 9 110> 115 28<45 73 45 73>
VStem: 45 28<36 64 115 143>
LayerCount: 2
Fore
SplineSet
73 115 m 1
 45 115 l 1
 45 143 l 1
 73 143 l 1
 73 115 l 1
110 78 m 1
 9 78 l 1
 9 101 l 1
 110 101 l 1
 110 78 l 1
73 36 m 1
 45 36 l 1
 45 64 l 1
 73 64 l 1
 73 36 l 1
EndSplineSet
EndChar

StartChar: equal
Encoding: 528 61 528
Width: 118
GlyphClass: 1
Flags: HMW
HStem: 52 22<9 110 9 110> 105 22<9 110 9 110>
VStem: 9 101<52 74 52 74 105 127 52 127>
LayerCount: 2
Fore
SplineSet
110 105 m 1
 9 105 l 1
 9 127 l 1
 110 127 l 1
 110 105 l 1
110 52 m 1
 9 52 l 1
 9 74 l 1
 110 74 l 1
 110 52 l 1
EndSplineSet
EndChar

StartChar: notequal
Encoding: 529 8800 529
Width: 118
GlyphClass: 1
Flags: HMW
HStem: 52 22<9 19 9 35 62 110 9 47> 105 22<9 56 9 72 99 110 9 83>
VStem: 9 101<37 74 52 74 52 74 105 127 52 127>
LayerCount: 2
Fore
SplineSet
82 142 m 1
 110 142 l 1
 99 127 l 1
 110 127 l 1
 110 105 l 1
 83 105 l 1
 62 74 l 1
 110 74 l 1
 110 52 l 1
 47 52 l 1
 36 37 l 1
 9 37 l 1
 19 52 l 1
 9 52 l 1
 9 74 l 1
 35 74 l 1
 56 105 l 1
 9 105 l 1
 9 127 l 1
 72 127 l 1
 82 142 l 1
EndSplineSet
EndChar

StartChar: greater
Encoding: 530 62 530
Width: 118
GlyphClass: 1
Flags: HMW
HStem: 37 105<9 9>
VStem: 9 101<37 100 61 100 78 142 78 142>
LayerCount: 2
Fore
SplineSet
9 118 m 1
 9 142 l 1
 110 100 l 1
 110 78 l 1
 9 37 l 1
 9 61 l 1
 78 89 l 1
 9 118 l 1
EndSplineSet
EndChar

StartChar: less
Encoding: 531 60 531
Width: 118
GlyphClass: 1
Flags: HMW
HStem: 37 105<110 110>
VStem: 9 101<37 100 37 100>
LayerCount: 2
Fore
SplineSet
9 100 m 1
 110 142 l 1
 110 118 l 1
 40 89 l 1
 110 61 l 1
 110 37 l 1
 9 78 l 1
 9 100 l 1
EndSplineSet
EndChar

StartChar: greaterequal
Encoding: 532 8805 532
Width: 118
GlyphClass: 1
Flags: HMW
HStem: 9 22<9 110 9 110>
VStem: 9 101<9 31 9 31 9 69 9 69>
LayerCount: 2
Fore
SplineSet
9 118 m 1
 9 142 l 1
 110 105 l 1
 110 82 l 1
 9 45 l 1
 9 69 l 1
 76 94 l 1
 9 118 l 1
110 9 m 1
 9 9 l 1
 9 31 l 1
 110 31 l 1
 110 9 l 1
EndSplineSet
EndChar

StartChar: plusminus
Encoding: 533 177 533
Width: 118
GlyphClass: 1
Flags: HMW
HStem: 9 22<9 110 9 110> 83 22<9 48 9 48 70 110>
VStem: 48 23<45 83 45 83 105 142>
LayerCount: 2
Fore
SplineSet
70 142 m 1
 70 105 l 1
 110 105 l 1
 110 83 l 1
 70 83 l 1
 70 45 l 1
 48 45 l 1
 48 83 l 1
 9 83 l 1
 9 105 l 1
 48 105 l 1
 48 142 l 1
 70 142 l 1
110 9 m 1
 9 9 l 1
 9 31 l 1
 110 31 l 1
 110 9 l 1
EndSplineSet
EndChar

StartChar: approxequal
Encoding: 534 8776 534
Width: 138
GlyphClass: 1
Flags: HMW
HStem: 83 10<30 31 9 52> 86 10<108 109 86 130 108 108>
VStem: 9 121
LayerCount: 2
Fore
SplineSet
9 93 m 1xa0
 31 93 l 1xa0
 30 114 35 123 44 123 c 0
 59 123 74 96 98 96 c 0x60
 120 96 132 113 130 150 c 1
 108 150 l 1
 109 127 104 121 95 121 c 0
 80 121 64 148 40 148 c 0
 18 148 7 130 9 93 c 1xa0
9 28 m 1
 31 28 l 1
 30 49 35 58 44 58 c 0
 59 58 74 31 98 31 c 0
 120 31 132 49 130 86 c 1
 108 86 l 1x60
 109 63 104 56 95 56 c 0
 80 56 64 83 40 83 c 0
 18 83 7 65 9 28 c 1
EndSplineSet
EndChar

StartChar: asciitilde
Encoding: 535 126 535
Width: 138
GlyphClass: 1
Flags: HMW
HStem: 61 57
VStem: 9 121
LayerCount: 2
Fore
SplineSet
9 61 m 1
 31 61 l 1
 30 82 35 90 44 90 c 0
 59 90 74 63 98 63 c 0
 120 63 132 81 130 118 c 1
 108 118 l 1
 109 95 104 89 95 89 c 0
 80 89 64 115 40 115 c 0
 18 115 7 98 9 61 c 1
EndSplineSet
EndChar

StartChar: logicalnot
Encoding: 536 172 536
Width: 118
GlyphClass: 1
Flags: HMW
HStem: 78 22<9 87 9 110>
VStem: 87 22<39 78 78 78>
LayerCount: 2
Fore
SplineSet
87 78 m 1
 9 78 l 1
 9 101 l 1
 110 101 l 1
 110 39 l 1
 87 39 l 1
 87 78 l 1
EndSplineSet
EndChar

StartChar: asciicircum
Encoding: 537 94 537
Width: 117
GlyphClass: 1
Flags: HMW
HStem: 174 5G<48 70 70 70>
VStem: 6 105<89 89>
LayerCount: 2
Fore
SplineSet
70 179 m 1
 111 89 l 1
 86 89 l 1
 59 150 l 1
 31 89 l 1
 6 89 l 1
 48 179 l 1
 70 179 l 1
EndSplineSet
EndChar

StartChar: infinity
Encoding: 538 8734 538
Width: 205
GlyphClass: 1
Flags: HMW
HStem: 38 23<50 66 50 68 139 155> 118 23<50 66 139 155>
VStem: 9 24<82 98 82 103> 173 24<81 98>
LayerCount: 2
Fore
SplineSet
147 141 m 0
 181 141 197 115 197 89 c 0
 197 63 179 38 147 38 c 0
 128 38 113 45 103 64 c 1
 93 46 78 38 58 38 c 0
 24 38 9 64 9 90 c 0
 9 116 24 141 58 141 c 0
 77 141 93 135 103 116 c 1
 114 135 129 141 147 141 c 0
58 61 m 0
 74 61 83 71 88 83 c 2
 91 90 l 1
 88 95 l 1
 82 107 74 118 59 118 c 0
 42 118 33 106 33 90 c 0
 33 74 41 61 58 61 c 0
147 61 m 0
 163 61 173 73 173 89 c 0
 173 105 164 118 147 118 c 0
 132 118 123 108 118 96 c 2
 115 90 l 1
 118 84 l 2
 123 73 131 61 147 61 c 0
EndSplineSet
EndChar

StartChar: integral
Encoding: 539 8747 539
Width: 120
GlyphClass: 1
Flags: HMW
HStem: -28 25<12 20 12 27> 157 25<95 104 88 106> 175 5G<118 118>
VStem: 3 115
LayerCount: 2
Fore
SplineSet
15 -28 m 0xd0
 9 -28 6 -28 3 -27 c 1
 3 -3 l 1
 6 -4 10 -4 14 -4 c 0
 26 -4 36 5 38 24 c 2
 51 134 l 2
 55 168 74 182 102 182 c 0xd0
 107 182 113 181 118 180 c 1xb0
 118 156 l 1
 113 157 109 157 104 157 c 0
 87 157 79 148 76 128 c 2
 63 22 l 2
 59 -13 38 -28 15 -28 c 0xd0
EndSplineSet
EndChar

StartChar: uni2126
Encoding: 540 8486 540
Width: 187
GlyphClass: 1
Flags: HMW
HStem: 0 25<6 42 6 82 6 42 146 182> 156 25<77 111>
VStem: 6 76<0 25 25 25> 14 27<81 113 77 120> 42 39 106 39 106 76<0 25 0 25 0 25> 147 27<81 113>
LayerCount: 2
Fore
SplineSet
82 0 m 1xe1
 6 0 l 1
 6 25 l 1xe1
 42 25 l 1xc9
 43 29 l 1
 24 42 14 67 14 93 c 0
 14 145 44 182 94 182 c 0
 144 182 174 145 174 93 c 0xd1
 174 67 164 42 145 29 c 1
 146 25 l 1xd4
 182 25 l 1
 182 0 l 1
 106 0 l 1xd2
 106 25 l 1
 131 36 147 59 147 93 c 0
 147 132 129 156 94 156 c 0
 60 156 40 132 40 93 c 0xd1
 40 59 57 36 82 25 c 1
 82 0 l 1xe1
EndSplineSet
EndChar

StartChar: uni2206
Encoding: 541 8710 541
Width: 162
GlyphClass: 1
Flags: HMW
HStem: 0 24<30 132 4 4> 151 29<80 83 80 80>
VStem: 4 26<0 24 24 24> 132 26<0 24>
LayerCount: 2
Fore
SplineSet
65 179 m 1
 97 179 l 1
 159 24 l 1
 159 0 l 1
 4 0 l 1
 4 24 l 1
 65 179 l 1
83 151 m 1
 80 151 l 1
 30 24 l 1
 132 24 l 1
 83 151 l 1
EndSplineSet
EndChar

StartChar: product
Encoding: 542 8719 542
Width: 167
GlyphClass: 1
Flags: HMW
HStem: 155 24<13 33 13 155 59 59 59 109 135 135 135 155>
VStem: 33 25<-26 155> 109 25<-26 155 -26 155>
LayerCount: 2
Fore
SplineSet
59 -26 m 1
 33 -26 l 1
 33 155 l 1
 13 155 l 1
 13 179 l 1
 155 179 l 1
 155 155 l 1
 135 155 l 1
 135 -26 l 1
 109 -26 l 1
 109 155 l 1
 59 155 l 1
 59 -26 l 1
EndSplineSet
EndChar

StartChar: summation
Encoding: 543 8721 543
Width: 129
GlyphClass: 1
Flags: HMW
HStem: -26 26<43 121 43 121> 154 25<45 121 45 45>
VStem: 11 33<1 4 4 4> 11 34<151 154 151 179 151 179>
LayerCount: 2
Fore
SplineSet
121 179 m 1xe0
 121 154 l 1
 45 154 l 1
 45 151 l 1xd0
 103 79 l 1
 103 75 l 1
 43 4 l 1
 43 1 l 1
 121 1 l 1
 121 -26 l 1
 11 -26 l 1
 11 4 l 1xe0
 71 76 l 1
 11 151 l 1
 11 179 l 1xd0
 121 179 l 1xe0
EndSplineSet
EndChar

StartChar: radical
Encoding: 544 8730 544
Width: 162
GlyphClass: 1
Flags: HMW
HStem: -26 35<57 60 57 74 43 60> 154 25<137 160 137 137>
VStem: 5 155<89 179>
LayerCount: 2
Fore
SplineSet
117 179 m 1
 160 179 l 1
 160 154 l 1
 137 154 l 1
 74 -26 l 1
 43 -26 l 1
 5 89 l 1
 32 89 l 1
 57 9 l 1
 60 9 l 1
 117 179 l 1
EndSplineSet
EndChar

StartChar: uni00B5
Encoding: 545 181 545
Width: 150
GlyphClass: 2
Flags: HMW
HStem: -49 5G<18 42 18 18> -3 23<62 73> 0 5G<107 132 107 107> 129 5G<18 42 42 42 107 132 132 132>
VStem: 18 25<-49 2 42 54 54 134> 107 25<0 21 21 21 43 134 0 134>
AnchorPoint: "Anchor-3" 107 134 basechar 0
AnchorPoint: "Anchor-2" 132 0 basechar 0
AnchorPoint: "Anchor-1" 75 134 basechar 0
AnchorPoint: "Anchor-0" 75 0 basechar 0
LayerCount: 2
Fore
SplineSet
107 43 m 1xdc
 107 134 l 1
 132 134 l 1
 132 0 l 1
 107 0 l 1
 107 21 l 1xbc
 104 22 l 1
 97 7 83 -3 64 -3 c 0
 56 -3 48 -1 42 2 c 1
 42 -49 l 1
 18 -49 l 1
 18 134 l 1
 42 134 l 1
 42 54 l 2
 42 30 53 20 71 20 c 0
 87 20 99 29 107 43 c 1xdc
EndSplineSet
EndChar

StartChar: partialdiff
Encoding: 546 8706 546
Width: 151
GlyphClass: 1
Flags: HMW
HStem: -3 23<63 87 63 95> 113 23<62 80 54 87>
VStem: 11 25<53 81 53 88> 114 27<53 81>
LayerCount: 2
Fore
SplineSet
75 -3 m 0
 35 -3 11 25 11 67 c 0
 11 109 35 137 74 137 c 0
 86 137 97 133 105 124 c 1
 109 126 l 1
 101 153 70 172 29 176 c 1
 34 199 l 1
 102 190 141 153 141 81 c 0
 141 26 115 -3 75 -3 c 0
75 21 m 0
 100 21 114 39 114 67 c 0
 114 95 100 113 75 113 c 0
 50 113 36 95 36 67 c 0
 36 39 50 21 75 21 c 0
EndSplineSet
EndChar

StartChar: percent
Encoding: 547 37 547
Width: 219
GlyphClass: 1
Flags: HMW
HStem: -3 19<161 176 161 182> 0 5G<55 77 55 55> 79 20<161 176> 80 20<44 59 44 66> 162 19<44 59> 174 5G<143 166 166 166>
VStem: 8 20<122 141 122 146> 74 20<121 141> 125 20<39 58 39 63> 191 21<39 58>
LayerCount: 2
Fore
SplineSet
52 80 m 0x9bc0
 24 80 8 102 8 131 c 0
 8 160 24 182 52 182 c 0
 80 182 95 160 95 131 c 0
 95 102 80 80 52 80 c 0x9bc0
77 0 m 1x57c0
 55 0 l 1
 143 179 l 1
 166 179 l 1
 77 0 l 1x57c0
52 100 m 0
 67 100 74 112 74 131 c 0
 74 150 67 162 52 162 c 0x9bc0
 36 162 29 150 29 131 c 0
 29 112 36 100 52 100 c 0
168 -3 m 0xabc0
 140 -3 125 19 125 48 c 0
 125 77 140 99 168 99 c 0
 196 99 212 77 212 48 c 0
 212 19 196 -3 168 -3 c 0xabc0
168 17 m 0
 184 17 191 29 191 48 c 0
 191 67 184 79 168 79 c 0
 153 79 146 67 146 48 c 0
 146 29 153 17 168 17 c 0
EndSplineSet
EndChar

StartChar: perthousand
Encoding: 548 8240 548
Width: 317
GlyphClass: 1
Flags: HMW
HStem: -3 19<161 176 161 182 259 274> 0 5G<55 77 55 55> 79 20<161 176 259 274> 80 20<44 59 44 66> 162 19<44 59> 174 5G<143 166 166 166>
VStem: 8 20<122 141 122 146> 74 20<121 141> 125 20<39 58 39 63> 191 21<39 58> 223 20<39 58 39 63> 289 20<39 58>
LayerCount: 2
Fore
SplineSet
52 80 m 0x5b
 24 80 8 102 8 131 c 0
 8 160 24 182 52 182 c 0
 80 182 95 160 95 131 c 0
 95 102 80 80 52 80 c 0x5b
77 0 m 1
 55 0 l 1
 143 179 l 1
 166 179 l 1x57
 77 0 l 1
52 100 m 0
 67 100 74 112 74 131 c 0
 74 150 67 162 52 162 c 0x0b
 36 162 29 150 29 131 c 0
 29 112 36 100 52 100 c 0
168 -3 m 0xa0f0
 140 -3 125 19 125 48 c 0
 125 77 140 99 168 99 c 0
 196 99 212 77 212 48 c 0
 212 19 196 -3 168 -3 c 0xa0f0
266 -3 m 0
 238 -3 223 19 223 48 c 0
 223 77 238 99 266 99 c 0
 294 99 310 77 310 48 c 0
 310 19 294 -3 266 -3 c 0
168 17 m 0
 184 17 191 29 191 48 c 0
 191 67 184 79 168 79 c 0
 153 79 146 67 146 48 c 0
 146 29 153 17 168 17 c 0
266 17 m 0
 282 17 289 29 289 48 c 0
 289 67 282 79 266 79 c 0
 251 79 243 67 243 48 c 0
 243 29 251 17 266 17 c 0
EndSplineSet
EndChar

StartChar: arrowup
Encoding: 549 8593 549
Width: 138
GlyphClass: 1
Flags: HMW
HStem: 0 5G<56 82 56 56> 174 5G<69 69>
VStem: 56 26<0 132 0 132>
LayerCount: 2
Fore
SplineSet
69 179 m 1
 133 115 l 1
 133 81 l 1
 82 132 l 1
 82 0 l 1
 56 0 l 1
 56 132 l 1
 5 81 l 1
 5 115 l 1
 69 179 l 1
EndSplineSet
EndChar

StartChar: arrowright
Encoding: 550 8594 550
Width: 186
GlyphClass: 1
Flags: HMW
HStem: 77 26<5 137 5 137>
VStem: 5 179<90 90 90 103 90 103>
LayerCount: 2
Fore
SplineSet
86 154 m 1
 120 154 l 1
 184 90 l 1
 120 26 l 1
 86 26 l 1
 137 77 l 1
 5 77 l 1
 5 103 l 1
 137 103 l 1
 86 154 l 1
EndSplineSet
EndChar

StartChar: arrowdown
Encoding: 551 8595 551
Width: 138
GlyphClass: 1
Flags: HMW
HStem: 0 5G<69 69> 174 5G<56 82 82 82>
VStem: 56 26<48 179 48 179>
LayerCount: 2
Fore
SplineSet
82 179 m 1
 82 48 l 1
 133 99 l 1
 133 64 l 1
 69 0 l 1
 5 64 l 1
 5 99 l 1
 56 48 l 1
 56 179 l 1
 82 179 l 1
EndSplineSet
EndChar

StartChar: arrowleft
Encoding: 552 8592 552
Width: 186
GlyphClass: 1
Flags: HMW
HStem: 76 26<50 182 50 182>
VStem: 3 179<89 89>
LayerCount: 2
Fore
SplineSet
50 102 m 1
 182 102 l 1
 182 76 l 1
 50 76 l 1
 101 25 l 1
 67 25 l 1
 3 89 l 1
 67 153 l 1
 101 153 l 1
 50 102 l 1
EndSplineSet
EndChar

StartChar: uni25C6
Encoding: 553 9670 553
Width: 193
GlyphClass: 1
Flags: HMW
HStem: 0 5G<97 97> 174 5G<97 97>
VStem: 7 179<90 90>
LayerCount: 2
Fore
SplineSet
97 0 m 1
 7 90 l 1
 97 179 l 1
 186 90 l 1
 97 0 l 1
EndSplineSet
EndChar

StartChar: lozenge
Encoding: 554 9674 554
Width: 157
GlyphClass: 1
Flags: HMW
HStem: 0 26<77 80 77 95 62 80> 154 25<77 80 77 77>
VStem: 10 137<89 89>
LayerCount: 2
Fore
SplineSet
62 179 m 1
 95 179 l 1
 147 89 l 1
 95 0 l 1
 62 0 l 1
 10 89 l 1
 62 179 l 1
77 26 m 1
 80 26 l 1
 118 89 l 1
 80 154 l 1
 77 154 l 1
 39 89 l 1
 77 26 l 1
EndSplineSet
EndChar

StartChar: filledbox
Encoding: 555 9632 555
Width: 221
GlyphClass: 1
Flags: HMW
HStem: 0 5G<21 200 21 21> 174 5G<21 200 200 200>
VStem: 21 179<0 179>
LayerCount: 2
Fore
SplineSet
200 0 m 1
 21 0 l 1
 21 179 l 1
 200 179 l 1
 200 0 l 1
EndSplineSet
EndChar

StartChar: triagup
Encoding: 556 9650 556
Width: 186
GlyphClass: 1
Flags: HMW
HStem: 0 5G<4 183 4 4> 174 5G<93 93>
VStem: 4 179<0 0>
LayerCount: 2
Fore
SplineSet
183 0 m 1
 4 0 l 1
 93 179 l 1
 183 0 l 1
EndSplineSet
EndChar

StartChar: uni25B6
Encoding: 557 9654 557
Width: 203
GlyphClass: 1
Flags: HMW
HStem: 0 5G<21 21> 174 5G<21 21>
VStem: 21 179<90 90 90 179 90 179>
LayerCount: 2
Fore
SplineSet
21 0 m 1
 21 179 l 1
 200 90 l 1
 21 0 l 1
EndSplineSet
EndChar

StartChar: triagdn
Encoding: 558 9660 558
Width: 186
GlyphClass: 1
Flags: HMW
HStem: 0 5G<93 93> 174 5G<4 183 183 183>
VStem: 4 179<179 179>
LayerCount: 2
Fore
SplineSet
93 0 m 1
 4 179 l 1
 183 179 l 1
 93 0 l 1
EndSplineSet
EndChar

StartChar: uni25C0
Encoding: 559 9664 559
Width: 203
GlyphClass: 1
Flags: HMW
HStem: -0 5G<183 183> 174 5G<183 183>
VStem: 4 179<90 90>
LayerCount: 2
Fore
SplineSet
183 179 m 1
 183 -0 l 1
 4 90 l 1
 183 179 l 1
EndSplineSet
EndChar

StartChar: uni25B3
Encoding: 560 9651 560
Width: 186
GlyphClass: 1
Flags: HMW
HStem: 0 24<43 143 43 183> 174 5G<93 93>
VStem: 4 179<0 0>
LayerCount: 2
Fore
SplineSet
4 0 m 1
 93 179 l 1
 183 0 l 1
 4 0 l 1
43 24 m 1
 143 24 l 1
 93 124 l 1
 43 24 l 1
EndSplineSet
EndChar

StartChar: uni25B7
Encoding: 561 9655 561
Width: 203
GlyphClass: 1
Flags: HMW
HStem: 0 5G<21 21> 174 5G<21 21>
VStem: 21 24<40 40 40 140>
LayerCount: 2
Fore
SplineSet
21 0 m 1
 21 179 l 1
 200 90 l 1
 21 0 l 1
45 40 m 1
 145 90 l 1
 45 140 l 1
 45 40 l 1
EndSplineSet
EndChar

StartChar: uni25BD
Encoding: 562 9661 562
Width: 186
GlyphClass: 1
Flags: HMW
HStem: 0 5G<93 93> 155 24<43 143 43 43>
VStem: 4 179<179 179>
LayerCount: 2
Fore
SplineSet
93 0 m 1
 4 179 l 1
 183 179 l 1
 93 0 l 1
93 55 m 1
 143 155 l 1
 43 155 l 1
 93 55 l 1
EndSplineSet
EndChar

StartChar: uni25C1
Encoding: 563 9665 563
Width: 203
GlyphClass: 1
Flags: HMW
HStem: -0 5G<183 183> 174 5G<183 183>
VStem: 159 24<39 140 140 140>
LayerCount: 2
Fore
SplineSet
183 -0 m 1
 4 90 l 1
 183 179 l 1
 183 -0 l 1
58 90 m 1
 159 39 l 1
 159 140 l 1
 58 90 l 1
EndSplineSet
EndChar

StartChar: at
Encoding: 564 64 564
Width: 221
GlyphClass: 1
Flags: HMW
HStem: -28 22<84 115 84 115> 21 20<166 174 166 181> 21 21<99 109> 108 19 108 21<103 112 92 116> 160 22<93 134>
VStem: 9 24<47 101 47 106> 58 24<63 84 63 89> 137 23<60 97 97 97 118 127> 188 23<71 113>
LayerCount: 2
Fore
SplineSet
105 -28 m 0xafc0
 54 -28 9 4 9 71 c 0
 9 141 57 182 115 182 c 0
 170 182 212 149 212 88 c 0
 212 49 193 21 167 21 c 0
 151 21 140 29 137 38 c 1xcfc0
 134 38 l 1
 128 29 117 21 102 21 c 0
 76 21 58 41 58 73 c 0
 58 107 78 129 105 129 c 0
 119 129 129 124 134 117 c 1
 137 118 l 1xafc0
 137 127 l 1
 159 127 l 1
 159 57 l 2
 159 46 162 42 169 42 c 0xd7c0
 179 42 188 56 188 88 c 0
 188 139 154 160 115 160 c 0
 72 160 33 131 33 71 c 0
 33 22 64 -7 105 -7 c 0
 125 -7 143 -3 156 4 c 1
 156 -18 l 1
 139 -25 125 -28 105 -28 c 0xafc0
108 42 m 0
 120 42 130 50 137 60 c 1
 137 97 l 1
 130 104 121 108 111 108 c 0
 94 108 81 96 81 73 c 0
 81 53 92 42 108 42 c 0
EndSplineSet
EndChar

StartChar: ampersand
Encoding: 565 38 565
Width: 178
GlyphClass: 1
Flags: HMW
HStem: -3 24<63 79 63 82> 0 5G<137 174 137 137> 0 33<141 141 141 174 137 141> 157 25<68 82>
VStem: 9 27<45 61 45 63> 26 26<130 142> 37 15
LayerCount: 2
Fore
SplineSet
72 -3 m 0x98
 35 -3 9 19 9 52 c 0x98
 9 73 20 92 37 102 c 1
 37 105 l 1x92
 30 113 26 124 26 136 c 0
 26 162 44 182 76 182 c 0
 99 182 119 172 133 156 c 1
 115 137 l 1
 102 151 89 157 76 157 c 0
 60 157 52 148 52 135 c 0
 52 118 68 105 86 88 c 2
 119 55 l 1
 123 55 l 1
 131 67 136 84 140 103 c 1
 165 99 l 1
 160 74 152 52 141 36 c 1
 141 33 l 1x34
 174 0 l 1
 137 0 l 1
 123 15 l 1x58
 119 15 l 1
 107 4 92 -3 72 -3 c 0x98
73 22 m 0
 86 22 96 26 102 32 c 1
 102 35 l 1
 52 86 l 1
 49 86 l 1
 41 78 36 68 36 55 c 0
 36 35 53 22 73 22 c 0
EndSplineSet
EndChar

StartChar: paragraph
Encoding: 566 182 566
Width: 146
GlyphClass: 1
Flags: HMW
HStem: 0 5G<58 83 58 58 100 100 100 125> 174 5G<58 83 83 83 100 125 125 125>
VStem: 58 25<0 89 89 89> 100 25<0 179>
LayerCount: 2
Fore
SplineSet
83 0 m 1
 58 0 l 1
 58 89 l 1
 29 89 9 104 9 134 c 0
 9 164 28 179 58 179 c 2
 83 179 l 1
 83 0 l 1
125 0 m 1
 100 0 l 1
 100 179 l 1
 125 179 l 1
 125 0 l 1
EndSplineSet
EndChar

StartChar: section
Encoding: 567 167 567
Width: 144
GlyphClass: 1
Flags: HMW
HStem: -51 25<65 81 65 89> 157 25<61 78>
VStem: 9 27<68 79 68 80> 15 26<131 143 131 150> 102 26<-12 0> 106 27<52 62>
LayerCount: 2
Fore
SplineSet
72 -51 m 0xd8
 48 -51 28 -42 14 -28 c 1
 30 -8 l 1
 43 -21 57 -27 72 -27 c 0
 91 -27 102 -18 102 -6 c 0
 102 6 93 12 77 17 c 2
 55 24 l 2
 26 33 9 46 9 72 c 0xe8
 9 87 15 99 24 108 c 1
 18 115 15 123 15 135 c 0
 15 164 36 182 70 182 c 0
 95 182 115 172 129 158 c 1
 113 139 l 1
 100 152 86 157 71 157 c 0
 52 157 41 148 41 136 c 0
 41 124 50 119 66 114 c 2
 88 107 l 2
 117 98 133 84 133 58 c 0xd4
 133 43 127 32 118 23 c 1
 124 16 128 7 128 -5 c 0
 128 -34 106 -51 72 -51 c 0xd8
65 48 m 2
 86 41 l 2
 91 39 95 38 99 36 c 1
 104 41 106 48 106 56 c 0
 106 70 98 77 78 83 c 2
 56 89 l 2
 51 91 48 92 44 94 c 1
 39 89 36 83 36 75 c 0xe4
 36 61 45 54 65 48 c 2
EndSplineSet
EndChar

StartChar: copyright
Encoding: 568 169 568
Width: 205
GlyphClass: 1
Flags: HMW
HStem: -3 22<81 124 81 131> 40 19<95 107 95 109> 121 19<95 107> 161 21<81 124>
VStem: 10 23<68 111 68 116> 58 20<80 100 80 104> 172 23<68 111>
LayerCount: 2
Fore
SplineSet
103 -3 m 0
 47 -3 10 36 10 90 c 0
 10 144 47 182 103 182 c 0
 159 182 195 144 195 90 c 0
 195 36 159 -3 103 -3 c 0
103 19 m 0
 146 19 172 48 172 90 c 0
 172 132 146 161 103 161 c 0
 59 161 33 132 33 90 c 0
 33 48 59 19 103 19 c 0
102 40 m 0
 75 40 58 61 58 90 c 0
 58 119 75 139 102 139 c 0
 116 139 129 135 137 125 c 1
 124 111 l 1
 118 118 111 121 102 121 c 0
 86 121 78 110 78 90 c 0
 78 70 86 59 102 59 c 0
 111 59 118 61 124 68 c 1
 137 55 l 1
 129 45 115 40 102 40 c 0
EndSplineSet
EndChar

StartChar: registered
Encoding: 569 174 569
Width: 142
GlyphClass: 1
Flags: HMW
HStem: 59 16<57 85 57 90> 113 10<62 69 62 72> 140 10<62 72 62 62> 166 16<57 85>
VStem: 10 17<107 134 107 138> 51 12<92 113 92 123 123 140> 82 12<129 134> 116 17<107 134>
LayerCount: 2
Fore
SplineSet
71 182 m 0
 108 182 133 156 133 120 c 0
 133 84 108 59 71 59 c 0
 34 59 10 84 10 120 c 0
 10 156 34 182 71 182 c 0
71 75 m 0
 99 75 116 93 116 120 c 0
 116 147 99 166 71 166 c 0
 43 166 27 147 27 120 c 0
 27 93 43 75 71 75 c 0
82 114 m 1
 82 113 l 1
 97 92 l 1
 83 92 l 1
 69 113 l 1
 62 113 l 1
 62 92 l 1
 51 92 l 1
 51 150 l 1
 74 150 l 2
 86 150 94 145 94 132 c 0
 94 124 89 117 82 114 c 1
72 140 m 2
 62 140 l 1
 62 123 l 1
 72 123 l 2
 79 123 82 127 82 132 c 0
 82 137 79 140 72 140 c 2
EndSplineSet
EndChar

StartChar: uni2117
Encoding: 570 8471 570
Width: 142
GlyphClass: 1
Flags: HMW
HStem: 59 16<57 85 57 90> 114 10<64 73 73 75 64 73> 140 10<64 64 64 73> 166 16<57 85>
VStem: 10 17<107 134 107 138> 52 12<92 114 124 140> 84 12<130 135> 116 17<107 134>
LayerCount: 2
Fore
SplineSet
71 59 m 0
 34 59 10 84 10 120 c 0
 10 156 34 182 71 182 c 0
 108 182 133 156 133 120 c 0
 133 84 108 59 71 59 c 0
71 75 m 0
 99 75 116 93 116 120 c 0
 116 147 99 166 71 166 c 0
 43 166 27 147 27 120 c 0
 27 93 43 75 71 75 c 0
64 92 m 1
 52 92 l 1
 52 150 l 1
 75 150 l 2
 87 150 95 144 95 132 c 0
 95 121 87 114 75 114 c 2
 64 114 l 1
 64 92 l 1
64 140 m 1
 64 124 l 1
 73 124 l 2
 80 124 84 127 84 132 c 0
 84 137 80 140 73 140 c 2
 64 140 l 1
EndSplineSet
EndChar

StartChar: trademark
Encoding: 571 8482 571
Width: 194
GlyphClass: 1
Flags: HMW
HStem: 89 18<126 138 136 138 136 148> 164 15<5 31 5 75 48 75 48 48>
VStem: 5 44<89 179 89 179> 31 17<89 164 89 164> 31 44<89 179 164 179> 88 16<89 156 89 179> 171 16<89 156 156 156>
LayerCount: 2
Fore
SplineSet
5 179 m 1x66
 75 179 l 1
 75 164 l 1xce
 48 164 l 1
 48 89 l 1
 31 89 l 1
 31 164 l 1x56
 5 164 l 1
 5 179 l 1x66
138 107 m 1
 161 179 l 1
 187 179 l 1
 187 89 l 1
 171 89 l 1
 171 156 l 1
 169 156 l 1
 148 89 l 1
 126 89 l 1
 105 156 l 1
 103 156 l 1
 103 89 l 1
 88 89 l 1
 88 179 l 1
 113 179 l 1
 136 107 l 1
 138 107 l 1
EndSplineSet
EndChar

StartChar: degree
Encoding: 572 176 572
Width: 95
GlyphClass: 1
Flags: HMW
HStem: 104 19<41 54 41 60> 162 19<41 54>
VStem: 8 20<138 148 138 153> 68 20<138 148>
LayerCount: 2
Fore
SplineSet
48 104 m 0
 23 104 8 122 8 143 c 0
 8 164 23 182 48 182 c 0
 73 182 88 164 88 143 c 0
 88 122 73 104 48 104 c 0
48 123 m 0
 61 123 68 133 68 143 c 0
 68 153 61 162 48 162 c 0
 36 162 28 153 28 143 c 0
 28 133 36 123 48 123 c 0
EndSplineSet
EndChar

StartChar: minute
Encoding: 573 8242 573
Width: 61
GlyphClass: 1
Flags: HMW
HStem: 174 5G<27 57 57 57>
VStem: 12 45
LayerCount: 2
Fore
SplineSet
37 97 m 1
 12 97 l 1
 27 179 l 1
 57 179 l 1
 37 97 l 1
EndSplineSet
EndChar

StartChar: second
Encoding: 574 8243 574
Width: 105
GlyphClass: 1
Flags: HMW
HStem: 97 82<27 37 12 57 56 56 56 57 72 81>
VStem: 12 89<97 179>
LayerCount: 2
Fore
SplineSet
37 97 m 1
 12 97 l 1
 27 179 l 1
 57 179 l 1
 37 97 l 1
81 97 m 1
 56 97 l 1
 72 179 l 1
 101 179 l 1
 81 97 l 1
EndSplineSet
EndChar

StartChar: bar
Encoding: 575 124 575
Width: 68
GlyphClass: 1
Flags: HMW
HStem: -26 230<21 47 21 47>
VStem: 21 26<-26 205>
LayerCount: 2
Fore
SplineSet
47 -26 m 1
 21 -26 l 1
 21 205 l 1
 47 205 l 1
 47 -26 l 1
EndSplineSet
EndChar

StartChar: brokenbar
Encoding: 576 166 576
Width: 68
GlyphClass: 1
Flags: HMW
HStem: -26 230<21 47 21 47>
VStem: 21 26<-26 64 115 205>
LayerCount: 2
Fore
SplineSet
47 115 m 1
 21 115 l 1
 21 205 l 1
 47 205 l 1
 47 115 l 1
47 -26 m 1
 21 -26 l 1
 21 64 l 1
 47 64 l 1
 47 -26 l 1
EndSplineSet
EndChar

StartChar: dagger
Encoding: 577 8224 577
Width: 97
GlyphClass: 1
Flags: HMW
HStem: 151 24<3 36 3 36 62 94>
VStem: 36 26<66 151 66 151 176 205>
LayerCount: 2
Fore
SplineSet
62 176 m 1
 94 176 l 1
 94 151 l 1
 62 151 l 1
 62 66 l 1
 36 66 l 1
 36 151 l 1
 3 151 l 1
 3 176 l 1
 36 176 l 1
 36 205 l 1
 62 205 l 1
 62 176 l 1
EndSplineSet
EndChar

StartChar: uni2113
Encoding: 578 8467 578
Width: 121
GlyphClass: 1
Flags: HMW
HStem: -3 24<58 67 58 69> 157 25<61 73>
VStem: 24 26<37 38 38 45 45 45 79 133> 85 25<121 141>
LayerCount: 2
Fore
SplineSet
61 -3 m 0
 36 -3 24 14 24 37 c 2
 24 45 l 1
 18 43 10 42 3 40 c 1
 3 64 l 1
 10 66 18 67 24 69 c 1
 24 134 l 2
 24 164 41 182 67 182 c 0
 95 182 110 163 110 135 c 0
 110 103 95 73 50 54 c 1
 50 38 l 2
 50 28 54 22 63 22 c 0
 70 22 76 27 84 35 c 1
 103 19 l 1
 91 4 76 -3 61 -3 c 0
50 133 m 2
 50 79 l 1
 75 91 85 108 85 133 c 0
 85 148 78 157 67 157 c 0
 55 157 50 149 50 133 c 2
EndSplineSet
EndChar

StartChar: daggerdbl
Encoding: 579 8225 579
Width: 102
GlyphClass: 1
Flags: HMW
HStem: 95 24<6 38 6 38 65 97> 151 24<6 38 6 38 65 97>
VStem: 38 26<66 95 66 95 119 151 176 205>
LayerCount: 2
Fore
SplineSet
97 176 m 1
 97 151 l 1
 65 151 l 1
 65 119 l 1
 97 119 l 1
 97 95 l 1
 65 95 l 1
 65 66 l 1
 38 66 l 1
 38 95 l 1
 6 95 l 1
 6 119 l 1
 38 119 l 1
 38 151 l 1
 6 151 l 1
 6 176 l 1
 38 176 l 1
 38 205 l 1
 65 205 l 1
 65 176 l 1
 97 176 l 1
EndSplineSet
EndChar

StartChar: estimated
Encoding: 580 8494 580
Width: 206
GlyphClass: 1
Flags: HMW
HStem: -3 12<92 120 92 123> 89 12<44 163 44 197 44 163> 170 12<92 115>
VStem: 10 34<64 89 35 100 100 115> 163 34<100 114 89 144 89 144>
LayerCount: 2
Fore
SplineSet
103 9 m 0
 136 9 164 29 177 57 c 1
 190 57 l 1
 176 22 142 -3 103 -3 c 0
 52 -3 10 39 10 90 c 0
 10 141 52 182 103 182 c 0
 154 182 197 141 197 89 c 1
 44 89 l 1
 44 35 l 1
 59 19 79 9 103 9 c 0
103 170 m 0
 79 170 59 160 44 144 c 1
 44 100 l 1
 163 100 l 1
 163 144 l 1
 148 160 127 170 103 170 c 0
EndSplineSet
EndChar

StartChar: uni2120
Encoding: 581 8480 581
Width: 195
GlyphClass: 1
Flags: HMW
HStem: 88 15<37 47 37 51> 89 18<127 139 137 139 137 149> 156 23<104 104 104 106 170 170 170 172> 166 15<35 43>
VStem: 9 16<153 159 153 163> 58 16<111 118> 89 15<89 156 89 179> 172 15<89 156 156 156>
LayerCount: 2
Fore
SplineSet
42 88 m 0x9f
 27 88 14 94 7 102 c 1
 17 114 l 1
 23 107 32 103 42 103 c 0
 52 103 58 107 58 115 c 0
 58 122 52 125 44 127 c 2
 29 132 l 2
 17 136 9 143 9 155 c 0
 9 171 21 181 39 181 c 0
 54 181 65 175 72 168 c 1
 63 157 l 1
 56 163 47 166 40 166 c 0
 31 166 25 162 25 156 c 0
 25 150 29 147 39 144 c 2
 53 140 l 2
 65 136 74 130 74 116 c 0
 74 98 60 88 42 88 c 0x9f
104 156 m 1x6f
 104 89 l 1
 89 89 l 1
 89 179 l 1
 114 179 l 1
 137 107 l 1
 139 107 l 1
 162 179 l 1
 187 179 l 1
 187 89 l 1
 172 89 l 1
 172 156 l 1
 170 156 l 1
 149 89 l 1
 127 89 l 1
 106 156 l 1
 104 156 l 1x6f
EndSplineSet
EndChar

StartChar: uni02BC
Encoding: 582 700 582
Width: 35
GlyphClass: 1
Flags: HMW
HStem: 133 46<5 27 5 30>
VStem: 5 24
LayerCount: 2
Fore
SplineSet
27 133 m 1
 5 133 l 1
 5 179 l 1
 30 179 l 1
 27 133 l 1
EndSplineSet
EndChar

StartChar: uni02BB
Encoding: 583 699 583
Width: 37
GlyphClass: 1
Flags: HMW
HStem: 157 28<20 33 20 33 5 33> 199 14<30 31 31 33>
VStem: 5 15<185 186 186 187 185 194> 5 28<157 185 157 186 157 194>
LayerCount: 2
Fore
SplineSet
30 213 m 2xd0
 33 213 l 1xd0
 33 199 l 1
 31 199 l 2
 24 199 20 194 20 187 c 2
 20 185 l 1xe0
 33 185 l 1
 33 157 l 1
 5 157 l 1
 5 186 l 2
 5 202 15 213 30 213 c 2xd0
EndSplineSet
EndChar

StartChar: uni02C9
Encoding: 584 713 584
Width: 80
GlyphClass: 1
Flags: HMW
HStem: 160 22<5 75 5 75>
VStem: 5 70<160 182 160 182>
AnchorPoint: "Anchor-9" 40 182 basemark 0
LayerCount: 2
Fore
SplineSet
75 160 m 1
 5 160 l 1
 5 182 l 1
 75 182 l 1
 75 160 l 1
EndSplineSet
EndChar

StartChar: uni02CB
Encoding: 585 715 585
Width: 63
GlyphClass: 1
Flags: HMW
HStem: 151 41<26 58 26 33>
VStem: 5 53<151 176>
AnchorPoint: "Anchor-9" 31 191 basemark 0
LayerCount: 2
Fore
SplineSet
58 151 m 1
 33 151 l 1
 5 176 l 1
 26 191 l 1
 58 151 l 1
EndSplineSet
EndChar

StartChar: uni02BF
Encoding: 586 703 586
Width: 33
GlyphClass: 1
Flags: HMW
HStem: 148 14<26 28 26 28> 179 14<26 28>
VStem: 5 15<168 173 168 177> 5 23<148 177>
LayerCount: 2
Fore
SplineSet
5 171 m 0xd0
 5 184 14 193 28 193 c 1
 28 179 l 1xd0
 23 179 20 176 20 171 c 0xe0
 20 166 23 162 28 162 c 1
 28 148 l 1
 14 148 5 158 5 171 c 0xd0
EndSplineSet
EndChar

StartChar: uni02BE
Encoding: 587 702 587
Width: 33
GlyphClass: 1
Flags: HMW
HStem: 148 14<5 8 5 12> 179 14<5 8>
VStem: 5 23<148 177 162 177 164 193 164 193> 14 15<168 173>
LayerCount: 2
Fore
SplineSet
28 171 m 0xe0
 28 158 19 148 5 148 c 1
 5 162 l 1xe0
 10 162 14 166 14 171 c 0xd0
 14 176 10 179 5 179 c 1
 5 193 l 1
 19 193 28 184 28 171 c 0xe0
EndSplineSet
EndChar

StartChar: uni02CA
Encoding: 588 714 588
Width: 63
GlyphClass: 1
Flags: HMW
HStem: 151 41<5 37 5 37>
VStem: 5 53<151 176>
AnchorPoint: "Anchor-9" 32 191 basemark 0
LayerCount: 2
Fore
SplineSet
58 176 m 5
 30 151 l 5
 5 151 l 5
 37 191 l 5
 58 176 l 5
EndSplineSet
EndChar

StartChar: uni02CC
Encoding: 589 716 589
Width: 37
GlyphClass: 1
Flags: HMW
HStem: -86 65<5 30 8 30 8 33>
VStem: 7 25
LayerCount: 2
Fore
SplineSet
5 -86 m 1
 8 -21 l 1
 30 -21 l 1
 33 -86 l 1
 5 -86 l 1
EndSplineSet
EndChar

StartChar: uni02C8
Encoding: 590 712 590
Width: 37
GlyphClass: 1
Flags: HMW
HStem: 114 65<8 30 8 8>
VStem: 7 25
LayerCount: 2
Fore
SplineSet
30 114 m 1
 8 114 l 1
 5 179 l 1
 33 179 l 1
 30 114 l 1
EndSplineSet
EndChar

StartChar: uni0308
Encoding: 591 776 591
Width: 0
GlyphClass: 4
Flags: HMW
HStem: 158 25<-74 -49 -74 -49 -74 -30 -30 -5>
VStem: -74 25<158 183> -30 25<158 183>
AnchorPoint: "Anchor-11" -40 134 mark 0
AnchorPoint: "Anchor-9" -40 182 basemark 0
AnchorPoint: "Anchor-9" -40 134 mark 0
AnchorPoint: "Anchor-6" -40 134 mark 0
AnchorPoint: "Anchor-1" -40 134 mark 0
LayerCount: 2
Fore
SplineSet
-49 158 m 5
 -74 158 l 5
 -74 183 l 5
 -49 183 l 5
 -49 158 l 5
-5 158 m 5
 -30 158 l 5
 -30 183 l 5
 -5 183 l 5
 -5 158 l 5
EndSplineSet
EndChar

StartChar: uni0308_uni0300
Encoding: 592 -1 592
Width: 0
GlyphClass: 4
Flags: HMW
HStem: 158 25<-74 -49 -74 -49 -74 -30 -30 -5>
VStem: -74 25<158 183> -30 25<158 183>
AnchorPoint: "Anchor-11" -40 134 mark 0
AnchorPoint: "Anchor-9" -40 230 basemark 0
AnchorPoint: "Anchor-9" -40 134 mark 0
AnchorPoint: "Anchor-6" -40 134 mark 0
AnchorPoint: "Anchor-1" -40 134 mark 0
LayerCount: 2
Fore
SplineSet
-76 215 m 1
 -55 230 l 1
 -23 189 l 1
 -48 189 l 1
 -76 215 l 1
-49 158 m 1
 -74 158 l 1
 -74 183 l 1
 -49 183 l 1
 -49 158 l 1
-5 158 m 1
 -30 158 l 1
 -30 183 l 1
 -5 183 l 1
 -5 158 l 1
EndSplineSet
EndChar

StartChar: uni0308_uni0301
Encoding: 593 -1 593
Width: 0
GlyphClass: 4
Flags: HMW
HStem: 158 25<-78 -53 -78 -53 -78 -34 -34 -9>
VStem: -78 25<158 183> -34 25<158 183>
AnchorPoint: "Anchor-11" -44 134 mark 0
AnchorPoint: "Anchor-9" -42 230 basemark 0
AnchorPoint: "Anchor-9" -44 134 mark 0
AnchorPoint: "Anchor-6" -44 134 mark 0
AnchorPoint: "Anchor-1" -44 134 mark 0
LayerCount: 2
Fore
SplineSet
-6 215 m 1
 -33 189 l 1
 -59 189 l 1
 -26 230 l 1
 -6 215 l 1
-53 158 m 1
 -78 158 l 1
 -78 183 l 1
 -53 183 l 1
 -53 158 l 1
-9 158 m 1
 -34 158 l 1
 -34 183 l 1
 -9 183 l 1
 -9 158 l 1
EndSplineSet
EndChar

StartChar: uni0308030C
Encoding: 594 -1 594
Width: 0
GlyphClass: 4
Flags: HMW
HStem: 158 25<-76 -51 -76 -51 -76 -32 -32 -7> 189 17<-41 -41 -41 -29 -54 -41>
VStem: -76 25<158 183> -32 25<158 183>
AnchorPoint: "Anchor-11" -42 134 mark 0
AnchorPoint: "Anchor-9" -42 226 basemark 0
AnchorPoint: "Anchor-9" -42 134 mark 0
AnchorPoint: "Anchor-6" -42 134 mark 0
AnchorPoint: "Anchor-1" -42 134 mark 0
LayerCount: 2
Fore
SplineSet
-29 189 m 1
 -54 189 l 1
 -77 211 l 1
 -62 226 l 1
 -41 206 l 1
 -21 226 l 1
 -6 211 l 1
 -29 189 l 1
-51 158 m 1xb0
 -76 158 l 1
 -76 183 l 1
 -51 183 l 1
 -51 158 l 1xb0
-7 158 m 1
 -32 158 l 1
 -32 183 l 1
 -7 183 l 1
 -7 158 l 1
EndSplineSet
EndChar

StartChar: uni03080304
Encoding: 595 -1 595
Width: 0
GlyphClass: 4
Flags: HMW
HStem: 158 25<-76 -51 -76 -51 -76 -32 -32 -7> 194 22<-77 -7 -77 -7>
VStem: -77 25 -76 25<158 183> -32 25<158 183> -32 25<158 194 183 194>
AnchorPoint: "Anchor-11" -42 134 mark 0
AnchorPoint: "Anchor-9" -42 216 basemark 0
AnchorPoint: "Anchor-9" -42 134 mark 0
AnchorPoint: "Anchor-6" -42 134 mark 0
AnchorPoint: "Anchor-1" -42 134 mark 0
LayerCount: 2
Fore
SplineSet
-7 194 m 1xe4
 -77 194 l 1
 -77 216 l 1
 -7 216 l 1
 -7 194 l 1xe4
-51 158 m 1xd8
 -76 158 l 1
 -76 183 l 1
 -51 183 l 1
 -51 158 l 1xd8
-7 158 m 1
 -32 158 l 1
 -32 183 l 1
 -7 183 l 1
 -7 158 l 1
EndSplineSet
EndChar

StartChar: uni0307
Encoding: 596 775 596
Width: 0
GlyphClass: 4
Flags: HMW
HStem: 158 26<-31 -5 -31 -5>
VStem: -31 26<158 184>
AnchorPoint: "Anchor-11" -18 134 mark 0
AnchorPoint: "Anchor-9" -18 184 basemark 0
AnchorPoint: "Anchor-9" -18 134 mark 0
AnchorPoint: "Anchor-6" -18 134 mark 0
AnchorPoint: "Anchor-1" -18 134 mark 0
LayerCount: 2
Fore
SplineSet
-5 158 m 1
 -31 158 l 1
 -31 184 l 1
 -5 184 l 1
 -5 158 l 1
EndSplineSet
EndChar

StartChar: gravecomb
Encoding: 597 768 597
Width: 0
GlyphClass: 4
Flags: HMW
HStem: 151 41<-37 -5 -37 -30>
VStem: -58 53<151 176>
AnchorPoint: "Anchor-11" -18 134 mark 0
AnchorPoint: "Anchor-9" -31 191 basemark 0
AnchorPoint: "Anchor-9" -18 134 mark 0
AnchorPoint: "Anchor-6" -18 134 mark 0
AnchorPoint: "Anchor-1" -18 134 mark 0
LayerCount: 2
Fore
SplineSet
-5 151 m 1
 -30 151 l 1
 -58 176 l 1
 -37 191 l 1
 -5 151 l 1
EndSplineSet
EndChar

StartChar: acutecomb
Encoding: 598 769 598
Width: 0
GlyphClass: 4
Flags: HMW
HStem: 151 41<-58 -26 -58 -26>
VStem: -58 53<151 176>
AnchorPoint: "Anchor-11" -45 134 mark 0
AnchorPoint: "Anchor-9" -31 191 basemark 0
AnchorPoint: "Anchor-9" -45 134 mark 0
AnchorPoint: "Anchor-6" -45 134 mark 0
AnchorPoint: "Anchor-1" -45 134 mark 0
LayerCount: 2
Fore
SplineSet
-5 176 m 1
 -33 151 l 1
 -58 151 l 1
 -26 191 l 1
 -5 176 l 1
EndSplineSet
EndChar

StartChar: uni030B
Encoding: 599 779 599
Width: 0
GlyphClass: 4
Flags: HMW
HStem: 151 29<-95 -48 -53 -48 -48 -48 -48 -29> 175 5G<-48 -48 -5 -5>
VStem: -95 90<151 180>
AnchorPoint: "Anchor-11" -61 134 mark 0
AnchorPoint: "Anchor-9" -50 190 basemark 0
AnchorPoint: "Anchor-9" -61 134 mark 0
AnchorPoint: "Anchor-6" -61 134 mark 0
AnchorPoint: "Anchor-1" -61 134 mark 0
LayerCount: 2
Fore
SplineSet
-48 180 m 1x60
 -71 151 l 1
 -95 151 l 1xa0
 -71 191 l 1
 -48 180 l 1x60
-5 180 m 1
 -29 151 l 1
 -53 151 l 1
 -28 191 l 1
 -5 180 l 1
EndSplineSet
EndChar

StartChar: uni030C.alt
Encoding: 600 -1 600
Width: 0
GlyphClass: 4
Flags: HMW
HStem: 133 46<-30 -8 -30 -5>
VStem: -30 24
AnchorPoint: "Anchor-10" -35 134 mark 0
AnchorPoint: "Anchor-7" -35 134 mark 0
AnchorPoint: "Anchor-3" -35 134 mark 0
LayerCount: 2
Fore
SplineSet
-8 133 m 1
 -30 133 l 1
 -30 179 l 1
 -5 179 l 1
 -8 133 l 1
EndSplineSet
EndChar

StartChar: uni0302
Encoding: 601 770 601
Width: 0
GlyphClass: 4
Flags: HMW
HStem: 172 17<-40 -40>
VStem: -76 70<167 167>
AnchorPoint: "Anchor-11" -40 134 mark 0
AnchorPoint: "Anchor-9" -40 189 basemark 0
AnchorPoint: "Anchor-9" -40 134 mark 0
AnchorPoint: "Anchor-6" -40 134 mark 0
AnchorPoint: "Anchor-1" -40 134 mark 0
LayerCount: 2
Fore
SplineSet
-76 167 m 1
 -53 189 l 1
 -28 189 l 1
 -5 167 l 1
 -19 152 l 1
 -40 172 l 1
 -61 152 l 1
 -76 167 l 1
EndSplineSet
EndChar

StartChar: uni030C
Encoding: 602 780 602
Width: 0
GlyphClass: 4
Flags: HMW
HStem: 152 17<-40 -40 -40 -28 -53 -40>
VStem: -76 70<174 174>
AnchorPoint: "Anchor-11" -40 134 mark 0
AnchorPoint: "Anchor-9" -40 188 basemark 0
AnchorPoint: "Anchor-9" -40 134 mark 0
AnchorPoint: "Anchor-6" -40 134 mark 0
AnchorPoint: "Anchor-1" -40 134 mark 0
LayerCount: 2
Fore
SplineSet
-28 152 m 1
 -53 152 l 1
 -76 174 l 1
 -61 189 l 1
 -40 169 l 1
 -19 189 l 1
 -5 174 l 1
 -28 152 l 1
EndSplineSet
EndChar

StartChar: uni0306
Encoding: 603 774 603
Width: 0
GlyphClass: 4
Flags: HMW
HStem: 150 21<-44 -36 -44 -28> 150 39<-75 -28>
VStem: -75 20<183 189 183 189> -26 20<183 189>
AnchorPoint: "Anchor-11" -40 134 mark 0
AnchorPoint: "Anchor-9" -40 189 basemark 0
AnchorPoint: "Anchor-9" -40 134 mark 0
AnchorPoint: "Anchor-6" -40 134 mark 0
AnchorPoint: "Anchor-1" -40 134 mark 0
LayerCount: 2
Fore
SplineSet
-40 150 m 0xb0
 -65 150 -75 167 -75 189 c 1
 -55 189 l 1x70
 -55 177 -49 171 -40 171 c 0xb0
 -31 171 -26 177 -26 189 c 1
 -5 189 l 1x70
 -5 167 -15 150 -40 150 c 0xb0
EndSplineSet
EndChar

StartChar: uni030A
Encoding: 604 778 604
Width: 0
GlyphClass: 4
Flags: HMW
HStem: 148 14<-31 -26 -31 -22> 179 14<-31 -26>
VStem: -52 15<168 173 168 177> -20 15<168 173>
AnchorPoint: "Anchor-11" -29 134 mark 0
AnchorPoint: "Anchor-9" -28 191 basemark 0
AnchorPoint: "Anchor-9" -29 134 mark 0
AnchorPoint: "Anchor-6" -29 134 mark 0
AnchorPoint: "Anchor-1" -29 134 mark 0
LayerCount: 2
Fore
SplineSet
-29 148 m 0
 -43 148 -52 158 -52 171 c 0
 -52 184 -43 193 -29 193 c 0
 -15 193 -5 184 -5 171 c 0
 -5 158 -15 148 -29 148 c 0
-29 162 m 0
 -24 162 -20 166 -20 171 c 0
 -20 176 -24 179 -29 179 c 0
 -34 179 -37 176 -37 171 c 0
 -37 166 -34 162 -29 162 c 0
EndSplineSet
EndChar

StartChar: tildecomb
Encoding: 605 771 605
Width: 0
GlyphClass: 4
Flags: HMW
HStem: 155 32<-66 -60 -60 -60 -23 -17>
VStem: -78 72
AnchorPoint: "Anchor-11" -41 134 mark 0
AnchorPoint: "Anchor-9" -41 186 basemark 0
AnchorPoint: "Anchor-9" -41 134 mark 0
AnchorPoint: "Anchor-6" -41 134 mark 0
AnchorPoint: "Anchor-1" -41 134 mark 0
LayerCount: 2
Fore
SplineSet
-27 176 m 0
 -32.5493981361 176 -44.4051473184 187 -60 187 c 0
 -73 187 -79 179 -77 155 c 1
 -60 155 l 1
 -61 162 -60 165 -56 165 c 0
 -47.200594594 165 -39.249405406 155 -23 155 c 0
 -10 155 -3 163 -5 187 c 1
 -23 187 l 1
 -22 180 -23 176 -27 176 c 0
EndSplineSet
EndChar

StartChar: uni0304
Encoding: 606 772 606
Width: 0
GlyphClass: 4
Flags: HMW
HStem: 160 22<-75 -5 -75 -5>
VStem: -75 70<160 182 160 182>
AnchorPoint: "Anchor-11" -40 134 mark 0
AnchorPoint: "Anchor-9" -40 182 basemark 0
AnchorPoint: "Anchor-9" -40 134 mark 0
AnchorPoint: "Anchor-6" -40 134 mark 0
AnchorPoint: "Anchor-1" -40 134 mark 0
LayerCount: 2
Fore
SplineSet
-5 160 m 1
 -75 160 l 1
 -75 182 l 1
 -5 182 l 1
 -5 160 l 1
EndSplineSet
EndChar

StartChar: hookabovecomb
Encoding: 607 777 607
Width: 0
GlyphClass: 4
Flags: HMW
HStem: 178 18<-39 -35>
VStem: -50 45<177 180 166 195 166 195> -27 22<168 173>
AnchorPoint: "Anchor-11" -27 134 mark 0
AnchorPoint: "Anchor-9" -27 196 basemark 0
AnchorPoint: "Anchor-9" -27 134 mark 0
AnchorPoint: "Anchor-6" -27 134 mark 0
AnchorPoint: "Anchor-1" -27 134 mark 0
LayerCount: 2
Fore
SplineSet
-29 147 m 1xa0
 -37 160 l 1
 -31 162 -27 166 -27 171 c 0
 -27 176 -32 178 -38 178 c 0xa0
 -42 178 -46 178 -50 177 c 1
 -50 195 l 1xc0
 -46 196 -41 196 -36 196 c 0
 -17 196 -5 188 -5 173 c 0
 -5 159 -17 150 -29 147 c 1xa0
EndSplineSet
EndChar

StartChar: uni031B
Encoding: 608 795 608
Width: 0
GlyphClass: 4
Flags: HMW
HStem: 111 23<-53 -42 -53 -33>
VStem: -29 24
AnchorPoint: "Anchor-10" -7 164 basemark 0
AnchorPoint: "Anchor-10" -53 134 mark 0
AnchorPoint: "Anchor-7" -53 134 mark 0
AnchorPoint: "Anchor-3" -53 134 mark 0
LayerCount: 2
Fore
SplineSet
-53 111 m 1
 -53 134 l 1
 -32 134 -27 150 -30 164 c 1
 -7 164 l 1
 -1 137 -13 111 -53 111 c 1
EndSplineSet
EndChar

StartChar: dotbelowcomb
Encoding: 609 803 609
Width: 0
GlyphClass: 4
Flags: HMW
HStem: -47 26<-31 -5 -31 -5>
VStem: -31 26<-47 -21>
AnchorPoint: "Anchor-8" -18 -47 basemark 0
AnchorPoint: "Anchor-8" -18 0 mark 0
AnchorPoint: "Anchor-4" -18 0 mark 0
AnchorPoint: "Anchor-0" -18 0 mark 0
LayerCount: 2
Fore
SplineSet
-5 -47 m 1
 -31 -47 l 1
 -31 -21 l 1
 -5 -21 l 1
 -5 -47 l 1
EndSplineSet
EndChar

StartChar: uni0324
Encoding: 610 804 610
Width: 0
GlyphClass: 4
Flags: HMW
HStem: -46 25<-74 -49 -74 -49 -74 -30 -30 -5>
VStem: -74 25<-46 -21 -46 -21> -30 25<-46 -21 -46 -21>
AnchorPoint: "Anchor-8" -40 -46 basemark 0
AnchorPoint: "Anchor-8" -40 0 mark 0
AnchorPoint: "Anchor-4" -40 0 mark 0
AnchorPoint: "Anchor-0" -40 0 mark 0
LayerCount: 2
Fore
SplineSet
-49 -46 m 1
 -74 -46 l 1
 -74 -21 l 1
 -49 -21 l 1
 -49 -46 l 1
-5 -46 m 1
 -30 -46 l 1
 -30 -21 l 1
 -5 -21 l 1
 -5 -46 l 1
EndSplineSet
EndChar

StartChar: uni0326
Encoding: 611 806 611
Width: 0
GlyphClass: 4
Flags: HMW
HStem: -62 41<-20 -20>
VStem: -42 37<-55 -21>
AnchorPoint: "Anchor-8" -24 -62 basemark 0
AnchorPoint: "Anchor-8" -16 0 mark 0
AnchorPoint: "Anchor-4" -16 0 mark 0
AnchorPoint: "Anchor-0" -16 0 mark 0
LayerCount: 2
Fore
SplineSet
-42 -55 m 1
 -27 -21 l 1
 -5 -21 l 1
 -20 -62 l 1
 -42 -55 l 1
EndSplineSet
EndChar

StartChar: uni0327
Encoding: 612 807 612
Width: 0
GlyphClass: 4
Flags: HMW
HStem: -41 41<-15 -15>
VStem: -38 33
AnchorPoint: "Anchor-8" -22 -40 basemark 0
AnchorPoint: "Anchor-8" -17 0 mark 0
AnchorPoint: "Anchor-4" -17 0 mark 0
AnchorPoint: "Anchor-0" -17 0 mark 0
LayerCount: 2
Fore
SplineSet
-5 0 m 1
 -15 -41 l 1
 -38 -36 l 1
 -28 0 l 1
 -5 0 l 1
EndSplineSet
EndChar

StartChar: uni0328
Encoding: 613 808 613
Width: 0
GlyphClass: 4
Flags: HMW
HStem: -51 18<-34 -18> -51 51<-31 -23>
VStem: -52 24<-28 -22> -52 46<-36 -30 -48 -22>
AnchorPoint: "Anchor-5" -6 0 mark 0
AnchorPoint: "Anchor-2" -6 0 mark 0
LayerCount: 2
Fore
SplineSet
-26 -51 m 4xa0
 -42 -51 -52 -43 -52 -30 c 4xa0
 -52 -15 -39 -6 -31 0 c 5
 -6 0 l 5x60
 -21 -10 -28 -17 -28 -25 c 4
 -28 -30 -24 -33 -19 -33 c 4xa0
 -15 -33 -11 -32 -6 -30 c 5
 -6 -48 l 5x90
 -12 -50 -20 -51 -26 -51 c 4xa0
EndSplineSet
EndChar

StartChar: uni032E
Encoding: 614 814 614
Width: 0
GlyphClass: 4
Flags: HMW
HStem: -59 20<-44 -36 -44 -28> -59 38<-75 -28>
VStem: -75 20<-26 -21 -26 -21> -26 20<-26 -21>
LayerCount: 2
Fore
SplineSet
-40 -59 m 0xb0
 -65 -59 -75 -43 -75 -21 c 1
 -55 -21 l 1x70
 -55 -33 -49 -39 -40 -39 c 0xb0
 -31 -39 -26 -33 -26 -21 c 1
 -5 -21 l 1x70
 -5 -43 -15 -59 -40 -59 c 0xb0
EndSplineSet
EndChar

StartChar: uni0331
Encoding: 615 817 615
Width: 0
GlyphClass: 4
Flags: HMW
HStem: -42 22<-75 -5 -75 -5>
VStem: -75 70<-42 -21 -42 -21>
LayerCount: 2
Fore
SplineSet
-5 -42 m 1
 -75 -42 l 1
 -75 -21 l 1
 -5 -21 l 1
 -5 -42 l 1
EndSplineSet
EndChar

StartChar: dieresis
Encoding: 616 168 616
Width: 79
GlyphClass: 1
Flags: HMW
HStem: 158 25<5 30 5 30 5 49 49 74>
VStem: 5 25<158 183> 49 25<158 183>
LayerCount: 2
Fore
SplineSet
30 158 m 1
 5 158 l 1
 5 183 l 1
 30 183 l 1
 30 158 l 1
74 158 m 1
 49 158 l 1
 49 183 l 1
 74 183 l 1
 74 158 l 1
EndSplineSet
EndChar

StartChar: dotaccent
Encoding: 617 729 617
Width: 36
GlyphClass: 1
Flags: HMW
HStem: 158 26<5 31 5 31>
VStem: 5 26<158 184>
LayerCount: 2
Fore
SplineSet
31 158 m 1
 5 158 l 1
 5 184 l 1
 31 184 l 1
 31 158 l 1
EndSplineSet
EndChar

StartChar: grave
Encoding: 618 96 618
Width: 63
GlyphClass: 1
Flags: HMW
HStem: 151 41<26 58 26 33>
VStem: 5 53<151 176>
LayerCount: 2
Fore
SplineSet
58 151 m 1
 33 151 l 1
 5 176 l 1
 26 191 l 1
 58 151 l 1
EndSplineSet
EndChar

StartChar: acute
Encoding: 619 180 619
Width: 63
GlyphClass: 1
Flags: HMW
HStem: 151 41<5 37 5 37>
VStem: 5 53<151 176>
LayerCount: 2
Fore
SplineSet
58 176 m 1
 30 151 l 1
 5 151 l 1
 37 191 l 1
 58 176 l 1
EndSplineSet
EndChar

StartChar: hungarumlaut
Encoding: 620 733 620
Width: 100
GlyphClass: 1
Flags: HMW
HStem: 151 29<5 52 47 52 52 52 52 71> 175 5G<52 52 95 95>
VStem: 5 90<151 180>
LayerCount: 2
Fore
SplineSet
52 180 m 1x60
 29 151 l 1
 5 151 l 1xa0
 29 191 l 1
 52 180 l 1x60
95 180 m 1
 71 151 l 1
 47 151 l 1
 72 191 l 1
 95 180 l 1
EndSplineSet
EndChar

StartChar: circumflex
Encoding: 621 710 621
Width: 80
GlyphClass: 1
Flags: HMW
HStem: 172 17<40 40>
VStem: 5 70<167 167>
LayerCount: 2
Fore
SplineSet
5 167 m 1
 28 189 l 1
 53 189 l 1
 76 167 l 1
 61 152 l 1
 40 172 l 1
 19 152 l 1
 5 167 l 1
EndSplineSet
EndChar

StartChar: caron
Encoding: 622 711 622
Width: 80
GlyphClass: 1
Flags: HMW
HStem: 153 17<40 40 40 53 28 40>
VStem: 5 70<175 175>
LayerCount: 2
Fore
SplineSet
53 153 m 1
 28 153 l 1
 5 175 l 1
 19 190 l 1
 40 170 l 1
 61 190 l 1
 76 175 l 1
 53 153 l 1
EndSplineSet
EndChar

StartChar: breve
Encoding: 623 728 623
Width: 80
GlyphClass: 1
Flags: HMW
HStem: 150 21<36 45 36 52> 150 39<5 52>
VStem: 5 20<183 189 183 189> 55 20<183 189>
LayerCount: 2
Fore
SplineSet
40 150 m 0xb0
 15 150 5 167 5 189 c 1
 26 189 l 1x70
 26 177 31 171 40 171 c 0xb0
 49 171 55 177 55 189 c 1
 75 189 l 1x70
 75 167 65 150 40 150 c 0xb0
EndSplineSet
EndChar

StartChar: ring
Encoding: 624 730 624
Width: 57
GlyphClass: 1
Flags: HMW
HStem: 148 14<26 31 26 36> 179 14<26 31>
VStem: 5 15<168 173 168 177> 37 15<168 173>
LayerCount: 2
Fore
SplineSet
28 148 m 0
 14 148 5 158 5 171 c 0
 5 184 14 193 28 193 c 0
 42 193 52 184 52 171 c 0
 52 158 42 148 28 148 c 0
28 162 m 0
 33 162 37 166 37 171 c 0
 37 176 33 179 28 179 c 0
 23 179 20 176 20 171 c 0
 20 166 23 162 28 162 c 0
EndSplineSet
EndChar

StartChar: tilde
Encoding: 625 732 625
Width: 82
GlyphClass: 1
Flags: HMW
HStem: 155 32<17 23 23 23 60 66>
VStem: 5 72
LayerCount: 2
Fore
SplineSet
5 155 m 1
 23 155 l 1
 22 162 23 165 27 165 c 0
 30 165 34 163 38 161 c 2
 41 160 l 1
 46 157 53 155 60 155 c 0
 73 155 79 163 77 187 c 1
 60 187 l 1
 61 180 60 176 56 176 c 0
 53 176 49 179 44 181 c 2
 41 182 l 2
 35 185 30 187 23 187 c 0
 10 187 3 179 5 155 c 1
EndSplineSet
EndChar

StartChar: macron
Encoding: 626 175 626
Width: 80
GlyphClass: 1
Flags: HMW
HStem: 160 22<5 75 5 75>
VStem: 5 70<160 182 160 182>
LayerCount: 2
Fore
SplineSet
75 160 m 1
 5 160 l 1
 5 182 l 1
 75 182 l 1
 75 160 l 1
EndSplineSet
EndChar

StartChar: cedilla
Encoding: 627 184 627
Width: 42
GlyphClass: 1
Flags: HMW
HStem: -41 41<27 27>
VStem: 5 33
LayerCount: 2
Fore
SplineSet
37 0 m 5
 27 -41 l 5
 5 -36 l 5
 14 0 l 5
 37 0 l 5
EndSplineSet
EndChar

StartChar: ogonek
Encoding: 628 731 628
Width: 55
GlyphClass: 1
Flags: HMW
HStem: -51 18<23 39> -51 51<26 34>
VStem: 5 24<-28 -22> 5 46<-36 -30 -48 -22>
LayerCount: 2
Fore
SplineSet
31 -51 m 0xa0
 15 -51 5 -43 5 -30 c 0xa0
 5 -15 18 -6 26 0 c 1
 51 0 l 1x60
 36 -10 29 -17 29 -25 c 0
 29 -30 32 -33 37 -33 c 0xa0
 41 -33 46 -32 51 -30 c 1
 51 -48 l 1x90
 45 -50 37 -51 31 -51 c 0xa0
EndSplineSet
EndChar

StartChar: uni0308.case
Encoding: 629 -1 629
Width: 0
GlyphClass: 4
Flags: HMW
HStem: 198 25<-74 -49 -74 -49 -74 -30 -30 -5>
VStem: -74 25<198 223 198 223> -30 25<198 223 198 223>
AnchorPoint: "Anchor-11" -40 179 mark 0
AnchorPoint: "Anchor-9" -40 223 basemark 0
AnchorPoint: "Anchor-9" -40 179 mark 0
AnchorPoint: "Anchor-6" -40 179 mark 0
AnchorPoint: "Anchor-1" -40 179 mark 0
LayerCount: 2
Fore
SplineSet
-49 198 m 1
 -74 198 l 1
 -74 223 l 1
 -49 223 l 1
 -49 198 l 1
-5 198 m 1
 -30 198 l 1
 -30 223 l 1
 -5 223 l 1
 -5 198 l 1
EndSplineSet
EndChar

StartChar: uni0308_uni0300.case
Encoding: 630 -1 630
Width: 0
GlyphClass: 4
Flags: HMW
HStem: 198 25<-74 -49 -74 -49 -74 -30 -30 -5>
VStem: -74 25<198 223 198 223> -30 25<198 223 198 223>
AnchorPoint: "Anchor-11" -40 179 mark 0
AnchorPoint: "Anchor-9" -41 270 basemark 0
AnchorPoint: "Anchor-9" -40 179 mark 0
AnchorPoint: "Anchor-6" -40 179 mark 0
AnchorPoint: "Anchor-1" -40 179 mark 0
LayerCount: 2
Fore
SplineSet
-76 255 m 1
 -55 270 l 1
 -23 229 l 1
 -48 229 l 1
 -76 255 l 1
-49 198 m 1
 -74 198 l 1
 -74 223 l 1
 -49 223 l 1
 -49 198 l 1
-5 198 m 1
 -30 198 l 1
 -30 223 l 1
 -5 223 l 1
 -5 198 l 1
EndSplineSet
EndChar

StartChar: uni0308_uni0301.case
Encoding: 631 -1 631
Width: 0
GlyphClass: 4
Flags: HMW
HStem: 198 25<-77 -51 -77 -51 -77 -32 -32 -7>
VStem: -77 25<198 223 198 223> -32 25<198 223 198 223>
AnchorPoint: "Anchor-11" -42 179 mark 0
AnchorPoint: "Anchor-9" -41 270 basemark 0
AnchorPoint: "Anchor-9" -42 179 mark 0
AnchorPoint: "Anchor-6" -42 179 mark 0
AnchorPoint: "Anchor-1" -42 179 mark 0
LayerCount: 2
Fore
SplineSet
-5 255 m 1
 -33 229 l 1
 -58 229 l 1
 -26 270 l 1
 -5 255 l 1
-51 198 m 1
 -77 198 l 1
 -77 223 l 1
 -51 223 l 1
 -51 198 l 1
-7 198 m 1
 -32 198 l 1
 -32 223 l 1
 -7 223 l 1
 -7 198 l 1
EndSplineSet
EndChar

StartChar: uni0308030C.case
Encoding: 632 -1 632
Width: 0
GlyphClass: 4
Flags: HMW
HStem: 198 25<-76 -51 -76 -51 -76 -32 -32 -7> 229 17<-41 -41 -41 -29 -54 -41>
VStem: -76 25<198 223 198 223> -32 25<198 223 198 223>
AnchorPoint: "Anchor-11" -42 179 mark 0
AnchorPoint: "Anchor-9" -42 266 basemark 0
AnchorPoint: "Anchor-9" -42 179 mark 0
AnchorPoint: "Anchor-6" -42 179 mark 0
AnchorPoint: "Anchor-1" -42 179 mark 0
LayerCount: 2
Fore
SplineSet
-29 229 m 1
 -54 229 l 1
 -77 251 l 1
 -62 266 l 1
 -41 246 l 1
 -21 266 l 1
 -6 251 l 1
 -29 229 l 1
-51 198 m 1xb0
 -76 198 l 1
 -76 223 l 1
 -51 223 l 1
 -51 198 l 1xb0
-7 198 m 1
 -32 198 l 1
 -32 223 l 1
 -7 223 l 1
 -7 198 l 1
EndSplineSet
EndChar

StartChar: uni03080304.case
Encoding: 633 -1 633
Width: 0
GlyphClass: 4
Flags: HMW
HStem: 198 25<-76 -51 -76 -51 -76 -32 -32 -7> 232 22<-77 -7 -77 -7>
VStem: -77 25 -76 25<198 223 198 223> -32 25<198 223 198 223> -32 25<198 232 223 232>
AnchorPoint: "Anchor-11" -42 179 mark 0
AnchorPoint: "Anchor-9" -42 253 basemark 0
AnchorPoint: "Anchor-9" -42 179 mark 0
AnchorPoint: "Anchor-6" -42 179 mark 0
AnchorPoint: "Anchor-1" -42 179 mark 0
LayerCount: 2
Fore
SplineSet
-7 232 m 1xe4
 -77 232 l 1
 -77 253 l 1
 -7 253 l 1
 -7 232 l 1xe4
-51 198 m 1xd8
 -76 198 l 1
 -76 223 l 1
 -51 223 l 1
 -51 198 l 1xd8
-7 198 m 1
 -32 198 l 1
 -32 223 l 1
 -7 223 l 1
 -7 198 l 1
EndSplineSet
EndChar

StartChar: uni0307.case
Encoding: 634 -1 634
Width: 0
GlyphClass: 4
Flags: HMW
HStem: 198 26<-31 -5 -31 -5>
VStem: -31 26<198 224>
AnchorPoint: "Anchor-11" -18 179 mark 0
AnchorPoint: "Anchor-9" -18 224 basemark 0
AnchorPoint: "Anchor-9" -18 179 mark 0
AnchorPoint: "Anchor-6" -18 179 mark 0
AnchorPoint: "Anchor-1" -18 179 mark 0
LayerCount: 2
Fore
SplineSet
-5 198 m 1
 -31 198 l 1
 -31 224 l 1
 -5 224 l 1
 -5 198 l 1
EndSplineSet
EndChar

StartChar: gravecomb.case
Encoding: 635 -1 635
Width: 0
GlyphClass: 4
Flags: HMW
HStem: 190 41<-37 -5 -37 -30>
VStem: -58 53<190 216>
AnchorPoint: "Anchor-11" -17 179 mark 0
AnchorPoint: "Anchor-9" -31 231 basemark 0
AnchorPoint: "Anchor-9" -17 179 mark 0
AnchorPoint: "Anchor-6" -17 179 mark 0
AnchorPoint: "Anchor-1" -17 179 mark 0
LayerCount: 2
Fore
SplineSet
-5 190 m 1
 -30 190 l 1
 -58 216 l 1
 -37 231 l 1
 -5 190 l 1
EndSplineSet
EndChar

StartChar: acutecomb.case
Encoding: 636 -1 636
Width: 0
GlyphClass: 4
Flags: HMW
HStem: 190 41<-58 -26 -58 -26>
VStem: -58 53<190 216>
AnchorPoint: "Anchor-11" -45 179 mark 0
AnchorPoint: "Anchor-9" -31 231 basemark 0
AnchorPoint: "Anchor-9" -45 179 mark 0
AnchorPoint: "Anchor-6" -45 179 mark 0
AnchorPoint: "Anchor-1" -45 179 mark 0
LayerCount: 2
Fore
SplineSet
-5 216 m 1
 -33 190 l 1
 -58 190 l 1
 -26 231 l 1
 -5 216 l 1
EndSplineSet
EndChar

StartChar: uni030B.case
Encoding: 637 -1 637
Width: 0
GlyphClass: 4
Flags: HMW
HStem: 190 41<-95 -71 -95 -71 -71 -53 -71 -29>
VStem: -95 90<190 219>
AnchorPoint: "Anchor-11" -61 179 mark 0
AnchorPoint: "Anchor-9" -50 229 basemark 0
AnchorPoint: "Anchor-9" -61 179 mark 0
AnchorPoint: "Anchor-6" -61 179 mark 0
AnchorPoint: "Anchor-1" -61 179 mark 0
LayerCount: 2
Fore
SplineSet
-48 219 m 1
 -71 190 l 1
 -95 190 l 1
 -71 231 l 1
 -48 219 l 1
-5 219 m 1
 -29 190 l 1
 -53 190 l 1
 -28 231 l 1
 -5 219 l 1
EndSplineSet
EndChar

StartChar: uni0302.case
Encoding: 638 -1 638
Width: 0
GlyphClass: 4
Flags: HMW
HStem: 213 17<-41 -41>
VStem: -76 70<208 208>
AnchorPoint: "Anchor-11" -41 179 mark 0
AnchorPoint: "Anchor-9" -41 229 basemark 0
AnchorPoint: "Anchor-9" -41 179 mark 0
AnchorPoint: "Anchor-6" -41 179 mark 0
AnchorPoint: "Anchor-1" -41 179 mark 0
LayerCount: 2
Fore
SplineSet
-76 208 m 1
 -54 230 l 1
 -29 230 l 1
 -6 208 l 1
 -20 193 l 1
 -41 213 l 1
 -62 193 l 1
 -76 208 l 1
EndSplineSet
EndChar

StartChar: uni030C.case
Encoding: 639 -1 639
Width: 0
GlyphClass: 4
Flags: HMW
HStem: 192 17<-40 -40 -40 -28 -53 -40>
VStem: -76 70<214 214>
AnchorPoint: "Anchor-11" -40 179 mark 0
AnchorPoint: "Anchor-9" -40 227 basemark 0
AnchorPoint: "Anchor-9" -40 179 mark 0
AnchorPoint: "Anchor-6" -40 179 mark 0
AnchorPoint: "Anchor-1" -40 179 mark 0
LayerCount: 2
Fore
SplineSet
-28 192 m 1
 -53 192 l 1
 -76 214 l 1
 -61 229 l 1
 -40 209 l 1
 -19 229 l 1
 -5 214 l 1
 -28 192 l 1
EndSplineSet
EndChar

StartChar: uni0306.case
Encoding: 640 -1 640
Width: 0
GlyphClass: 4
Flags: HMW
HStem: 191 20<-44 -36 -44 -28> 191 38<-75 -28>
VStem: -75 20<224 230 224 230> -26 20<224 230>
AnchorPoint: "Anchor-11" -40 179 mark 0
AnchorPoint: "Anchor-9" -40 230 basemark 0
AnchorPoint: "Anchor-9" -40 179 mark 0
AnchorPoint: "Anchor-6" -40 179 mark 0
AnchorPoint: "Anchor-1" -40 179 mark 0
LayerCount: 2
Fore
SplineSet
-40 191 m 0xb0
 -65 191 -75 208 -75 230 c 1
 -55 230 l 1x70
 -55 218 -49 212 -40 212 c 0xb0
 -31 212 -26 218 -26 230 c 1
 -5 230 l 1x70
 -5 208 -15 191 -40 191 c 0xb0
EndSplineSet
EndChar

StartChar: uni030A.case
Encoding: 641 -1 641
Width: 0
GlyphClass: 4
Flags: HMW
HStem: 188 14<-31 -26 -31 -22> 219 14<-31 -26>
VStem: -52 15<209 213 209 217> -20 15<209 213>
AnchorPoint: "Anchor-11" -29 179 mark 0
AnchorPoint: "Anchor-9" -29 233 basemark 0
AnchorPoint: "Anchor-9" -29 179 mark 0
AnchorPoint: "Anchor-6" -29 179 mark 0
AnchorPoint: "Anchor-1" -29 179 mark 0
LayerCount: 2
Fore
SplineSet
-29 188 m 0
 -43 188 -52 198 -52 211 c 0
 -52 224 -43 233 -29 233 c 0
 -15 233 -5 224 -5 211 c 0
 -5 198 -15 188 -29 188 c 0
-29 202 m 0
 -24 202 -20 206 -20 211 c 0
 -20 216 -24 219 -29 219 c 0
 -34 219 -37 216 -37 211 c 0
 -37 206 -34 202 -29 202 c 0
EndSplineSet
EndChar

StartChar: tildecomb.case
Encoding: 642 -1 642
Width: 0
GlyphClass: 4
Flags: HMW
HStem: 193 33<-66 -60 -60 -60 -23 -17>
VStem: -78 72
AnchorPoint: "Anchor-11" -41 179 mark 0
AnchorPoint: "Anchor-9" -41 227 basemark 0
AnchorPoint: "Anchor-9" -41 179 mark 0
AnchorPoint: "Anchor-6" -41 179 mark 0
AnchorPoint: "Anchor-1" -41 179 mark 0
LayerCount: 2
Fore
SplineSet
-27 215 m 0
 -34.7361381489 215 -47.6123466996 226 -60 226 c 0
 -73 226 -79 217 -77 193 c 1
 -60 193 l 1
 -61 200 -60 204 -56 204 c 0
 -47.1494817081 204 -36.6838516252 193 -23 193 c 0
 -10 193 -3 202 -5 226 c 1
 -23 226 l 1
 -22 219 -23 215 -27 215 c 0
EndSplineSet
EndChar

StartChar: uni0304.case
Encoding: 643 -1 643
Width: 0
GlyphClass: 4
Flags: HMW
HStem: 200 22<-75 -5 -75 -5>
VStem: -75 70<200 222 200 222>
AnchorPoint: "Anchor-11" -40 179 mark 0
AnchorPoint: "Anchor-9" -40 222 basemark 0
AnchorPoint: "Anchor-9" -40 179 mark 0
AnchorPoint: "Anchor-6" -40 179 mark 0
AnchorPoint: "Anchor-1" -40 179 mark 0
LayerCount: 2
Fore
SplineSet
-5 200 m 1
 -75 200 l 1
 -75 222 l 1
 -5 222 l 1
 -5 200 l 1
EndSplineSet
EndChar

StartChar: hookabovecomb.case
Encoding: 644 -1 644
Width: 0
GlyphClass: 4
Flags: HMW
HStem: 215 18<-39 -35>
VStem: -50 45<214 217 202 232 202 232> -27 22<205 210>
AnchorPoint: "Anchor-11" -27 179 mark 0
AnchorPoint: "Anchor-9" -27 233 basemark 0
AnchorPoint: "Anchor-9" -27 179 mark 0
AnchorPoint: "Anchor-6" -27 179 mark 0
AnchorPoint: "Anchor-1" -27 179 mark 0
LayerCount: 2
Fore
SplineSet
-29 183 m 1xa0
 -37 197 l 1
 -31 199 -27 203 -27 208 c 0
 -27 213 -32 215 -38 215 c 0xa0
 -42 215 -46 215 -50 214 c 1
 -50 232 l 1xc0
 -46 233 -41 233 -36 233 c 0
 -17 233 -5 224 -5 209 c 0
 -5 195 -17 186 -29 183 c 1xa0
EndSplineSet
EndChar

StartChar: uni03060301
Encoding: 645 -1 645
Width: 0
GlyphClass: 4
Flags: HMW
HStem: 150 21<-46 -37 -46 -29> 150 39<-76 -29>
VStem: -76 20<183 189 183 189> -27 20<183 189>
AnchorPoint: "Anchor-11" -40 233 basemark 0
AnchorPoint: "Anchor-11" -41 134 mark 0
AnchorPoint: "Anchor-9" -41 134 mark 0
AnchorPoint: "Anchor-6" -41 134 mark 0
AnchorPoint: "Anchor-1" -41 134 mark 0
LayerCount: 2
Fore
SplineSet
-5 218 m 1xb0
 -30 194 l 1
 -55 194 l 1
 -26 233 l 1
 -5 218 l 1xb0
-41 150 m 0
 -66 150 -76 167 -76 189 c 1
 -56 189 l 1x70
 -56 177 -50 171 -41 171 c 0xb0
 -32 171 -27 177 -27 189 c 1
 -6 189 l 1x70
 -6 167 -16 150 -41 150 c 0
EndSplineSet
EndChar

StartChar: uni03060300
Encoding: 646 -1 646
Width: 0
GlyphClass: 4
Flags: HMW
HStem: 150 21<-45 -36 -45 -28> 150 39<-75 -28>
VStem: -75 20<183 189 183 189> -26 20<183 189>
AnchorPoint: "Anchor-11" -41 233 basemark 0
AnchorPoint: "Anchor-11" -40 134 mark 0
AnchorPoint: "Anchor-9" -40 134 mark 0
AnchorPoint: "Anchor-6" -40 134 mark 0
AnchorPoint: "Anchor-1" -40 134 mark 0
LayerCount: 2
Fore
SplineSet
-77 218 m 1xb0
 -57 233 l 1
 -28 194 l 1
 -53 194 l 1
 -77 218 l 1xb0
-40 150 m 0
 -65 150 -75 167 -75 189 c 1
 -55 189 l 1x70
 -55 177 -49 171 -40 171 c 0xb0
 -31 171 -26 177 -26 189 c 1
 -5 189 l 1x70
 -5 167 -15 150 -40 150 c 0
EndSplineSet
EndChar

StartChar: uni03060309
Encoding: 647 -1 647
Width: 0
GlyphClass: 4
Flags: HMW
HStem: 150 21<-44 -36 -44 -28> 150 39<-75 -28> 218 18<-53 -49>
VStem: -75 20<183 189 183 189> -64 44<217 220 205 235 205 235> -42 22<208 213> -26 20<183 189>
AnchorPoint: "Anchor-11" -40 236 basemark 0
AnchorPoint: "Anchor-11" -40 134 mark 0
AnchorPoint: "Anchor-9" -40 134 mark 0
AnchorPoint: "Anchor-6" -40 134 mark 0
AnchorPoint: "Anchor-1" -40 134 mark 0
LayerCount: 2
Fore
SplineSet
-43 186 m 1xb4
 -51 200 l 1
 -45 202 -42 206 -42 211 c 0
 -42 216 -46 218 -52 218 c 0xb4
 -56 218 -60 218 -64 217 c 1
 -64 235 l 1xa8
 -60 236 -56 236 -51 236 c 0
 -32 236 -20 227 -20 212 c 0
 -20 198 -31 189 -43 186 c 1xb4
-40 150 m 0
 -65 150 -75 167 -75 189 c 1
 -55 189 l 1x72
 -55 177 -49 171 -40 171 c 0xb2
 -31 171 -26 177 -26 189 c 1
 -5 189 l 1x72
 -5 167 -15 150 -40 150 c 0
EndSplineSet
EndChar

StartChar: uni03060303
Encoding: 648 -1 648
Width: 0
GlyphClass: 4
Flags: HMW
HStem: 150 21<-46 -37 -46 -29> 150 39<-76 -29> 150 44<-77 -29>
VStem: -76 20<183 189 183 189> -60 4 -27 20<183 189>
AnchorPoint: "Anchor-11" -41 226 basemark 0
AnchorPoint: "Anchor-11" -41 134 mark 0
AnchorPoint: "Anchor-9" -41 134 mark 0
AnchorPoint: "Anchor-6" -41 134 mark 0
AnchorPoint: "Anchor-1" -41 134 mark 0
LayerCount: 2
Fore
SplineSet
-27 216 m 0
 -34.6002127542 216 -45.0497872458 226 -60 226 c 0
 -73 226 -79 218 -77 194 c 1x2c
 -60 194 l 1
 -61 201 -60 204 -56 204 c 0
 -47.200594594 204 -39.249405406 194 -23 194 c 0
 -10 194 -3 202 -5 226 c 1
 -23 226 l 1
 -22 219 -23 216 -27 216 c 0
-41 150 m 0x94
 -66 150 -76 167 -76 189 c 1x54
 -56 189 l 1x4c
 -56 177 -50 171 -41 171 c 0x8c
 -32 171 -27 177 -27 189 c 1
 -6 189 l 1x4c
 -6 167 -16 150 -41 150 c 0x94
EndSplineSet
EndChar

StartChar: uni03020301
Encoding: 649 -1 649
Width: 0
GlyphClass: 4
Flags: HMW
HStem: 172 17<-74 -74>
VStem: -110 104<167 211>
AnchorPoint: "Anchor-11" -57 227 basemark 0
AnchorPoint: "Anchor-11" -74 134 mark 0
AnchorPoint: "Anchor-9" -74 134 mark 0
AnchorPoint: "Anchor-6" -74 134 mark 0
AnchorPoint: "Anchor-1" -74 134 mark 0
LayerCount: 2
Fore
SplineSet
-5 211 m 1
 -28 189 l 1
 -54 189 l 1
 -26 227 l 1
 -5 211 l 1
-110 167 m 1
 -87 189 l 1
 -62 189 l 1
 -39 167 l 1
 -54 152 l 1
 -74 172 l 1
 -95 152 l 1
 -110 167 l 1
EndSplineSet
EndChar

StartChar: uni03020300
Encoding: 650 -1 650
Width: 0
GlyphClass: 4
Flags: HMW
HStem: 172 17<-55 -55>
VStem: -90 85<167 189>
AnchorPoint: "Anchor-11" -47 227 basemark 0
AnchorPoint: "Anchor-11" -54 134 mark 0
AnchorPoint: "Anchor-9" -54 134 mark 0
AnchorPoint: "Anchor-6" -54 134 mark 0
AnchorPoint: "Anchor-1" -54 134 mark 0
LayerCount: 2
Fore
SplineSet
-54 211 m 1
 -34 227 l 1
 -5 189 l 1
 -31 189 l 1
 -54 211 l 1
-90 167 m 1
 -67 189 l 1
 -42 189 l 1
 -19 167 l 1
 -34 152 l 1
 -55 172 l 1
 -76 152 l 1
 -90 167 l 1
EndSplineSet
EndChar

StartChar: uni03020309
Encoding: 651 -1 651
Width: 0
GlyphClass: 4
Flags: HMW
HStem: 172 17<-63 -63> 209 18<-39 -34>
VStem: -50 45<207 211 197 226 197 226> -27 22<198 204>
AnchorPoint: "Anchor-11" -51 227 basemark 0
AnchorPoint: "Anchor-11" -63 134 mark 0
AnchorPoint: "Anchor-9" -63 134 mark 0
AnchorPoint: "Anchor-6" -63 134 mark 0
AnchorPoint: "Anchor-1" -63 134 mark 0
LayerCount: 2
Fore
SplineSet
-26 176 m 1xd0
 -40 188 l 1
 -33 191 -27 195 -27 201 c 0
 -27 206 -32 209 -38 209 c 0xd0
 -42 209 -46 208 -50 207 c 1
 -50 226 l 1xe0
 -46 227 -41 227 -36 227 c 0
 -17 227 -5 218 -5 203 c 0
 -5 190 -14 182 -26 176 c 1xd0
-63 172 m 1
 -84 152 l 1
 -98 167 l 1
 -75 189 l 1
 -50 189 l 1
 -28 167 l 1
 -42 152 l 1
 -63 172 l 1
EndSplineSet
EndChar

StartChar: uni03020303
Encoding: 652 -1 652
Width: 0
GlyphClass: 4
Flags: HMW
HStem: 172 17<-41 -41>
VStem: -78 72
AnchorPoint: "Anchor-11" -41 226 basemark 0
AnchorPoint: "Anchor-11" -41 133 mark 0
AnchorPoint: "Anchor-9" -41 133 mark 0
AnchorPoint: "Anchor-6" -41 133 mark 0
AnchorPoint: "Anchor-1" -41 133 mark 0
LayerCount: 2
Fore
SplineSet
-27 216 m 0
 -34.6002127542 216 -45.0497872458 226 -60 226 c 0
 -73 226 -79 218 -77 194 c 1
 -60 194 l 1
 -61 201 -60 204 -56 204 c 0
 -47.200594594 204 -39.249405406 194 -23 194 c 0
 -10 194 -3 202 -5 226 c 1
 -23 226 l 1
 -22 219 -23 216 -27 216 c 0
-77 167 m 1
 -54 189 l 1
 -29 189 l 1
 -6 167 l 1
 -20 152 l 1
 -41 172 l 1
 -62 152 l 1
 -77 167 l 1
EndSplineSet
EndChar

StartChar: uni03060301.case
Encoding: 653 -1 653
Width: 0
GlyphClass: 4
Flags: HMW
HStem: 191 20<-46 -37 -46 -29> 191 38<-77 -29>
VStem: -77 20<224 230 224 230> -27 20<224 230>
AnchorPoint: "Anchor-11" -41 275 basemark 0
AnchorPoint: "Anchor-11" -41 179 mark 0
AnchorPoint: "Anchor-9" -41 179 mark 0
AnchorPoint: "Anchor-6" -41 179 mark 0
AnchorPoint: "Anchor-1" -41 179 mark 0
LayerCount: 2
Fore
SplineSet
-5 259 m 1xb0
 -30 235 l 1
 -55 235 l 1
 -26 275 l 1
 -5 259 l 1xb0
-41 191 m 0
 -66 191 -77 208 -77 230 c 1
 -56 230 l 1x70
 -56 218 -50 212 -41 212 c 0xb0
 -32 212 -27 218 -27 230 c 1
 -7 230 l 1x70
 -7 208 -16 191 -41 191 c 0
EndSplineSet
EndChar

StartChar: uni03060300.case
Encoding: 654 -1 654
Width: 0
GlyphClass: 4
Flags: HMW
HStem: 191 20<-45 -36 -45 -28> 191 38<-75 -28>
VStem: -75 20<224 230 224 230> -26 20<224 230>
AnchorPoint: "Anchor-11" -41 275 basemark 0
AnchorPoint: "Anchor-11" -40 179 mark 0
AnchorPoint: "Anchor-9" -40 179 mark 0
AnchorPoint: "Anchor-6" -40 179 mark 0
AnchorPoint: "Anchor-1" -40 179 mark 0
LayerCount: 2
Fore
SplineSet
-77 259 m 1xb0
 -57 275 l 1
 -28 235 l 1
 -53 235 l 1
 -77 259 l 1xb0
-40 191 m 0
 -65 191 -75 208 -75 230 c 1
 -55 230 l 1x70
 -55 218 -49 212 -40 212 c 0xb0
 -31 212 -26 218 -26 230 c 1
 -5 230 l 1x70
 -5 208 -15 191 -40 191 c 0
EndSplineSet
EndChar

StartChar: uni03060309.case
Encoding: 655 -1 655
Width: 0
GlyphClass: 4
Flags: HMW
HStem: 191 20<-44 -36 -44 -28> 191 38<-75 -28> 223 7 255 18<-55 -51>
VStem: -75 20<224 230 224 230> -66 45<253 257 242 272 242 272> -44 22<245 250> -26 20<224 230>
AnchorPoint: "Anchor-11" -40 275 basemark 0
AnchorPoint: "Anchor-11" -40 179 mark 0
AnchorPoint: "Anchor-9" -40 179 mark 0
AnchorPoint: "Anchor-6" -40 179 mark 0
AnchorPoint: "Anchor-1" -40 179 mark 0
LayerCount: 2
Fore
SplineSet
-45 223 m 1xba
 -53 237 l 1
 -47 239 -44 243 -44 248 c 0
 -44 253 -48 255 -54 255 c 0xba
 -58 255 -62 254 -66 253 c 1
 -66 272 l 1xb4
 -62 273 -57 273 -52 273 c 0
 -33 273 -21 264 -21 249 c 0
 -21 235 -33 226 -45 223 c 1xba
-40 191 m 0
 -65 191 -75 208 -75 230 c 1
 -55 230 l 1x59
 -55 218 -49 212 -40 212 c 0xb9
 -31 212 -26 218 -26 230 c 1
 -5 230 l 1x59
 -5 208 -15 191 -40 191 c 0
EndSplineSet
EndChar

StartChar: uni03060303.case
Encoding: 656 -1 656
Width: 0
GlyphClass: 4
Flags: HMW
HStem: 191 20<-46 -37 -46 -29> 191 38<-76 -29> 191 44<-77 -29>
VStem: -76 20<224 230 224 230> -60 4 -27 20<224 230>
AnchorPoint: "Anchor-11" -41 268 basemark 0
AnchorPoint: "Anchor-11" -41 179 mark 0
AnchorPoint: "Anchor-9" -41 179 mark 0
AnchorPoint: "Anchor-6" -41 179 mark 0
AnchorPoint: "Anchor-1" -41 179 mark 0
LayerCount: 2
Fore
SplineSet
-27 257 m 0
 -34.7361381489 257 -47.6123466996 268 -60 268 c 0
 -73 268 -79 259 -77 235 c 1x2c
 -60 235 l 1
 -61 242 -60 246 -56 246 c 0
 -50.7711663829 246 -36.8651972535 235 -23 235 c 0
 -10 235 -3 244 -5 268 c 1
 -23 268 l 1
 -22 261 -23 257 -27 257 c 0
-41 191 m 0x94
 -66 191 -76 208 -76 230 c 1x54
 -56 230 l 1x4c
 -56 218 -50 212 -41 212 c 0x8c
 -32 212 -27 218 -27 230 c 1
 -6 230 l 1x4c
 -6 208 -16 191 -41 191 c 0x94
EndSplineSet
EndChar

StartChar: uni03020301.case
Encoding: 657 -1 657
Width: 0
GlyphClass: 4
Flags: HMW
HStem: 213 17<-74 -74>
VStem: -110 104<208 253>
AnchorPoint: "Anchor-11" -57 268 basemark 0
AnchorPoint: "Anchor-11" -74 179 mark 0
AnchorPoint: "Anchor-9" -74 179 mark 0
AnchorPoint: "Anchor-6" -74 179 mark 0
AnchorPoint: "Anchor-1" -74 179 mark 0
LayerCount: 2
Fore
SplineSet
-5 253 m 1
 -28 230 l 1
 -54 230 l 1
 -26 268 l 1
 -5 253 l 1
-110 208 m 1
 -87 230 l 1
 -62 230 l 1
 -39 208 l 1
 -54 193 l 1
 -74 213 l 1
 -95 193 l 1
 -110 208 l 1
EndSplineSet
EndChar

StartChar: uni03020300.case
Encoding: 658 -1 658
Width: 0
GlyphClass: 4
Flags: HMW
HStem: 213 17<-55 -55>
VStem: -90 85<208 230>
AnchorPoint: "Anchor-11" -47 268 basemark 0
AnchorPoint: "Anchor-11" -54 179 mark 0
AnchorPoint: "Anchor-9" -54 179 mark 0
AnchorPoint: "Anchor-6" -54 179 mark 0
AnchorPoint: "Anchor-1" -54 179 mark 0
LayerCount: 2
Fore
SplineSet
-54 253 m 1
 -34 268 l 1
 -5 230 l 1
 -31 230 l 1
 -54 253 l 1
-90 208 m 1
 -67 230 l 1
 -42 230 l 1
 -19 208 l 1
 -34 193 l 1
 -55 213 l 1
 -76 193 l 1
 -90 208 l 1
EndSplineSet
EndChar

StartChar: uni03020309.case
Encoding: 659 -1 659
Width: 0
GlyphClass: 4
Flags: HMW
HStem: 213 17<-60 -60> 252 18<-39 -34>
VStem: -49 44<251 254 240 269 240 269> -27 22<242 247>
AnchorPoint: "Anchor-11" -50 270 basemark 0
AnchorPoint: "Anchor-11" -61 179 mark 0
AnchorPoint: "Anchor-9" -61 179 mark 0
AnchorPoint: "Anchor-6" -61 179 mark 0
AnchorPoint: "Anchor-1" -61 179 mark 0
LayerCount: 2
Fore
SplineSet
-26 219 m 1xd0
 -40 232 l 1
 -33 235 -27 239 -27 245 c 0
 -27 250 -32 252 -38 252 c 0xd0
 -42 252 -45 252 -49 251 c 1
 -49 269 l 1xe0
 -45 270 -41 270 -36 270 c 0
 -17 270 -5 262 -5 247 c 0
 -5 234 -14 225 -26 219 c 1xd0
-60 213 m 1
 -81 193 l 1
 -96 208 l 1
 -73 230 l 1
 -48 230 l 1
 -25 208 l 1
 -40 193 l 1
 -60 213 l 1
EndSplineSet
EndChar

StartChar: uni03020303.case
Encoding: 660 -1 660
Width: 0
GlyphClass: 4
Flags: HMW
HStem: 213 17<-41 -41>
VStem: -78 72
AnchorPoint: "Anchor-11" -41 268 basemark 0
AnchorPoint: "Anchor-11" -41 179 mark 0
AnchorPoint: "Anchor-9" -41 179 mark 0
AnchorPoint: "Anchor-6" -41 179 mark 0
AnchorPoint: "Anchor-1" -41 179 mark 0
LayerCount: 2
Fore
SplineSet
-27 257 m 0
 -34.7361381489 257 -47.6123466996 268 -60 268 c 0
 -73 268 -79 259 -77 235 c 1
 -60 235 l 1
 -61 242 -60 246 -56 246 c 0
 -50.7711663829 246 -36.8651972535 235 -23 235 c 0
 -10 235 -3 244 -5 268 c 1
 -23 268 l 1
 -22 261 -23 257 -27 257 c 0
-77 208 m 1
 -54 230 l 1
 -29 230 l 1
 -6 208 l 1
 -20 193 l 1
 -41 213 l 1
 -62 193 l 1
 -77 208 l 1
EndSplineSet
EndChar

StartChar: Tbar
Encoding: 667 358 667
Width: 136
Flags: HW
HStem: 71 23<4 79 4 79>
VStem: 4 75<71 93 71 93>
AnchorPoint: "Anchor-6" 68 179 basechar 0
AnchorPoint: "Anchor-4" 68 0 basechar 0
LayerCount: 2
Fore
SplineSet
106 71 m 5
 31 71 l 5
 31 93 l 5
 106 93 l 5
 106 71 l 5
134 179 m 1
 134 154 l 1
 82 154 l 1
 82 0 l 1
 55 0 l 1
 55 154 l 1
 3 154 l 1
 3 179 l 1
 134 179 l 1
EndSplineSet
EndChar

StartChar: tbar
Encoding: 668 359 668
Width: 96
Flags: HW
HStem: -3 23<67 74> 112 22<4 27 4 27 51 90>
VStem: 27 25<44 112 134 167>
AnchorPoint: "Anchor-7" 62 150 basechar 0
AnchorPoint: "Anchor-6" 48 134 basechar 0
AnchorPoint: "Anchor-4" 64 0 basechar 0
LayerCount: 2
Fore
SplineSet
83 71 m 5
 8 71 l 5
 8 93 l 5
 83 93 l 5
 83 71 l 5
74 20 m 0
 81 20 87 22 93 24 c 1
 93 1 l 1
 86 -1 77 -3 70 -3 c 0
 46 -3 27 10 27 44 c 2
 27 112 l 1
 4 112 l 1
 4 134 l 1
 27 134 l 1
 27 167 l 1
 51 167 l 1
 51 134 l 1
 90 134 l 1
 90 112 l 1
 51 112 l 1
 51 44 l 2
 51 27 61 20 74 20 c 0
EndSplineSet
EndChar

StartChar: Eng
Encoding: 669 330 669
Width: 182
Flags: HW
HStem: 0 5G<21 47 21 21 135 135 135 162> 136 43<47 51 47 47>
VStem: 21 26<0 136> 135 26<0 179 55 179 0 179>
AnchorPoint: "Anchor-6" 91 179 basechar 0
AnchorPoint: "Anchor-4" 91 0 basechar 0
LayerCount: 2
Fore
SplineSet
122 -51 m 0
 116 -51 110 -50 105 -49 c 1x74
 105 -26 l 1
 109 -28 115 -28 119 -28 c 0
 130 -28 138 -23 138 -6 c 2
 138 44 l 1
 162 44 l 1
 162 -6 l 2xb4
 162 -35 147 -51 122 -51 c 0
47 0 m 1
 21 0 l 1
 21 179 l 1
 54 179 l 1
 131 55 l 1
 135 55 l 1
 135 179 l 1
 162 179 l 1
 162 0 l 1
 135 0 l 1
 51 136 l 1
 47 136 l 1
 47 0 l 1
EndSplineSet
EndChar

StartChar: eng
Encoding: 670 331 670
Width: 152
Flags: HW
HStem: 0 5G<19 43 19 19 111 111 111 135> 114 23<77 90> 129 5G<19 43 43 43>
VStem: 19 25<0 91 113 134> 111 25<0 81 81 86 0 93>
AnchorPoint: "Anchor-6" 77 134 basechar 0
AnchorPoint: "Anchor-4" 77 0 basechar 0
LayerCount: 2
Fore
SplineSet
95 -51 m 4
 89 -51 83 -50 78 -49 c 5x74
 78 -26 l 5
 82 -28 88 -28 92 -28 c 4
 103 -28 111 -23 111 -6 c 6
 111 44 l 5
 135 44 l 5
 135 -6 l 6xb4
 135 -35 120 -51 95 -51 c 4
43 0 m 1xd8
 19 0 l 1
 19 134 l 1
 43 134 l 1
 43 113 l 1xb8
 47 112 l 1
 54 126 67 137 87 137 c 0
 117 137 135 119 135 86 c 2
 135 0 l 1
 111 0 l 1
 111 81 l 2
 111 104 99 114 81 114 c 0
 64 114 50 105 43 91 c 1
 43 0 l 1xd8
EndSplineSet
EndChar

StartChar: longs
Encoding: 671 383 671
Width: 64
Flags: HW
HStem: -51 23<3 9 1 18> -49 5G<-11 -11> 129 5G<22 46 46 46>
VStem: 22 25<-6 134>
AnchorPoint: "Anchor-6" 34 183 basechar 0
AnchorPoint: "Anchor-4" 33 0 basechar 0
LayerCount: 2
Fore
SplineSet
62 185 m 0xb0
 68 185 74 184 79 183 c 1x70
 79 160 l 1
 75 162 69 162 65 162 c 0
 54 162 46 157 46 140 c 2
 46 0 l 1
 22 0 l 1
 22 140 l 2
 22 169 37 185 62 185 c 0xb0
EndSplineSet
EndChar

StartChar: uni030F
Encoding: 681 783 681
Width: 0
Flags: HW
HStem: 151 29<-52 -5 -52 -47 -52 -52 -71 -52> 175 5G<-52 -52 -95 -95>
VStem: -95 90<151 180>
AnchorPoint: "Anchor-11" -39 134 mark 0
AnchorPoint: "Anchor-9" -50 190 basemark 0
AnchorPoint: "Anchor-9" -39 134 mark 0
AnchorPoint: "Anchor-6" -39 134 mark 0
AnchorPoint: "Anchor-1" -39 134 mark 0
LayerCount: 2
Fore
SplineSet
-52 180 m 1x60
 -29 151 l 1
 -5 151 l 1xa0
 -29 191 l 1
 -52 180 l 1x60
-95 180 m 1
 -71 151 l 1
 -47 151 l 1
 -72 191 l 1
 -95 180 l 1
EndSplineSet
EndChar

StartChar: uni0311
Encoding: 682 785 682
Width: 0
Flags: HW
HStem: 168 21<-44 -36 -52 -36> 150 39<-52 -5>
VStem: -25 20<150 156 150 156> -74 20<150 156>
AnchorPoint: "Anchor-1" -40 134 mark 0
AnchorPoint: "Anchor-6" -40 134 mark 0
AnchorPoint: "Anchor-9" -40 134 mark 0
AnchorPoint: "Anchor-9" -40 189 basemark 0
AnchorPoint: "Anchor-11" -40 134 mark 0
LayerCount: 2
Fore
SplineSet
-40 189 m 0xb0
 -15 189 -5 172 -5 150 c 1
 -25 150 l 1x70
 -25 162 -31 168 -40 168 c 0xb0
 -49 168 -54 162 -54 150 c 1
 -75 150 l 1x70
 -75 172 -65 189 -40 189 c 0xb0
EndSplineSet
EndChar

StartChar: uni0394
Encoding: 683 916 683
Width: 169
Flags: HW
HStem: 0 24<37 139 11 11> 151 29<87 90 87 87>
VStem: 11 26<0 24 24 24> 139 26<0 24>
LayerCount: 2
Fore
SplineSet
72 179 m 1
 104 179 l 1
 166 24 l 1
 166 0 l 1
 11 0 l 1
 11 24 l 1
 72 179 l 1
90 151 m 1
 87 151 l 1
 37 24 l 1
 139 24 l 1
 90 151 l 1
EndSplineSet
EndChar

StartChar: uni03A9
Encoding: 684 937 684
Width: 192
Flags: HW
HStem: 0 25<11 47 11 87 11 47 151 187> 156 25<82 116>
VStem: 11 76<0 25 25 25> 19 27<81 113 77 120> 47 39 111 39 111 76<0 25 0 25 0 25> 152 27<81 113>
LayerCount: 2
Fore
SplineSet
87 0 m 1xe1
 11 0 l 1
 11 25 l 1xe1
 47 25 l 1xc9
 48 29 l 1
 29 42 19 67 19 93 c 0
 19 145 49 182 99 182 c 0
 149 182 179 145 179 93 c 0xd1
 179 67 169 42 150 29 c 1
 151 25 l 1xd4
 187 25 l 1
 187 0 l 1
 111 0 l 1xd2
 111 25 l 1
 136 36 152 59 152 93 c 0
 152 132 134 156 99 156 c 0
 65 156 45 132 45 93 c 0xd1
 45 59 62 36 87 25 c 1
 87 0 l 1xe1
EndSplineSet
EndChar

StartChar: uni03BC
Encoding: 685 956 685
Width: 150
Flags: HW
HStem: -3 23<62 73> 0 5G<107 132 107 107> 129 5G<18 42 42 42 107 132 132 132>
VStem: 18 25<49 54 54 134> 107 25<0 21 21 21 43 134 0 134>
AnchorPoint: "Anchor-7" 107 134 basechar 0
AnchorPoint: "Anchor-6" 75 134 basechar 0
AnchorPoint: "Anchor-5" 132 0 basechar 0
AnchorPoint: "Anchor-4" 75 0 basechar 0
LayerCount: 2
Fore
SplineSet
71 -4 m 0xb8
 90 -4 97 7 104 22 c 1
 107 21 l 1x78
 107 0 l 1
 132 0 l 1
 132 134 l 1
 107 134 l 1
 107 43 l 1xb8
 99 29 88 20 72 20 c 0
 56 20 44 29 36 43 c 1xb8
 36 134 l 1
 11 134 l 1
 11 -51 l 5
 36 -51 l 5
 36 21 l 1x78
 39 22 l 1
 46 7 52 -4 71 -4 c 0xb8
EndSplineSet
EndChar

StartChar: uni0313
Encoding: 749 787 749
Width: 0
Flags: HW
HStem: 133 46<5 27 5 30>
VStem: 5 24
LayerCount: 2
Fore
SplineSet
-8 138 m 1
 -30 138 l 1
 -30 184 l 1
 -5 184 l 1
 -8 138 l 1
EndSplineSet
EndChar

StartChar: uni207D
Encoding: 750 8317 750
Width: 55
Flags: HW
HStem: 92 135<32 53 32 53>
VStem: 11 20<146 174 146 176>
LayerCount: 2
Fore
SplineSet
53 92 m 1
 32 92 l 1
 21 107 11 128 11 160 c 0
 11 192 21 213 32 228 c 1
 53 228 l 1
 41 213 31 188 31 160 c 0
 31 132 41 106 53 92 c 1
EndSplineSet
EndChar

StartChar: uni207E
Encoding: 751 8318 751
Width: 55
Flags: HW
HStem: 92 135<2 23 2 23>
VStem: 24 20<146 174>
LayerCount: 2
Fore
SplineSet
23 92 m 1
 2 92 l 1
 14 106 24 132 24 160 c 0
 24 188 14 213 2 228 c 1
 23 228 l 1
 34 213 44 192 44 160 c 0
 44 128 34 107 23 92 c 1
EndSplineSet
EndChar

StartChar: uni208D
Encoding: 752 8333 752
Width: 55
Flags: HW
HStem: -49 5G<32 53 32 32>
VStem: 11 20<5 33 5 35>
LayerCount: 2
Fore
SplineSet
53 -49 m 1
 32 -49 l 1
 21 -34 11 -13 11 19 c 0
 11 51 21 72 32 87 c 1
 53 87 l 1
 41 72 31 47 31 19 c 0
 31 -9 41 -35 53 -49 c 1
EndSplineSet
EndChar

StartChar: uni208E
Encoding: 753 8334 753
Width: 55
Flags: HW
HStem: -49 5G<2 23 2 2>
VStem: 24 20<5 33>
LayerCount: 2
Fore
SplineSet
23 -49 m 1
 2 -49 l 1
 14 -35 24 -9 24 19 c 0
 24 47 14 72 2 87 c 1
 23 87 l 1
 34 72 44 51 44 19 c 0
 44 -13 34 -34 23 -49 c 1
EndSplineSet
EndChar

StartChar: uni01E5
Encoding: 754 485 754
Width: 152
Flags: HW
HStem: 160 22<5 75 5 75>
VStem: 5 70<160 182 160 182>
AnchorPoint: "Anchor-9" 40 182 basemark 0
AnchorPoint: "Anchor-6" 73 134 basechar 0
AnchorPoint: "Anchor-4" 73 -49 basechar 0
LayerCount: 2
Fore
SplineSet
151 -22 m 5
 81 -22 l 5
 81 0 l 5
 151 0 l 5
 151 -22 l 5
73 -51 m 0xec
 49 -51 29 -42 17 -28 c 1
 33 -11 l 1
 43 -22 57 -28 73 -28 c 0
 96 -28 109 -16 109 11 c 2
 109 24 l 1
 106 25 l 1xea
 99 12 87 3 69 3 c 0
 35 3 11 31 11 69 c 0
 11 111 37 137 70 137 c 0
 86 137 98 131 106 122 c 1
 109 123 l 1xec
 109 134 l 1
 134 134 l 1xdc
 134 15 l 2
 134 -27 112 -51 73 -51 c 0xec
72 26 m 0
 89 26 102 34 109 47 c 1
 109 98 l 1
 100 108 89 113 74 113 c 0
 51 113 36 98 36 69 c 0
 36 42 50 26 72 26 c 0
EndSplineSet
EndChar

StartChar: uniE000
Encoding: 840 57344 840
Width: 152
Flags: HW
HStem: -3 25<74 90 74 99> 157 25<62 78>
VStem: 10 26<79 111 79 117> 115 26<69 101>
LayerCount: 2
Fore
SplineSet
76 182 m 0
 122 182 142 145 142 90 c 0
 142 35 122 -3 76 -3 c 0
 31 -3 10 35 10 90 c 0
 10 145 31 182 76 182 c 0
76 157 m 0
 49 157 37 132 37 90 c 0
 37 68 40 50 47 38 c 1
 86 156 l 1
 83 157 80 157 76 157 c 0
76 22 m 0
 104 22 115 48 115 90 c 0
 115 112 112 129 105 141 c 1
 67 23 l 1
 70 22 73 22 76 22 c 0
EndSplineSet
EndChar

StartChar: uniE001
Encoding: 841 57345 841
Width: 179
Flags: HW
HStem: -3 25<76 103 76 112> 157 25<76 103>
VStem: 24 26<69 111 69 117> 129 26<69 111>
LayerCount: 2
Fore
SplineSet
90 -3 m 0
 45 -3 24 35 24 90 c 0
 24 145 45 182 90 182 c 0
 135 182 155 145 155 90 c 0
 155 35 135 -3 90 -3 c 0
90 22 m 0
 117 22 129 48 129 90 c 0
 129 132 117 157 90 157 c 0
 63 157 50 132 50 90 c 0
 50 48 63 22 90 22 c 0
EndSplineSet
EndChar

StartChar: uniE002
Encoding: 842 57346 842
Width: 179
Flags: HW
HStem: 0 25<34 77 102 145 34 77> 148 31<73 102 73 102>
VStem: 77 25<25 148 148 148 25 179>
LayerCount: 2
Fore
SplineSet
102 179 m 1
 102 25 l 1
 145 25 l 1
 145 0 l 1
 34 0 l 1
 34 25 l 1
 77 25 l 1
 77 148 l 1
 73 148 l 1
 34 124 l 1
 34 152 l 1
 77 179 l 1
 102 179 l 1
EndSplineSet
EndChar

StartChar: uniE003
Encoding: 843 57347 843
Width: 179
Flags: HW
HStem: 0 25<69 151 69 151> 156 25<81 96>
VStem: 117 27<119 138>
LayerCount: 2
Fore
SplineSet
151 0 m 1
 34 0 l 1
 30 25 l 1
 81 73 l 2
 106 96 117 110 117 129 c 0
 117 148 105 156 88 156 c 0
 73 156 61 151 48 134 c 1
 29 150 l 1
 42 167 59 182 87 182 c 0
 122 182 144 162 144 129 c 0
 144 101 128 83 99 57 c 2
 68 29 l 1
 69 25 l 1
 151 25 l 1
 151 0 l 1
EndSplineSet
EndChar

StartChar: uniE004
Encoding: 844 57348 844
Width: 179
Flags: HW
HStem: -3 25<81 100 81 108> 81 25<69 87 87 89 69 87> 156 25<83 98>
VStem: 69 53<93 97 93 105 93 105> 117 27<126 141> 124 27<44 62>
LayerCount: 2
Fore
SplineSet
90 -3 m 0xe4
 59 -3 38 11 28 29 c 1
 47 45 l 1
 58 30 71 23 90 23 c 0
 111 23 124 35 124 53 c 0xe4
 124 72 109 81 89 81 c 2
 69 81 l 1
 69 105 l 1xf4
 87 105 l 2
 107 105 117 116 117 133 c 0
 117 149 106 156 90 156 c 0
 76 156 64 150 51 134 c 1
 32 150 l 1
 45 167 63 182 89 182 c 0
 122 182 144 163 144 135 c 0xe8
 144 116 136 104 122 97 c 1xf4
 122 93 l 1
 139 88 151 75 151 52 c 0
 151 21 127 -3 90 -3 c 0xe4
EndSplineSet
EndChar

StartChar: uniE005
Encoding: 845 57349 845
Width: 179
Flags: HW
HStem: 0 5G<109 134 109 109> 42 24<54 109 54 109 134 157> 137 42<105 134 105 134> 174 5G<109 134 134 134>
VStem: 109 25<0 42 0 42 66 137 137 137>
LayerCount: 2
Fore
SplineSet
134 66 m 1xd8
 157 66 l 1
 157 42 l 1
 134 42 l 1
 134 0 l 1
 109 0 l 1
 109 42 l 1
 25 42 l 1
 22 66 l 1
 109 179 l 1
 134 179 l 1
 134 66 l 1xd8
53 69 m 1
 54 66 l 1
 109 66 l 1
 109 137 l 1
 105 137 l 1xe8
 53 69 l 1
EndSplineSet
EndChar

StartChar: uniE006
Encoding: 846 57350 846
Width: 179
Flags: HW
HStem: -3 25<80 98 80 108> 93 25<86 97> 155 24<67 142 67 67>
VStem: 124 27<45 59 40 71>
LayerCount: 2
Fore
SplineSet
88 -3 m 0
 60 -3 38 11 28 29 c 1
 47 45 l 1
 57 30 71 23 89 23 c 0
 107 23 124 32 124 58 c 0
 124 84 107 93 87 93 c 0
 75 93 66 90 59 85 c 1
 38 89 l 1
 46 179 l 1
 142 179 l 1
 142 155 l 1
 67 155 l 1
 64 115 l 1
 65 112 l 1
 72 117 81 118 91 118 c 0
 124 118 151 98 151 59 c 0
 151 22 127 -3 88 -3 c 0
EndSplineSet
EndChar

StartChar: uniE007
Encoding: 847 57351 847
Width: 179
Flags: HW
HStem: -3 25<78 100 78 108> 92 24<91 100> 174 5G<86 115 115 115>
VStem: 27 26<47 66> 125 27<47 68>
LayerCount: 2
Fore
SplineSet
89 -3 m 0
 51 -3 27 24 27 58 c 0
 27 74 30 92 44 114 c 2
 86 179 l 1
 115 179 l 1
 71 111 l 1
 74 109 l 1
 79 114 86 116 97 116 c 0
 128 116 151 92 151 58 c 0
 151 24 128 -3 89 -3 c 0
89 23 m 0
 111 23 125 37 125 58 c 0
 125 79 111 92 89 92 c 0
 67 92 53 79 53 58 c 0
 53 37 67 23 89 23 c 0
EndSplineSet
EndChar

StartChar: uniE008
Encoding: 848 57352 848
Width: 179
Flags: HW
HStem: 0 5G<51 79 51 51> 154 25<31 120 31 144>
VStem: 31 117<154 179 154 179>
LayerCount: 2
Fore
SplineSet
79 0 m 1
 51 0 l 1
 121 151 l 1
 120 154 l 1
 31 154 l 1
 31 179 l 1
 144 179 l 1
 148 154 l 1
 79 0 l 1
EndSplineSet
EndChar

StartChar: uniE009
Encoding: 849 57353 849
Width: 179
Flags: HW
HStem: -3 25<80 103 80 111> 80 24<82 101 82 103> 157 25<82 101>
VStem: 28 28<42 60 42 61> 35 27<124 138 123 149> 122 27<124 138> 128 28<42 60>
LayerCount: 2
Fore
SplineSet
92 -3 m 0xf2
 53 -3 28 16 28 50 c 0xf2
 28 73 41 87 58 92 c 1
 58 95 l 1
 44 102 35 114 35 133 c 0
 35 164 60 182 92 182 c 0
 124 182 149 164 149 133 c 0
 149 114 139 102 125 95 c 1xec
 125 92 l 1
 142 87 155 73 155 50 c 0
 155 16 131 -3 92 -3 c 0xf2
92 104 m 0xec
 111 104 122 116 122 131 c 0
 122 146 111 157 92 157 c 0
 73 157 62 146 62 131 c 0
 62 116 73 104 92 104 c 0xec
92 22 m 0xf2
 115 22 128 33 128 51 c 0
 128 69 115 80 92 80 c 0
 69 80 56 69 56 51 c 0
 56 33 69 22 92 22 c 0xf2
EndSplineSet
EndChar

StartChar: uniE00A
Encoding: 850 57354 850
Width: 179
Flags: HW
HStem: 0 5G<64 93 64 64> 63 24<79 87> 157 25<79 101>
VStem: 27 27<111 132 111 138> 126 26<113 132>
LayerCount: 2
Fore
SplineSet
90 182 m 0
 128 182 152 155 152 121 c 0
 152 105 148 87 134 65 c 2
 93 0 l 1
 64 0 l 1
 107 68 l 1
 104 70 l 1
 99 65 93 63 82 63 c 0
 51 63 27 87 27 121 c 0
 27 155 51 182 90 182 c 0
90 157 m 0
 68 157 54 143 54 122 c 0
 54 101 68 87 90 87 c 0
 112 87 126 101 126 122 c 0
 126 143 112 157 90 157 c 0
EndSplineSet
EndChar

StartChar: uniE00B
Encoding: 851 57355 851
Width: 0
Flags: HW
HStem: 158 25<-74 -49 -74 -49 -74 -30 -30 -5>
VStem: -74 25<158 183> -30 25<158 183>
AnchorPoint: "Anchor-11" -40 134 mark 0
AnchorPoint: "Anchor-9" -40 230 basemark 0
AnchorPoint: "Anchor-9" -40 134 mark 0
AnchorPoint: "Anchor-6" -40 134 mark 0
AnchorPoint: "Anchor-1" -40 134 mark 0
LayerCount: 2
Fore
SplineSet
-76 215 m 1
 -55 230 l 1
 -23 189 l 1
 -48 189 l 1
 -76 215 l 1
-49 158 m 1
 -74 158 l 1
 -74 183 l 1
 -49 183 l 1
 -49 158 l 1
-5 158 m 1
 -30 158 l 1
 -30 183 l 1
 -5 183 l 1
 -5 158 l 1
EndSplineSet
EndChar

StartChar: uniE00C
Encoding: 852 57356 852
Width: 0
Flags: HW
HStem: 158 25<-78 -53 -78 -53 -78 -34 -34 -9>
VStem: -78 25<158 183> -34 25<158 183>
AnchorPoint: "Anchor-11" -44 134 mark 0
AnchorPoint: "Anchor-9" -42 230 basemark 0
AnchorPoint: "Anchor-9" -44 134 mark 0
AnchorPoint: "Anchor-6" -44 134 mark 0
AnchorPoint: "Anchor-1" -44 134 mark 0
LayerCount: 2
Fore
SplineSet
-6 215 m 1
 -33 189 l 1
 -59 189 l 1
 -26 230 l 1
 -6 215 l 1
-53 158 m 1
 -78 158 l 1
 -78 183 l 1
 -53 183 l 1
 -53 158 l 1
-9 158 m 1
 -34 158 l 1
 -34 183 l 1
 -9 183 l 1
 -9 158 l 1
EndSplineSet
EndChar

StartChar: uniE00D
Encoding: 853 57357 853
Width: 0
Flags: HW
HStem: 158 25<-76 -51 -76 -51 -76 -32 -32 -7> 189 17<-41 -41 -41 -29 -54 -41>
VStem: -76 25<158 183> -32 25<158 183>
AnchorPoint: "Anchor-11" -42 134 mark 0
AnchorPoint: "Anchor-9" -42 226 basemark 0
AnchorPoint: "Anchor-9" -42 134 mark 0
AnchorPoint: "Anchor-6" -42 134 mark 0
AnchorPoint: "Anchor-1" -42 134 mark 0
LayerCount: 2
Fore
SplineSet
-29 189 m 1
 -54 189 l 1
 -77 211 l 1
 -62 226 l 1
 -41 206 l 1
 -21 226 l 1
 -6 211 l 1
 -29 189 l 1
-51 158 m 1xb0
 -76 158 l 1
 -76 183 l 1
 -51 183 l 1
 -51 158 l 1xb0
-7 158 m 1
 -32 158 l 1
 -32 183 l 1
 -7 183 l 1
 -7 158 l 1
EndSplineSet
EndChar

StartChar: uniE00E
Encoding: 854 57358 854
Width: 0
Flags: HW
HStem: 158 25<-76 -51 -76 -51 -76 -32 -32 -7> 194 22<-77 -7 -77 -7>
VStem: -77 25 -76 25<158 183> -32 25<158 183> -32 25<158 194 183 194>
AnchorPoint: "Anchor-11" -42 134 mark 0
AnchorPoint: "Anchor-9" -42 216 basemark 0
AnchorPoint: "Anchor-9" -42 134 mark 0
AnchorPoint: "Anchor-6" -42 134 mark 0
AnchorPoint: "Anchor-1" -42 134 mark 0
LayerCount: 2
Fore
SplineSet
-7 194 m 1xe4
 -77 194 l 1
 -77 216 l 1
 -7 216 l 1
 -7 194 l 1xe4
-51 158 m 1xd8
 -76 158 l 1
 -76 183 l 1
 -51 183 l 1
 -51 158 l 1xd8
-7 158 m 1
 -32 158 l 1
 -32 183 l 1
 -7 183 l 1
 -7 158 l 1
EndSplineSet
EndChar

StartChar: uniE00F
Encoding: 855 57359 855
Width: 0
Flags: HW
HStem: 133 46<-30 -8 -30 -5>
VStem: -30 24
AnchorPoint: "Anchor-10" -35 134 mark 0
AnchorPoint: "Anchor-7" -35 134 mark 0
AnchorPoint: "Anchor-3" -35 134 mark 0
LayerCount: 2
Fore
SplineSet
-8 133 m 1
 -30 133 l 1
 -30 179 l 1
 -5 179 l 1
 -8 133 l 1
EndSplineSet
EndChar

StartChar: uniE010
Encoding: 856 57360 856
Width: 0
Flags: HW
HStem: 198 25<-74 -49 -74 -49 -74 -30 -30 -5>
VStem: -74 25<198 223 198 223> -30 25<198 223 198 223>
AnchorPoint: "Anchor-11" -40 179 mark 0
AnchorPoint: "Anchor-9" -40 223 basemark 0
AnchorPoint: "Anchor-9" -40 179 mark 0
AnchorPoint: "Anchor-6" -40 179 mark 0
AnchorPoint: "Anchor-1" -40 179 mark 0
LayerCount: 2
Fore
SplineSet
-49 198 m 1
 -74 198 l 1
 -74 223 l 1
 -49 223 l 1
 -49 198 l 1
-5 198 m 1
 -30 198 l 1
 -30 223 l 1
 -5 223 l 1
 -5 198 l 1
EndSplineSet
EndChar

StartChar: uniE011
Encoding: 857 57361 857
Width: 0
Flags: HW
HStem: 198 25<-74 -49 -74 -49 -74 -30 -30 -5>
VStem: -74 25<198 223 198 223> -30 25<198 223 198 223>
AnchorPoint: "Anchor-11" -40 179 mark 0
AnchorPoint: "Anchor-9" -41 270 basemark 0
AnchorPoint: "Anchor-9" -40 179 mark 0
AnchorPoint: "Anchor-6" -40 179 mark 0
AnchorPoint: "Anchor-1" -40 179 mark 0
LayerCount: 2
Fore
SplineSet
-76 255 m 1
 -55 270 l 1
 -23 229 l 1
 -48 229 l 1
 -76 255 l 1
-49 198 m 1
 -74 198 l 1
 -74 223 l 1
 -49 223 l 1
 -49 198 l 1
-5 198 m 1
 -30 198 l 1
 -30 223 l 1
 -5 223 l 1
 -5 198 l 1
EndSplineSet
EndChar

StartChar: uniE012
Encoding: 858 57362 858
Width: 0
Flags: HW
HStem: 198 25<-77 -51 -77 -51 -77 -32 -32 -7>
VStem: -77 25<198 223 198 223> -32 25<198 223 198 223>
AnchorPoint: "Anchor-11" -42 179 mark 0
AnchorPoint: "Anchor-9" -41 270 basemark 0
AnchorPoint: "Anchor-9" -42 179 mark 0
AnchorPoint: "Anchor-6" -42 179 mark 0
AnchorPoint: "Anchor-1" -42 179 mark 0
LayerCount: 2
Fore
SplineSet
-5 255 m 1
 -33 229 l 1
 -58 229 l 1
 -26 270 l 1
 -5 255 l 1
-51 198 m 1
 -77 198 l 1
 -77 223 l 1
 -51 223 l 1
 -51 198 l 1
-7 198 m 1
 -32 198 l 1
 -32 223 l 1
 -7 223 l 1
 -7 198 l 1
EndSplineSet
EndChar

StartChar: uniE013
Encoding: 859 57363 859
Width: 0
Flags: HW
HStem: 198 25<-76 -51 -76 -51 -76 -32 -32 -7> 229 17<-41 -41 -41 -29 -54 -41>
VStem: -76 25<198 223 198 223> -32 25<198 223 198 223>
AnchorPoint: "Anchor-11" -42 179 mark 0
AnchorPoint: "Anchor-9" -42 266 basemark 0
AnchorPoint: "Anchor-9" -42 179 mark 0
AnchorPoint: "Anchor-6" -42 179 mark 0
AnchorPoint: "Anchor-1" -42 179 mark 0
LayerCount: 2
Fore
SplineSet
-29 229 m 1
 -54 229 l 1
 -77 251 l 1
 -62 266 l 1
 -41 246 l 1
 -21 266 l 1
 -6 251 l 1
 -29 229 l 1
-51 198 m 1xb0
 -76 198 l 1
 -76 223 l 1
 -51 223 l 1
 -51 198 l 1xb0
-7 198 m 1
 -32 198 l 1
 -32 223 l 1
 -7 223 l 1
 -7 198 l 1
EndSplineSet
EndChar

